<?xml version="1.0" encoding="UTF-8"?>
<svg id="Layer_1" xmlns="http://www.w3.org/2000/svg" version="1.1" viewBox="0 0 332.3052979 542.607666">
  <!-- Generator: Adobe Illustrator 30.0.0, SVG Export Plug-In . SVG Version: 2.1.1 Build 123)  -->
  <g id="lower_back">
    <path d="M170.3353424,219.5439606c-4.6500244,5.1799927-10.0500488,13.3499756-11.6201172,24.3599854v15.9699554h-.4299316v-15.9699707c-1.5700684-11.0100098-6.9699707-19.1799927-11.6199951-24.3599854,8.9200439-7.960022,8.5999756-22.0700073,8.5799561-22.5800171,1.1600342,1.3200073,2.2199707,2.0999756,3.0400391,2.0999756h.4299316c.8200684,0,1.880127-.7799683,3.0400391-2.0999756-.0200195.5100098-.3399658,14.6199951,8.5800781,22.5800171v.0000153Z" fill="#8892a4"/>
  </g>
  <g id="triceps">
    <path d="M123.685318,172.0639191v.0100098c-2.6800537,13.1699829-16.710083,33.3200073-16.710083,33.3200073,0,0,1.2399902-8.3800049-1.0499268-23.0900269-.2700195-1.7399902-.5-3.3899536-.710083-4.9599609,0,0-9.3798828,6.3399658-8.579834,21.0499878-1.6601562-27.6600342,5.6699219-37.5,5.6699219-37.5,0,0,.5-.9100342,1.4799805-2.3099976v-.0100098c2.1000977-3,6.4000244-8.2700195,12.8400879-11.9000244.0100098.3500366.3498535,8.8800049,6.039917,14.8700562,0,0,.25,4.5999756,1.0200195,10.5199585Z" fill="#8892a4"/>
    <path d="M220.3653717,198.3939362c.7999268-14.710022-8.5800781-21.0499878-8.5800781-21.0499878-.2099609,1.5700073-.4399414,3.2199707-.7099609,4.9599609-2.2900391,14.710022-1.0500488,23.0900269-1.0500488,23.0900269,0,0-14.0300293-20.1500244-16.7099609-33.3200073v-.0100098c.7700195-5.9199829,1.0200195-10.5199585,1.0200195-10.5199585,5.6799316-5.9700317,6.0300293-14.4700317,6.0400391-14.8700562,6.4399414,3.6300049,10.7399902,8.9000244,12.8398438,11.9000244v.0100098c.9801025,1.3999634,1.4801025,2.3099976,1.4801025,2.3099976,0,0,7.3299561,9.8399658,5.6700439,37.5Z" fill="#8892a4"/>
  </g>
  <g id="shoulders">
    <path d="M138.4553375,133.4239044c-1.7600098,2.3600464-7.0300293,6.3300171-17.0699463,10.9500122-.6201172.2800293-1.25.5700073-1.9101562.8599854-.9899902.4400024-1.9399414.9200439-2.8498535,1.4300537v.0099487c-6.4400635,3.6300049-10.7399902,8.9000244-12.8400879,11.9000244v.0100098c-.9799805,1.3999634-1.4799805,2.3099976-1.4799805,2.3099976.8300781-39.5,26.1699219-35.8300171,26.1699219-35.8300171,0,0,5.2600098,1.6600342,9.9801025,8.3599854Z" fill="#8892a4"/>
    <path d="M213.2152252,158.5839386v-.0100098c-2.0998535-3-6.3999023-8.2700195-12.8398438-11.9000244v-.0099487c-.9101562-.5100098-1.8601074-.9900513-2.8500977-1.4300537-.6499023-.289978-1.2900391-.5799561-1.9099121-.8599854-10.0400391-4.6199951-15.3100586-8.5899658-17.0700684-10.9500122,4.7199707-6.6999512,9.9799805-8.3599854,9.9799805-8.3599854,0,0,25.3400879-3.6699829,26.1700439,35.8300171,0,0-.5-.9100342-1.4801025-2.3099976Z" fill="#8892a4"/>
  </g>
  <g id="traps">
    <path d="M188.5252838,125.0639191s-5.2600098,1.6600342-9.9799805,8.3599854c-3.3499756,4.7400513-6.4199219,11.9900513-7.1799316,22.9700317,0,0-.2199707,4.75-.6101074,10.5100098-.25,3.6900024-.5699463,7.8099976-.9399414,11.3299561-.7099609,6.6800537-4.7299805,14.9200439-8.0600586,18.7200317v.0100098c-1.1599121,1.3200073-2.2199707,2.0999756-3.0400391,2.0999756h-.4299316c-.8200684,0-1.8800049-.7799683-3.0400391-2.0999756v-.0100098c-3.3299561-3.7999878-7.3498535-12.039978-8.0599365-18.7200317-.3800049-3.5199585-.6900635-7.6399536-.9400635-11.3299561-.3898926-5.7600098-.6098633-10.5100098-.6098633-10.5100098-.75-10.9799805-3.8300781-18.2299805-7.1800537-22.9700317-4.7200928-6.6999512-9.9801025-8.3599854-9.9801025-8.3599854,21.6601562-7,20.5400391-24.8699951,20.5400391-24.8699951l.7900391-8.2999878c2.3300781-3.3300171,8.4799805-2.8300171,8.4799805-2.8300171h.4299316s6.1501465-.5,8.4801025,2.8300171l.789917,8.2999878s-1.119873,17.8699951,20.5400391,24.8699951Z" fill="#8892a4"/>
  </g>
  <g id="lats">
    <path d="M146.6652985,219.5439606c-3.9599609-4.4000244-7.3599854-6.6500244-7.3599854-6.6500244-1.8000488-8.1799927-9.2199707-14.9100342-12.4899902-25.25-.0600586-.1900024-.1199951-.3800049-.1799316-.5800171-1.4001465-4.7299805-2.3400879-10.2799683-2.9500732-14.9899902v-.0100098c-.7700195-5.9199829-1.0200195-10.5199585-1.0200195-10.5199585-5.6900635-5.9900513-6.0299072-14.5200195-6.039917-14.8700562v-.0099487c.9099121-.5100098,1.8598633-.9900513,2.8498535-1.4300537.6601562-.289978,1.2900391-.5799561,1.9101562-.8599854,0,0,4.329834,20.1099854,22.8798828,22.3599854h.0200195c.6400146.0800171,1.2900391.1400146,1.9599609.1700439.25,3.6900024.5600586,7.8099976.9400635,11.3299561.710083,6.6800537,4.7299805,14.9200439,8.0599365,18.7200317v.0100098c.0200195.5100098.3400879,14.6199951-8.5799561,22.5800171Z" fill="#8892a4"/>
    <path d="M200.3753815,146.6639557v.0099487c-.0100098.4000244-.3601074,8.9000244-6.0400391,14.8700562,0,0-.25,4.5999756-1.0200195,10.5199585v.0100098c-.6099854,4.710022-1.5500488,10.2600098-2.9499512,14.9899902-.0600586.2000122-.1201172.3900146-.1800537.5800171-3.2700195,10.3399658-10.6900635,17.0700073-12.4899902,25.25,0,0-3.4000244,2.25-7.3599854,6.6500244-8.9200439-7.960022-8.6000977-22.0700073-8.5800781-22.5800171v-.0100098c3.3300781-3.7999878,7.3500977-12.039978,8.0600586-18.7200317.3699951-3.5199585.6899414-7.6399536.9399414-11.3299561.6700439-.0300293,1.3200684-.0900269,1.9599609-.1700439h.0200195c18.5500488-2.25,22.880127-22.3599854,22.880127-22.3599854.619873.2800293,1.2600098.5700073,1.9099121.8599854.9899902.4400024,1.9399414.9200439,2.8500977,1.4300537Z" fill="#8892a4"/>
  </g>
  <g id="forearms">
    <path d="M87.6353912,262.2339172c-1.4400635,2.4300537-2.6101074,5.0700073-3.4801025,7.3700562-1.3499756,3.539978-2.0198975,6.289978-2.0198975,6.289978-11.6601562,3.6699829-12.3300781-5.3300171-12.3300781-5.3300171,3.1099854-6.4500122,4.5500488-12.5,6.2900391-22,.0100098-.0299683.0100098-.0499878.0200195-.0800171.7700195-4.2299805,1.6098633-9.1499634,2.6899414-15.0899658,3.5-19.3300171,17.8300781-34.9899902,17.8300781-34.9899902.039917.2699585.6899414,5.1400146,1.3798828,8.7099609.3300781,1.7000122.6600342,3.1100464.9400635,3.5900269.8900146,1.5200195,8.0198975-5.3099976,8.0198975-5.3099976,2.8300781,24-15.6699219,50.6699829-19.3398438,56.8399658Z" fill="#8892a4"/>
    <path d="M247.1953278,270.5639343s-.6700439,9-12.3299561,5.3300171c0,0-.6700439-2.75-2.0200195-6.289978-.880127-2.3000488-2.0400391-4.9400024-3.4799805-7.3700562-3.6700439-6.1699829-22.1700439-32.8399658-19.3400879-56.8399658,0,0,7.1300049,6.8300171,8.0200195,5.3099976.2800293-.4799805.6099854-1.8900146.9399414-3.5900269.6900635-3.5699463,1.3400879-8.4400024,1.380127-8.7099609,0,0,14.3299561,15.6599731,17.8299561,34.9899902,1.0799561,5.9400024,1.9100342,10.8599854,2.6900635,15.0899658.0100098.0300293.0100098.0500488.0198975.0800171,1.7401123,9.5,3.1800537,15.5499878,6.2900391,22Z" fill="#8892a4"/>
  </g>
  <g id="glutes">
    <path d="M158.2852936,243.9039459v15.9699554c-1.0400391,4.5-2.8499756,8.1000366-5.1899414,10.8699951-1.4799805,1.7900391-3.1900635,3.2300415-5.0300293,4.3600464-3.6600342,2.25-7.8800049,3.25-12.0900879,3.1699829-4.369873-.0700073-8.7199707-1.3200073-12.4399414-3.5300293-4.8399658-2.8699951-8.5899658-7.3699951-9.8699951-13.0899658-.5-2.25-.8399658-4.4000244-1.0198975-6.4400024-1.4801025-15.9000244,5.8598633-25.5700073,10.0198975-30.0599976,2.3499756-2.5400391,4.7301025-5.7800293,6.8399658-8.4500122,2.1000977-2.6500244,3.9300537-4.7399902,5.2000732-4.9899902,2.5299072-.5100098,4.5999756,1.1799927,4.5999756,1.1799927,0,0,3.4000244,2.25,7.3599854,6.6500244,4.6500244,5.1799927,10.0499268,13.3499756,11.6199951,24.3599854v.0000153Z" fill="#8892a4"/>
    <path d="M204.3553619,255.2139435c-.1800537,2.0399628-.5100098,4.1899872-1.0200195,6.4399872-1.2800293,5.7199707-5.0300293,10.2199707-9.8701172,13.0899658-3.7199707,2.210022-8.0698242,3.460022-12.4399414,3.5300293-4.2099609.0800171-8.4299316-.9199829-12.0899658-3.1699829-1.8399658-1.1300049-3.539917-2.5700073-5.0300293-4.3500366-2.3299561-2.7799683-4.1500244-6.3800049-5.1900635-10.8800049v-15.9699707c1.5700684-11.0100098,6.9700928-19.1799927,11.6201172-24.3599854,3.9599609-4.4000244,7.3599854-6.6500244,7.3599854-6.6500244,0,0,2.0699463-1.6900024,4.5999756-1.1799927,1.2700195.25,3.1000977,2.3399658,5.1999512,4.9899902,2.1101074,2.6699829,4.4899902,5.9099731,6.8400879,8.4500122,4.1699219,4.4899902,11.5,14.1599731,10.0200195,30.0599976v.0000153Z" fill="#8892a4"/>
  </g>
  <g id="calves">
    <path d="M142.475235,418.7339172c-.869873-.0599976-1.6899414-.3499756-2.4599609-.8399658-5.6398926-3.5700073-8.3299561-17.8099976-8.7700195-30-.0799561-2.3800049-.0799561-4.6900024.0100098-6.8300171v-.039978c.0700684-1.7999878.2000732-3.4700317.380127-4.960022,1.6699219-13.5,5.5699463-15.0599976,5.5699463-15.0599976,1.9000244,3.0499878,4.1400146,6.2700195,6.2698975,8.3900146,0,0,3,15.5,3.3300781,27.1699829s-4.3300781,22.1699829-4.3300781,22.1699829Z" fill="#8892a4"/>
    <path d="M131.2552643,381.0639343c-.0899658,2.1400146-.0899658,4.4500122-.0100098,6.8300171h-.0599365s-4.3699951,22.3300171-9.8599854,28.5700073c-.6101074.6900024-1.2199707,1.1799927-1.8500977,1.4299927,0,0-3.8398438-10-2.6699219-24.8300171.4000244-5.1300049,2.2299805-10.2999878,4.5200195-15.4400024,2.0600586-4.5899658,4.4899902-9.1599731,6.6398926-13.6300049.1000977.2200317,3.1401367,7.5100098,3.2900391,17.0300293v.039978Z" fill="#8892a4"/>
    <path d="M185.7552643,387.8939514c-.4399414,12.1900024-3.1298828,26.4299927-8.7700195,30-.7700195.4899902-1.5898438.7799683-2.4599609.8399658,0,0-4.6599121-10.5-4.3299561-22.1699829s3.3299561-27.1699829,3.3299561-27.1699829c2.1300049-2.1199951,4.3701172-5.3400269,6.2700195-8.3900146,0,0,3.9000244,1.5599976,5.5700684,15.0599976.1799316,1.4899902.3099365,3.1600342.3798828,4.960022v.039978c.0900879,2.1400146.0900879,4.4500122.0100098,6.8300171Z" fill="#8892a4"/>
    <path d="M197.5252838,417.8939514c-.6298828-.25-1.2399902-.7399902-1.8499756-1.4299927-5.4899902-6.2399902-9.8599854-28.5700073-9.8599854-28.5700073h-.0600586c.0800781-2.3800049.0800781-4.6900024-.0100098-6.8300171v-.039978c.1501465-9.5200195,3.1900635-16.8099976,3.2900391-17.0300293,2.1500244,4.4700317,4.5800781,9.0400391,6.6400146,13.6300049,2.289917,5.1400146,4.1199951,10.3099976,4.5200195,15.4400024,1.1700439,14.8300171-2.6700439,24.8300171-2.6700439,24.8300171Z" fill="#8892a4"/>
  </g>
  <g id="hamstrings">
    <path d="M151.475235,302.7339172s-.5699463,12.1600342-2.4499512,23c-1.8898926,10.8300171,1.2800293,32.1600342-5.5500488,43.6600342-2.1298828-2.1199951-4.369873-5.3400269-6.2698975-8.3900146-2.7301025-4.3699951-4.7600098-8.3999634-4.7600098-8.3999634-.9899902,3.7099609-2.6199951,7.5099487-4.4801025,11.3799438v.0100098c-2.1499023,4.4700317-4.579834,9.0400391-6.6398926,13.6300049,0,0,1.6499023-15.2299805-.6899414-23.5599976-1.2000732-4.2699585-4.2800293-11.4400024-7.1501465-21.4599609v-.0200195c-2.7399902-9.5100098-5.2799072-21.5900269-5.8498535-36.1900024-1.1601562-30,4.8099365-41.1600342,4.8099365-41.1600342l.2000732-.0199585c.1799316,2.039978.5198975,4.1900024,1.0198975,6.4400024,1.2800293,5.7199707,5.0300293,10.2199707,9.8699951,13.0899658,3.7199707,2.210022,8.0700684,3.460022,12.4399414,3.5300293,4.210083.0800171,8.4300537-.9199829,12.0900879-3.1699829,1.8399658-1.1300049,3.5500488-2.5700073,5.0300293-4.3600464l.0100098.0100098s.2099609.5599976.4799805,1.6199951c0,0,0,.0100098.0100098.0100098,1.0400391,4.0700073,3.0300293,15.4199829-2.1201172,30.3499756Z" fill="#8892a4"/>
    <path d="M209.3653717,296.3939514c-.5700684,14.6099854-3.1101074,26.6900024-5.8500977,36.210022-2.869873,10.0199585-5.9499512,17.1900024-7.1499023,21.4599609-2.3400879,8.3300171-.6900635,23.5599976-.6900635,23.5599976-2.0599365-4.5899658-4.4899902-9.1599731-6.6400146-13.6300049v-.0100098c-1.8599854-3.8699951-3.4899902-7.6699829-4.4799805-11.3799438,0,0-2.0300293,4.0299683-4.7600098,8.3999634-1.8999023,3.0499878-4.1400146,6.2700195-6.2700195,8.3900146-6.8299561-11.5-3.6599121-32.8300171-5.5500488-43.6600342-1.8798828-10.8399658-2.4499512-23-2.4499512-23-5.1499023-14.9399414-3.1499023-26.2999878-2.0999756-30.3599854.2700195-1.0599976.4799805-1.6199951.4799805-1.6199951,1.4901123,1.7800293,3.1900635,3.2200317,5.0300293,4.3500366,3.6600342,2.25,7.8800049,3.25,12.0899658,3.1699829,4.3701172-.0700073,8.7199707-1.3200073,12.4399414-3.5300293,4.8400879-2.8699951,8.5900879-7.3699951,9.8701172-13.0899658.5100098-2.25.8399658-4.4000244,1.0200195-6.4400024l.1999512.0199585s5.9699707,11.1600342,4.8100586,41.1600342Z" fill="#8892a4"/>
  </g>
  <g id="back_base_body">
    <g id="Layer_2">
      <path d="M138.4753113,133.3939362c-.0099945.0099945-.0099945.0200043-.0200043.0299988" fill="#8892a4"/>
      <path d="M106.975235,205.3939362s-7.1298828,6.8300171-8.0198975,5.3099976c-.2800293-.4799805-.6099854-1.8900146-.9400635-3.5900269-.6899414-3.5699463-1.3399658-8.4400024-1.3798828-8.7099609v-.0100098c-.8000488-14.710022,8.579834-21.0499878,8.579834-21.0499878.210083,1.5700073.4400635,3.2199707.710083,4.9599609,2.289917,14.710022,1.0499268,23.0900269,1.0499268,23.0900269Z" fill="#8892a4"/>
      <path d="M139.3053131,212.8939362s-2.0700684-1.6900024-4.5999756-1.1799927c-1.2700195.25-3.0999756,2.3399658-5.2000732,4.9899902,0,0,2.2800293-9.8099976,0-16.6500244-2.2800293-6.8499756-2.6899414-12.4099731-2.6899414-12.4099731,3.2700195,10.3399658,10.6899414,17.0700073,12.4899902,25.25Z" fill="#8892a4"/>
      <path d="M141.725235,486.5639343c1.4101562,4.25-1.6699219,7.25-6.1699219,7.4199829-1.0800781.0400391-2.6599121.0800171-4.4899902.1100464h-.0100098c-5.7600098.0999756-13.8499756.1399536-15.75-.1100464-2.5-.3399658-1.6699219-3.75.9199219-4.8399658,2.5800781-1.0800171,7.0800781-6.5,7.9101562-9.6600342.8398438-3.1699829,2.0898438-5.1699829,3.25-6.6699829,1.1699219-1.5,1.3398438-7.6699829.4199219-11.75s-6.5-30.8300171-8.3300781-43.1699829c.630127-.25,1.2399902-.7399902,1.8500977-1.4299927,5.4899902-6.2399902,9.8599854-28.5700073,9.8599854-28.5700073h.0599365c.4400635,12.1900024,3.130127,26.4299927,8.7700195,30,.7700195.4899902,1.5900879.7799683,2.4599609.8399658,0,0-2.8398438,14-2.8398438,23.1600342,0,9.1699829,0,22.1699829.6699219,23.6699829s1.0800781,6.1699829.3300781,9.1699829c-.6900635,2.7800293-.3901367,6.9100342.789917,10.8800049.0999756.3200073.2000732.6400146.2999268.9500122Z" fill="#8892a4"/>
      <path d="M131.2553101,494.1739197c-.0700073-.0299988-.1300049-.0499878-.1900024-.0799866" fill="#8892a4"/>
      <path d="M137.2053375,361.0039368s-3.9000244,1.5599976-5.5699463,15.0599976c-.1800537,1.4899902-.3100586,3.1600342-.380127,4.960022-.1499023-9.5200195-3.1899414-16.8099976-3.2900391-17.0300293v-.0100098c1.8601074-3.8699951,3.4901123-7.6699829,4.4801025-11.3799438,0,0,2.0299072,4.0299683,4.7600098,8.3999634Z" fill="#8892a4"/>
      <path d="M153.5853119,272.3739319h-.0099945" fill="#8892a4"/>
      <path d="M81.7452545,283.1739197c-.2999268,1.3300171-1.5100098,3.960022-3.039917,6.9300537-2.9700928,5.7399902-7.1500244,12.75-8.4000244,14.0699463-1.8900146,2-13.2199707,3.7800293-13.2199707-2.1099854,0-3.3399658,2.5799561-10.2199707,4.5-15.539978,1.4699707-4.0400391,2.5500488-7.1799927,1.8299561-7.1300049-1.6700439.1099854-7.5499268,3.2299805-9.7799072,3.6699829-2.2200928.4400024-3.1101074-.8900146-2.7700195-1.8900146.3299561-1,6.8798828-3.6699829,11.2199707-7.2199707,4.3299561-3.5599976,7.7199707-3.3900146,7.7199707-3.3900146,0,0,.6699219,9,12.3300781,5.3300171,0,0,.5,3.3900146-.3901367,7.2799683Z" fill="#8892a4"/>
      <path d="M180.8253326,76.1239166c-.6899414,7.1099854-5.5,8.4800415-5.5,8.4800415,0,0-.6899414,10.3199463-7.3400879,15.5899658l-.789917-8.2999878c-2.3299561-3.3300171-8.4801025-2.8300171-8.4801025-2.8300171h-.4299316s-6.1499023-.5-8.4799805,2.8300171l-.7900391,8.2999878c-6.6499023-5.2700195-7.3399658-15.5899658-7.3399658-15.5899658,0,0-4.8099365-1.3700562-5.5-8.4800415s2.9799805-6.1900024,2.9799805-6.1900024c-1.3800049-26.8200073,19.1300049-25.4500122,19.1300049-25.4500122h.4299316s20.5100098-1.3699951,19.130127,25.4500122c0,0,3.6699219-.9199829,2.9799805,6.1900024Z" fill="#8892a4"/>
      <path d="M146.2452545,166.9039459c-.6699219-.0300293-1.3199463-.0900269-1.9599609-.1700439h-.0200195c-18.5500488-2.25-22.8798828-22.3599854-22.8798828-22.3599854,10.039917-4.6199951,15.3099365-8.5899658,17.0699463-10.9500122,3.3499756,4.7400513,6.4300537,11.9900513,7.1800537,22.9700317,0,0,.2199707,4.75.6098633,10.5100098Z" fill="#8892a4"/>
      <path d="M195.6153717,144.3739166s-4.3300781,20.1099854-22.880127,22.3599854h-.0200195c-.6398926.0800171-1.289917.1400146-1.9599609.1700439.3901367-5.7600098.6101074-10.5100098.6101074-10.5100098.7600098-10.9799805,3.8299561-18.2299805,7.1799316-22.9700317,1.7600098,2.3600464,7.0300293,6.3300171,17.0700684,10.9500122Z" fill="#8892a4"/>
      <path d="M178.5453186,133.4239349c-.0099945-.0099945-.0099945-.0200043-.0200043-.0299988" fill="#8892a4"/>
      <path d="M220.3653717,198.3939362v.0100098c-.0400391.2699585-.6900635,5.1400146-1.380127,8.7099609-.3299561,1.7000122-.6599121,3.1100464-.9399414,3.5900269-.8900146,1.5200195-8.0200195-5.3099976-8.0200195-5.3099976,0,0-1.2399902-8.3800049,1.0500488-23.0900269.2700195-1.7399902.5-3.3899536.7099609-4.9599609,0,0,9.3800049,6.3399658,8.5800781,21.0499878Z" fill="#8892a4"/>
      <path d="M187.4952545,200.0539093c-2.2800293,6.8400269,0,16.6500244,0,16.6500244-2.0998535-2.6500244-3.9299316-4.7399902-5.1999512-4.9899902-2.5300293-.5100098-4.5999756,1.1799927-4.5999756,1.1799927,1.7999268-8.1799927,9.2199707-14.9100342,12.4899902-25.25,0,0-.4100342,5.5599976-2.6900635,12.4099731Z" fill="#8892a4"/>
      <path d="M189.0352936,363.9839172v.0100098c-.0999756.2200317-3.1398926,7.5100098-3.2900391,17.0300293-.0699463-1.7999878-.1999512-3.4700317-.3798828-4.960022-1.6700439-13.5-5.5700684-15.0599976-5.5700684-15.0599976,2.7299805-4.3699951,4.7600098-8.3999634,4.7600098-8.3999634.9899902,3.7099609,2.6199951,7.5099487,4.4799805,11.3799438Z" fill="#8892a4"/>
      <path d="M185.935318,494.0939331c-.0599976.0299988-.1199951.0499878-.1900024.0799866" fill="#8892a4"/>
      <path d="M201.6953278,493.9839172c-1.9000244.25-9.9899902.210022-15.75.1100464h-.0100098c-1.8299561-.0300293-3.4100342-.0700073-4.4899902-.1100464-4.5-.1699829-7.5799561-3.1699829-6.1700439-7.4199829.1000977-.3099976.1999512-.6300049.3000488-.9500122,1.1799316-3.9699707,1.4799805-8.0999756.7900391-10.8800049-.75-3-.3400879-7.6699829.3299561-9.1699829s.6700439-14.5.6700439-23.6699829c0-9.1600342-2.8400879-23.1600342-2.8400879-23.1600342.8701172-.0599976,1.6899414-.3499756,2.4599609-.8399658,5.6401367-3.5700073,8.3300781-17.8099976,8.7700195-30h.0600586s4.3699951,22.3300171,9.8599854,28.5700073c.6099854.6900024,1.2200928,1.1799927,1.8499756,1.4299927-1.8299561,12.3399658-7.4099121,39.0899658-8.3299561,43.1699829s-.75,10.25.4200439,11.75c1.1599121,1.5,2.4099121,3.5,3.25,6.6699829.8299561,3.1600342,5.3299561,8.5800171,7.9099121,9.6600342,2.5900879,1.0899658,3.4200439,4.5.9200439,4.8399658Z" fill="#8892a4"/>
      <path d="M163.9052887,270.7539368s-.2099609.5599976-.4799805,1.6199951c0,0-1.5299072,1.0200195-4.710083,1.0200195h-.1398926c-2.9899902,0-4.7700195-.9000244-4.9799805-1.0100098-.0100098,0-.0100098-.0100098-.0100098-.0100098-.2700195-1.0599976-.4799805-1.6199951-.4799805-1.6199951l-.0100098-.0100098c2.3399658-2.7699585,4.1499023-6.3699951,5.1899414-10.8699951h.4299316c1.0400391,4.5,2.8601074,8.1000366,5.1900635,10.8800049Z" fill="#8892a4"/>
      <path d="M263.3653564,283.0639343c-2.2299805-.4400024-8.1101074-3.5599976-9.7800293-3.6699829-.7199707-.0499878.3599854,3.0899658,1.8299561,7.1300049,1.9200439,5.3099976,4.5,12.2000122,4.5,15.539978,0,5.8900146-11.3299561,4.1099854-13.2199707,2.1099854-1.25-1.3199463-5.4300537-8.3299561-8.4000244-14.0699463-1.5300293-2.9700317-2.7399902-5.6000366-3.0400391-6.9300537-.8898926-3.8899536-.3898926-7.2799683-.3898926-7.2799683,11.6599121,3.6699829,12.3299561-5.3300171,12.3299561-5.3300171,0,0,3.3900146-.1699829,7.7199707,3.3900146,4.3399658,3.5499878,10.8900146,6.2199707,11.2200928,7.2199707.3398438,1-.5500488,2.3300171-2.7700195,1.8900146Z" fill="#8892a4"/>
    </g>
    <path d="M158.2892609,89.0639496s-6.1506195-.5-8.483963,2.8333359l-.7921753,8.3008804c-6.6486206-5.2730484-7.3364105-15.5898819-7.3364105-15.5898819,0,0-4.8145142-1.3755798-5.5023041-8.4827271s2.980423-6.1901016,2.980423-6.1901016c-1.3755798-26.823761,19.1344299-25.448185,19.1344299-25.448185" fill="none" stroke="#3b424c" stroke-miterlimit="10"/>
    <path d="M149.0131378,100.1981583s1.1255035,17.8657913-20.541153,24.8657913c0,0-25.3333359-3.6666641-26.1666641,35.8333282,0,0-7.3333359,9.8333282-5.6666641,37.5,0,0-14.3333359,15.6666718-17.8333359,35s-4.5,27.8333435-9,37.1666565c0,0,.6666641,9,12.3333359,5.3333435,0,0,1.8333359-7.5,5.5-13.6666565,3.6627121-6.1600037,22.1268005-32.7758636,19.3424225-56.7557068-.0058136-.0500641.0023346-.0940094.0309906-.1354675.8234863-1.1911774,14.0866547-20.5169067,16.6702881-33.2735901" fill="none" stroke="#3b424c" stroke-miterlimit="10"/>
    <path d="M102.3053131,160.8972778s5.8333359-10.6666718,17.1666641-15.6666718c11.3333359-5,17.1666641-9.3333282,19.0000076-11.8333282" fill="none" stroke="#3b424c" stroke-miterlimit="10"/>
    <path d="M128.4719849,125.0639496s15.3333282,4.8333282,17.1666718,31.3333282c0,0,.6004944,12.8333282,1.5502472,21.8333282s7.9176636,20.8333282,11.1003723,20.8333282" fill="none" stroke="#3b424c" stroke-miterlimit="10"/>
    <path d="M121.3831253,144.3697205s4.6441269,21.5350647,24.8664932,22.531311" fill="none" stroke="#3b424c" stroke-miterlimit="10"/>
    <path d="M116.6218185,146.6655579s.6391296,24.9043274,27.6613083,20.0680237" fill="none" stroke="#3b424c" stroke-miterlimit="10"/>
    <path d="M105.2184296,177.3419495s-9.3783035,6.3444214-8.5797806,21.0553284c0,0,1.4322662,10.7817078,2.3195038,12.3026886.825737,1.4155579,7.0558548-4.3968201,7.9155655-5.2093811.0655518-.0619507.1053467-.1414795.1167831-.2309418.1459274-1.1415253,1.0510025-9.3393402-1.0611954-22.9512634-2.2814713-14.7027893-2.141037-23.7301025-2.141037-23.7301025" fill="none" stroke="#3b424c" stroke-miterlimit="10"/>
    <path d="M98.9581451,210.6999664s1.1407318,12.9283142-5.069931,26.2368774-9.7285156,32.6648712-9.7285156,32.6648712" fill="none" stroke="#3b424c" stroke-miterlimit="10"/>
    <path d="M98.0157928,207.1133728s-14.3568878,11.6355591-21.9170532,41.4528503" fill="none" stroke="#3b424c" stroke-miterlimit="10"/>
    <path d="M139.3053131,212.8972778s16.0816956,10.6042633,18.983963,31.0107269v15.9702911c-6.1977081,26.870636-40.1921387,21.5472107-44.6283264,1.7744751-4.4361877-19.7727203,4.3094406-31.4335632,9.0023422-36.5034943s9.5029068-12.9283142,12.0378647-13.435318,4.6041718,1.1833191,4.6041718,1.1833191c-1.8333282-8.3333282-9.5-15.1666718-12.6666641-25.8333282-3.1666641-10.6666718-3.9753647-25.5226593-3.9753647-25.5226593" fill="none" stroke="#3b424c" stroke-miterlimit="10"/>
    <path d="M155.2421875,196.9556885s.5109558,14.4501343-8.5378571,22.5606079" fill="none" stroke="#3b424c" stroke-miterlimit="10"/>
    <path d="M126.8184738,187.6394196s.4045258,5.5692902,2.685997,12.4136963c2.2814789,6.8444061,0,16.6509552,0,16.6509552" fill="none" stroke="#3b424c" stroke-miterlimit="10"/>
    <path d="M153.1003571,270.7550659s4.8716278,13.1422119-1.6283722,31.9755554c0,0-.5644073,12.1666565-2.4488678,23s1.2822113,32.1666565-5.5511322,43.6666565c0,0,3,15.5,3.3333282,27.1666565s-4.3333282,22.1666565-4.3333282,22.1666565c0,0-2.8333282,14-2.8333282,23.1666565s0,22.1666565.6666718,23.6666565,1.0833282,6.1666565.3333282,9.1666565-.3333282,7.5833435,1.0833282,11.8333435c1.4166718,4.25-1.6666718,7.25-6.1666718,7.4166565s-17.75.3333435-20.25,0-1.6666641-3.75.9166641-4.8333435,7.0833359-6.5,7.9166641-9.6666565c.8333359-3.1666565,2.0833359-5.1666565,3.25-6.6666565,1.1666718-1.5,1.3333282-7.6666565.4166641-11.75s-6.5-30.8333435-8.3333359-43.1666565c0,0-3.8333359-10-2.6666641-24.8333435,1.1666641-14.8333435,14.1666641-30,16.3333359-43.6666565s2.8333282-71.1153259,2.8333282-71.1153259" fill="none" stroke="#3b424c" stroke-miterlimit="10"/>
    <path d="M132.4442902,352.6010742s5.8610077,11.6295471,11.0276794,16.7962036" fill="none" stroke="#3b424c" stroke-miterlimit="10"/>
    <path d="M137.2012634,360.999176s-3.8959656,1.5647888-5.5626221,15.0647888c-1.6666718,13.5,1.1666718,42,10.8333282,42.6666565" fill="none" stroke="#3b424c" stroke-miterlimit="10"/>
    <path d="M127.9669113,363.9815369s3.1493301,7.3965149,3.2888718,17.0804749" fill="none" stroke="#3b424c" stroke-miterlimit="10"/>
    <path d="M131.1895294,387.8972778s-5.3842163,27.5-11.7175446,30" fill="none" stroke="#3b424c" stroke-miterlimit="10"/>
    <path d="M121.3266678,416.4603577s5.0907135,5.6036072,8.2846756,28.7702637c3.1939697,23.1666565,2.1393738,30.6666565,0,37.1666565-2.1393661,6.5-1.5717621,10.5515747,1.6444397,11.7757874" fill="none" stroke="#3b424c" stroke-miterlimit="10"/>
    <path d="M140.0164642,417.8972778s-6.555603,22.277771-5.6889343,39.944458c.8666687,17.6666565,5.1118622,23.8820801,7.1003876,27.7743835" fill="none" stroke="#3b424c" stroke-miterlimit="10"/>
    <path d="M112.4415054,255.2306061s-5.9695282,11.1666718-4.8028641,41.1666718,10.6666641,49.3333435,13,57.6666565c2.3333359,8.3333435.6880188,23.5621948.6880188,23.5621948" fill="none" stroke="#3b424c" stroke-miterlimit="10"/>
    <path d="M123.5318909,274.7437134s-11.5318604,15.2411499-10.0458832,57.8640137" fill="none" stroke="#3b424c" stroke-miterlimit="10"/>
    <path d="M148.061554,275.1060791s3.5771027,5.9578857,3.4104309,27.6245422" fill="none" stroke="#3b424c" stroke-miterlimit="10"/>
    <path d="M153.5791779,272.3694153s1.8105469,1.0278625,4.9932556,1.0278625" fill="none" stroke="#3b424c" stroke-miterlimit="10"/>
    <path d="M69.8053131,270.5639343s-3.3888855-.1666565-7.7222214,3.3888855-10.8888893,6.222229-11.2222214,7.222229.5555573,2.3333435,2.7777786,1.8888855,8.1111107-3.555542,9.7777786-3.6666565c1.6666718-.1111145-6.3333321,16.777771-6.3333321,22.6666565s11.3333321,4.1111145,13.2222252,2.1111145,10.5555573-17.1111145,11.4444427-21,.3888855-7.277771.3888855-7.277771" fill="none" stroke="#3b424c" stroke-miterlimit="10"/>
    <path d="M61.5831947,286.5285339s5.6319542,9.0553894,17.121479,3.5731812" fill="none" stroke="#3b424c" stroke-miterlimit="10"/>
    <path d="M158.7114868,89.0639496s6.1506195-.5,8.483963,2.8333359l.7921753,8.3008804c6.6486206-5.2730484,7.3364105-15.5898819,7.3364105-15.5898819,0,0,4.8145142-1.3755798,5.5023041-8.4827271.6877899-7.1071548-2.980423-6.1901016-2.980423-6.1901016,1.3755798-26.823761-19.1344299-25.448185-19.1344299-25.448185" fill="none" stroke="#3b424c" stroke-miterlimit="10"/>
    <path d="M167.9876099,100.1981583s-1.1255035,17.8657913,20.5411682,24.8657913c0,0,25.3333282-3.6666641,26.1666718,35.8333282,0,0,7.3333282,9.8333282,5.6666718,37.5,0,0,14.3333282,15.6666718,17.8333282,35s4.5,27.8333435,9,37.1666565c0,0-.6666718,9-12.3333282,5.3333435,0,0-1.8333282-7.5-5.5-13.6666565s-22.1666718-32.8333282-19.3333282-56.8333282c0,0-14.0437012-20.1647491-16.7103729-33.3314209" fill="none" stroke="#3b424c" stroke-miterlimit="10"/>
    <path d="M214.6954346,160.8972778s-5.8333282-10.6666718-17.1666718-15.6666718-17.1666718-9.3333282-19-11.8333282" fill="none" stroke="#3b424c" stroke-miterlimit="10"/>
    <path d="M188.5287628,125.0639496s-15.3333282,4.8333282-17.1666718,31.3333282c0,0-.6004944,12.8333282-1.5502472,21.8333282s-7.9176636,20.8333282-11.1003723,20.8333282" fill="none" stroke="#3b424c" stroke-miterlimit="10"/>
    <path d="M195.6176147,144.3697205s-4.6441345,21.5350647-24.8664856,22.531311" fill="none" stroke="#3b424c" stroke-miterlimit="10"/>
    <path d="M200.3789215,146.6655579s-.6391296,24.9043274-27.6613159,20.0680237" fill="none" stroke="#3b424c" stroke-miterlimit="10"/>
    <path d="M211.7823181,177.3419495s9.3783112,6.3444214,8.5797882,21.0553284c0,0-1.4322662,10.7817078-2.3195038,12.3026886s-8.0138245-5.3026886-8.0138245-5.3026886c0,0-1.2387848-8.3861237,1.0426788-23.088913s2.141037-23.7301025,2.141037-23.7301025" fill="none" stroke="#3b424c" stroke-miterlimit="10"/>
    <path d="M218.0426025,210.6999664s-1.1407318,12.9283142,5.069931,26.2368774,9.7285156,32.6648712,9.7285156,32.6648712" fill="none" stroke="#3b424c" stroke-miterlimit="10"/>
    <path d="M218.9849548,207.1133728s14.3568878,11.6355591,21.9170532,41.4528503" fill="none" stroke="#3b424c" stroke-miterlimit="10"/>
    <path d="M177.6954346,212.8972778s-16.0816956,10.6042633-18.983963,31.0107269v15.9702911c6.1977081,26.870636,40.1921387,21.5472107,44.6283264,1.7744751,4.4361877-19.7727203-4.309433-31.4335632-9.0023346-36.5034943s-9.5028992-12.9283142-12.0378571-13.435318-4.6041718,1.1833191-4.6041718,1.1833191c1.8333282-8.3333282,9.5-15.1666718,12.6666718-25.8333282,3.1666718-10.6666718,3.9753571-25.5226593,3.9753571-25.5226593" fill="none" stroke="#3b424c" stroke-miterlimit="10"/>
    <path d="M161.7585602,196.9556885s-.51297,14.5072021,8.591507,22.6085358" fill="none" stroke="#3b424c" stroke-miterlimit="10"/>
    <path d="M190.1822815,187.6394196s-.4045258,5.5692902-2.6859894,12.4136963,0,16.6509552,0,16.6509552" fill="none" stroke="#3b424c" stroke-miterlimit="10"/>
    <path d="M163.9003906,270.7550659s-4.8716278,13.1422119,1.6283722,31.9755554c0,0,.5644073,12.1666565,2.4488678,23s-1.2822113,32.1666565,5.5511322,43.6666565c0,0-3,15.5-3.3333282,27.1666565s4.3333282,22.1666565,4.3333282,22.1666565c0,0,2.8333282,14,2.8333282,23.1666565s0,22.1666565-.6666718,23.6666565-1.0833282,6.1666565-.3333282,9.1666565.3333282,7.5833435-1.0833282,11.8333435c-1.4166718,4.25,1.6666718,7.25,6.1666718,7.4166565s17.75.3333435,20.25,0,1.6666718-3.75-.9166718-4.8333435c-2.5833282-1.0833435-7.0833282-6.5-7.9166718-9.6666565-.8333282-3.1666565-2.0833282-5.1666565-3.25-6.6666565s-1.3333282-7.6666565-.4166718-11.75,6.5-30.8333435,8.3333282-43.1666565c0,0,3.8333282-10,2.6666718-24.8333435s-14.1666718-30-16.3333282-43.6666565c-2.1666718-13.6666565-2.8333282-71.1153259-2.8333282-71.1153259" fill="none" stroke="#3b424c" stroke-miterlimit="10"/>
    <path d="M184.5564575,352.6010742s-5.8610077,11.6295471-11.0276794,16.7962036" fill="none" stroke="#3b424c" stroke-miterlimit="10"/>
    <path d="M179.7994843,360.999176s3.8959656,1.5647888,5.5626221,15.0647888c1.6666718,13.5-1.1666718,42-10.8333282,42.6666565" fill="none" stroke="#3b424c" stroke-miterlimit="10"/>
    <path d="M189.033844,363.9815369s-3.1493378,7.3965149-3.2888794,17.0804749" fill="none" stroke="#3b424c" stroke-miterlimit="10"/>
    <path d="M185.8112183,387.8972778s5.3842163,27.5,11.7175446,30" fill="none" stroke="#3b424c" stroke-miterlimit="10"/>
    <path d="M195.6740875,416.4603577s-5.0907135,5.6036072-8.2846832,28.7702637-2.1393738,30.6666565,0,37.1666565,1.5717621,10.5515747-1.6444397,11.7757874" fill="none" stroke="#3b424c" stroke-miterlimit="10"/>
    <path d="M176.9842834,417.8972778s6.555603,22.277771,5.6889343,39.944458c-.8666687,17.6666565-5.1118622,23.8820801-7.1003876,27.7743835" fill="none" stroke="#3b424c" stroke-miterlimit="10"/>
    <path d="M204.5592346,255.2306061s5.9695282,11.1666718,4.8028564,41.1666718-10.6666718,49.3333435-13,57.6666565c-2.3333282,8.3333435-.6880188,23.5621948-.6880188,23.5621948" fill="none" stroke="#3b424c" stroke-miterlimit="10"/>
    <path d="M193.4688568,274.7437134s11.5318604,15.2411499,10.0458832,57.8640137" fill="none" stroke="#3b424c" stroke-miterlimit="10"/>
    <path d="M168.9391937,275.1060791s-3.5771027,5.9578857-3.4104309,27.6245422" fill="none" stroke="#3b424c" stroke-miterlimit="10"/>
    <path d="M163.4215698,272.3694153s-1.5273743,1.0278625-4.710083,1.0278625" fill="none" stroke="#3b424c" stroke-miterlimit="10"/>
    <path d="M247.1954346,270.5639343s3.3888855-.1666565,7.722229,3.3888855,10.8888855,6.222229,11.222229,7.222229-.555542,2.3333435-2.777771,1.8888855-8.1111145-3.555542-9.777771-3.6666565,6.3333435,16.777771,6.3333435,22.6666565-11.3333282,4.1111145-13.222229,2.1111145-10.5555573-17.1111145-11.4444427-21-.3888855-7.277771-.3888855-7.277771" fill="none" stroke="#3b424c" stroke-miterlimit="10"/>
    <path d="M255.4175568,286.5285339s-5.631958,9.0553894-17.1214752,3.5731812" fill="none" stroke="#3b424c" stroke-miterlimit="10"/>
  </g>
</svg>