<?xml version="1.0" encoding="UTF-8"?>
<svg xmlns="http://www.w3.org/2000/svg" version="1.1" viewBox="0 0 332.3053117 551.2360665">
  <!-- Generator: Adobe Illustrator 30.0.0, SVG Export Plug-In . SVG Version: 2.1.1 Build 123)  -->
  <g id="traps">
    <path d="M186.6971574,129.6030884c-10.8635254-5.6627197-16.3918457-12.453064-16.3918457-12.453064,0,0-6.4899902,12.2799683-11.6599121,15.9400024-.1201172.0899658-.2401123.1699829-.3601074.25-.1199951-.0800171-.2399902-.1600342-.3599854-.25-5.1700439-3.6600342-11.6500244-15.9400024-11.6500244-15.9400024,0,0-5.5230713,6.7832031-16.385376,12.4442139,18.9356689,7.1741943,37.87146,7.177124,56.807251.0088501Z" fill="#8892a4"/>
  </g>
  <g id="oblique">
    <path d="M151.0252824,178.0599976c-.1799316.0999756-.3699951.2000122-.5500488.3200073-3.3398438,2.1199951-7.039917,7.1199951-6.75,17.2600098,0,0-4.1999512,8.75-.0198975,16.5899658,0,0-.0699463,8.25,2.1400146,11.9400024l-.3701172.2200317c-6.9299316-3.4100342-11.6098633-9.5200195-14.7399902-16.9200439-.0100098-.0099487-.0100098-.0199585-.0100098-.0199585-1.4499512-3.4500122-2.5699463-7.1900024-3.4199219-11.0599976-2.6699219-12.1700439-3.9799805-20.3500366-3.9799805-20.3500366,2.8898926,2.8900146,7.3399658,4.8000488,13.7600098,4.3000488,3.8100586-.3000488,6.8699951-1.2800293,9.2900391-2.7200317l4.6499023.4400024Z" fill="#8892a4"/>
    <path d="M193.2352433,176.0599976c-.0699463.5-1.3798828,8.539978-3.9699707,20.3300171-.8499756,3.8699951-1.9599609,7.6099854-3.4199219,11.0599976,0,0,0,.0100098-.0100098.0299683-3.1300049,7.4000244-7.8100586,13.5-14.7299805,16.9100342h-.5100098c2.3399658-3.5800171,2.2700195-12.1600342,2.2700195-12.1600342,4.1799316-7.8399658-.0200195-16.5899658-.0200195-16.5899658.4199219-14.5800171-7.4100342-18.5200195-10.5800781-18.5800171h-.0999756l4.5499268-2.25c2.7401123,2.960022,6.8500977,5.0599976,12.7800293,5.5300293,6.4001465.5,10.8400879-1.4000244,13.7399902-4.2800293Z" fill="#8892a4"/>
  </g>
  <g id="neck">
    <path d="M170.3053117,117.1500244s-6.4899902,12.2799683-11.6599121,15.9400024c-.1201172.0899658-.2401123.1699829-.3601074.25-.1199951-.0800171-.2399902-.1600342-.3599854-.25-5.1700439-3.6600342-11.6500244-15.9400024-11.6500244-15.9400024l.7099609-14.8299561c1.5600586,2.4399414,3.4899902,4.6599121,5.8601074,6.0499268v.0100098c1.6099854.9400635,3.4199219,1.5100098,5.4399414,1.5100098,2.0300293,0,3.8400879-.5699463,5.4499512-1.5200195,2.3701172-1.3900146,4.3000488-3.6099854,5.8500977-6.0499268l.7199707,14.8299561Z" fill="#8892a4"/>
  </g>
  <g id="chest">
    <path d="M195.0152726,173.9099731c-.5100098.75-1.0899658,1.4700317-1.7700195,2.1300049,0,0,0,.0100098-.0100098.0200195-2.8999023,2.8800049-7.3398438,4.7800293-13.7399902,4.2800293-5.9299316-.4700317-10.039917-2.5700073-12.7800293-5.5300293-4.4499512-4.7999878-5.3099365-11.8699951-4.5599365-17.9199829,1.2301025-9.7800293,10.4500732-16,17.1099854-18.6000366,6.6700439-2.5899658,9.0400391,0,9.0400391,0,.7600098,2.6900024,1.9099121,5.6199951,3.6099854,8.1700439-.3499756,5.0099487,3.7999268,8.9899902,5.4700928,15.539978.8199463,3.2299805.2600098,8.0300293-2.3701172,11.9099731Z" fill="#8892a4"/>
    <path d="M146.3753801,177.6199951c-2.4200439,1.4400024-5.4799805,2.4199829-9.2900391,2.7200317-6.4200439.5-10.8701172-1.4100342-13.7600098-4.3000488-.6700439-.6599731-1.25-1.3699951-1.7600098-2.1199951v-.0100098c-2.6400146-3.8899536-3.1899414-8.6799927-2.3699951-11.9099731,1.6700439-6.5499878,5.8199463-10.5300293,5.4599609-15.539978,1.710083-2.5500488,2.8499756-5.4800415,3.6199951-8.1700439,0,0,2.3601074-2.5899658,9.0300293,0,6.6699219,2.6000366,15.8900146,8.8200073,17.1099854,18.6000366.9200439,7.3800049-.5599365,16.2799683-8.039917,20.7299805Z" fill="#8892a4"/>
  </g>
  <g id="shoulders">
    <path d="M129.8053117,129.6400146s-.1899414,3.9599609-1.5300293,8.6499634c-.7700195,2.6900024-1.9099121,5.6199951-3.6199951,8.1700439-.2698975.4199829-.5599365.8200073-.8699951,1.2099609-2.8999023,3.710022-6.4499512,7.2800293-9.8699951,10.3800049-6.5499268,5.9199829-12.6099854,10.0900269-12.6099854,10.0900269,0,0,.5-19.25,7.75-29.6700439,7.25-10.4099731,20.75-8.8299561,20.75-8.8299561Z" fill="#8892a4"/>
    <path d="M215.2652726,168.1400146s-6.0599365-4.1700439-12.5999756-10.0900269c-3.4200439-3.0899658-6.9799805-6.6699829-9.8800049-10.3800049-.3100586-.3899536-.5999756-.789978-.8699951-1.2099609-1.7000732-2.5500488-2.8499756-5.4800415-3.6099854-8.1700439-1.3499756-4.6900024-1.5400391-8.6499634-1.5400391-8.6499634,0,0,13.5-1.5800171,20.75,8.8299561,7.25,10.4200439,7.75,29.6700439,7.75,29.6700439Z" fill="#8892a4"/>
  </g>
  <g id="biceps">
    <path d="M222.3153215,204.6599731v.0100098c-.6099854,5.9899902-1.4899902,10.2200317-1.4899902,10.2200317,0,0-2.8300781-3.2600098-6.25-8.4299927-3.7800293-5.7200317-8.2600098-13.7700195-10.4200439-22.3500366-4.1099854-16.3299561-1.4899902-26.0599976-1.4899902-26.0599976,6.5400391,5.9199829,12.5999756,10.0900269,12.5999756,10.0900269,0,0,6.2299805,6.6400146,7.3400879,19.75.5,5.8699951.1899414,11.8999634-.2900391,16.7699585Z" fill="#8892a4"/>
    <path d="M112.415297,184.1099854c-2.1600342,8.5800171-6.6400146,16.6300049-10.4200439,22.3500366-3.4199219,5.1699829-6.25,8.4299927-6.25,8.4299927,0,0-.8798828-4.2399902-1.4799805-10.2399902-.4799805-4.8699951-.7900391-10.8900146-.2900391-16.7600098,1.1101074-13.1099854,7.3300781-19.75,7.3300781-19.75,0,0,6.0600586-4.1700439,12.6099854-10.0900269,0,0,2.6099854,9.7300415-1.5,26.0599976Z" fill="#8892a4"/>
  </g>
  <g id="forearms">
    <path d="M101.9952531,237.3400269c-5.3099365,13.8799438-20.0200195,40-20.0200195,40,0,0-2.7799072-2.7800293-4.4499512-3.7800293-.2800293-.1699829-.5999756-.3099976-.9399414-.4199829-1.6500244-.5499878-3.7199707-.4700317-3.7199707-.4700317,8.7700195-8.2199707,7.7700195-37.2199707,10.3299561-49,2.5499268-11.7799683,11.0699463-19.0199585,11.0699463-19.0199585.6000977,6,1.4799805,10.2399902,1.4799805,10.2399902,0,0,2.8300781-3.2600098,6.25-8.4299927,0,0,.9300537,1.8800049,2.2299805,1.539978,0,0,3.0800781,15.4500122-2.2299805,29.3400269Z" fill="#8892a4"/>
    <path d="M243.7152238,272.6699829s-2.0698242-.0799561-3.7299805.4700317c-.3398438.1099854-.6599121.25-.9399414.4199829-1.6599121,1-4.4399414,3.7800293-4.4399414,3.7800293,0,0-14.7099609-26.1200562-20.0300293-40-5.3100586-13.8900146-2.2299805-29.3400269-2.2299805-29.3400269,1.3099365.3400269,2.2299805-1.539978,2.2299805-1.539978,3.4199219,5.1699829,6.25,8.4299927,6.25,8.4299927,0,0,.8800049-4.2300415,1.4899902-10.2200317.25.210022,8.5500488,7.4000244,11.0700684,19,2.5499268,11.7800293,1.5499268,40.7800293,10.329834,49Z" fill="#8892a4"/>
  </g>
  <g id="abs">
    <path d="M158.2852922,179.9500122v8.3800049c0,1.5100098-1.2800293,2.75-2.7900391,2.6099854-.1298828-.0100098-.2600098-.0200195-.3898926-.0200195-.0400391-.0100098-.0900879-.0100098-.1401367-.0100098-.0098877,0-.0198975,0-.0299072-.0099487h-.1800537c-1.5699463-.0599976-3,.1599731-4.2700195.5299683h-.0100098c-.3798828.1099854-.7399902.2299805-1.079834.3699951-.1601562.0599976-.3100586.1300049-.4700928.1900024h-.0100098c-.2999268.1300049-.5799561.2600098-.8499756.4000244-.5600586.2799683-1.0600586.5799561-1.5200195.8699951-.4499512.2999878-.8499756.5899658-1.1999512.8699951-.5200195.4199829-.9300537.7999878-1.1999512,1.0700073-.0500488.0499878-.0900879.0899658-.130127.1300049-.0799561.0799561-.1398926.1399536-.1799316.1900024-.0200195.0199585-.0400391.039978-.0500488.0599976-.0400391.039978-.0600586.0599976-.0600586.0599976-.289917-10.1400146,3.4101562-15.1400146,6.75-17.2600098.1800537-.1199951.3701172-.2200317.5500488-.3200073,1.2600098-.6900024,2.4399414-.9799805,3.2800293-1,3.1699219-.0599976,3.9799805,2.8900146,3.9799805,2.8900146Z" fill="#8892a4"/>
    <path d="M158.2852922,194.5999756v10.75c0,1.4200439-1.1499023,2.5800171-2.5700684,2.6000366-.2099609,0-.4199219.0100098-.619873.0199585h-.2199707c-.1900635.0100098-.380127.0200195-.5600586.0400391-.0500488,0-.1000977,0-.1400146.0100098-.4699707.0299683-.9100342.0799561-1.3399658.1399536-.3200684.0500488-.6201172.1000366-.9200439.1600342h-.0198975c-.1801758.0299683-.3601074.0700073-.5300293.1099854-.0300293,0-.0500488,0-.0800781.0100098-.2900391.0599976-.5700684.1300049-.8399658.2000122-.4100342.1099854-.7900391.2299805-1.1600342.3499756-.1699219.0599976-.3399658.1199951-.5.1799927-.1999512.0700073-.3999023.1500244-.5999756.2300415-.1900635.0799561-.3699951.1599731-.5499268.2399902-1.0800781.4799805-1.9300537,1-2.5600586,1.4500122-.0800781.0599976-.1600342.1099854-.2399902.1699829-.5700684.4199829-.9200439.7600098-1.0600586.8999634l-.0500488.0500488c-.0100098.0099487-.0198975.0199585-.0198975.0199585-4.1800537-7.8399658.0198975-16.5899658.0198975-16.5899658,0,0,.0200195-.0200195.0600586-.0599976.0100098-.0200195.0300293-.0400391.0500488-.0599976.0400391-.0500488.0999756-.1100464.1799316-.1900024.0400391-.0400391.0800781-.0800171.130127-.1300049.2698975-.2700195.6799316-.6500244,1.1999512-1.0700073.3499756-.2800293.75-.5700073,1.1999512-.8699951.4599609-.2900391.9599609-.5900269,1.5200195-.8699951.2700195-.1400146.5500488-.2700195.8499756-.4000244h.0100098c.1600342-.0599976.3099365-.1300049.4700928-.1900024.3498535-.1300049.6999512-.2600098,1.079834-.3699951h.0100098c1.2700195-.3699951,2.7000732-.5899658,4.2700195-.5299683h.1800537c.0100098.0099487.0200195.0099487.0299072.0099487.0500488,0,.1000977,0,.1401367.0100098,1.8099365.2300415,3.1799316,1.8200073,3.1799316,3.6799927Z" fill="#8892a4"/>
    <path d="M158.2852922,211.210022v16.9499512c0,1.1000366-1.0899658,1.8500366-2.1300049,1.4800415-.1600342-.0599976-.3099365-.1099854-.4699707-.1700439-.460083-.1699829-.9200439-.3499756-1.3699951-.539978-1.3500977-.5800171-2.6400146-1.210022-3.7800293-1.8200073-.5200195-.2699585-1-.539978-1.4499512-.7999878-.3701172-.210022-.7099609-.4099731-1.0300293-.5999756-.1799316-.1199951-.3599854-.2200317-.5200195-.3200073-.0100098,0-.0200195-.0100098-.0400391-.0200195-.1599121-.0999756-.3199463-.2000122-.4599609-.289978q-.0100098,0-.0200195-.0100098c-.2099609-.1400146-.3999023-.2600098-.5500488-.3599854-.3198242-.2000122-.4899902-.3200073-.4899902-.3200073-.0499268-.0700073-.0898438-.1400146-.1298828-.2200317-2.2099609-3.6900024-2.1400146-11.9400024-2.1400146-11.9400024,0,0,.0098877-.0100098.0198975-.0199585l.0500488-.0500488c.1400146-.1399536.4899902-.4799805,1.0600586-.8999634.0799561-.0599976.1599121-.1099854.2399902-.1699829.6300049-.4500122,1.4799805-.9700317,2.5600586-1.4500122.1799316-.0800171.3598633-.1600342.5499268-.2399902.2000732-.0800171.4000244-.1600342.5999756-.2300415.1600342-.0599976.3300781-.1199951.5-.1799927.3699951-.1199951.75-.2399902,1.1600342-.3499756.2698975-.0700073.5499268-.1400146.8399658-.2000122.0300293-.0100098.0500488-.0100098.0800781-.0100098.1699219-.039978.3498535-.0800171.5300293-.1099854h.0198975c.2999268-.0599976.5999756-.1099854.9200439-.1600342.4299316-.0599976.8699951-.1099854,1.3399658-.1399536.039917-.0100098.0899658-.0100098.1400146-.0100098.1799316-.0200195.3699951-.0300293.5600586-.0400391h.2199707c1.7600098.0400391,3.1899414,1.460022,3.1899414,3.2400513Z" fill="#8892a4"/>
    <path d="M158.2852922,232.8699951v29.9400024s-1.4799805-.25-2.3999023-1c-.2000732-.1599731-.5600586-.5999756-1.0300293-1.3099976-1.6800537-2.5200195-4.8300781-8.5-7.630127-17.9400024-3.5898438-12.0800171-1.25-18.1699829-1.25-18.1699829,0,0,.170166.1199951.4899902.3200073.1501465.0999756.3400879.2199707.5500488.3599854q.0100098.0100098.0200195.0100098c.1400146.0899658.3000488.1900024.4599609.289978.0200195.0100098.0300293.0200195.0400391.0200195.1600342.1099854.3400879.2099609.5200195.3200073.3200684.1900024.6599121.3899536,1.0300293.5999756.4499512.2600098.9299316.5300293,1.4499512.7999878,1.1400146.6099854,2.4299316,1.2399902,3.7800293,1.8200073.4499512.1900024.9099121.3699951,1.3699951.539978.0999756.0400391.2000732.0800171.3099365.1200562,1.380127.5,2.2900391,1.8199463,2.2900391,3.2799683Z" fill="#8892a4"/>
    <path d="M172.8453508,195.6400146l-.0100098-.0100098c-.0200195-.0200195-.0400391-.0499878-.0800781-.0999756-.0499268-.0500488-.119873-.1200562-.1999512-.2000122-.0500488-.0599976-.1199951-.1300049-.1999512-.2000122-.3200684-.3099976-.7900391-.75-1.4000244-1.210022-.1400146-.0999756-.2900391-.2099609-.4400635-.3200073-.1599121-.1099854-.3199463-.2199707-.4899902-.3399658-.1199951-.0800171-.2399902-.1500244-.3599854-.2200317-.2399902-.1499634-.4899902-.2999878-.75-.4400024-.1800537-.0999756-.3499756-.1900024-.539917-.2799683-.0300293-.0100098-.0600586-.0300293-.0900879-.039978-.1999512-.1000366-.4099121-.1900024-.6300049-.2900391h-.0098877l-.0100098-.0100098c-.3000488-.1199951-.6000977-.2399902-.920166-.3499756-.1599121-.0499878-.329834-.1099854-.4899902-.1600342-.1799316-.0499878-.3498535-.0999756-.5299072-.1499634-.6700439-.1699829-1.3800049-.3099976-2.1300049-.3800049-.5800781-.0499878-1.1799316-.0700073-1.8000488-.039978h-.0899658c-.2000732,0-.3900146.0199585-.5999756.039978-1.5.1400146-2.7900391-1.0999756-2.7900391-2.6099854v-8.3800049s.7900391-2.8900146,3.8800049-2.8900146h.0999756c3.1700439.0599976,11,4,10.5800781,18.5800171Z" fill="#8892a4"/>
    <path d="M172.8653703,212.2299805s-.0100098-.0100098-.0200195-.0199585l-.0500488-.0500488c-.1400146-.1399536-.4899902-.4799805-1.0600586-.8999634-.0699463-.0599976-.1499023-.1099854-.2399902-.1699829-.2099609-.1500244-.4399414-.3000488-.6999512-.460022-.1099854-.0800171-.2299805-.1500244-.3599854-.2299805-.1500244-.0800171-.3199463-.1800537-.4899902-.2700195-.1500244-.0800171-.3099365-.1600342-.4801025-.2399902-.5-.25-1.0599365-.4899902-1.6699219-.7200317-.1699219-.0599976-.3399658-.1199951-.5100098-.1799927-.1699219-.0599976-.3499756-.1099854-.5300293-.1699829-.0300293-.0100098-.0599365-.0200195-.0999756-.0300293-.1700439-.0499878-.3399658-.0999756-.5198975-.1499634-.2900391-.0700073-.5800781-.1400146-.8901367-.210022-.0799561-.0200195-.1699219-.039978-.2600098-.0499878-.0799561-.0200195-.1599121-.039978-.2399902-.0499878-.3199463-.0599976-.6599121-.1100464-1-.1700439-.4299316-.0599976-.869873-.1099854-1.3399658-.1399536-.039917-.0100098-.0899658-.0100098-.1400146-.0100098-.1799316-.0200195-.369873-.0300293-.5599365-.0400391h-.210083c-.2199707-.0099487-.4099121-.0199585-.6398926-.0199585-1.4200439-.0200195-2.5700684-1.1799927-2.5700684-2.6000366v-10.75c0-1.9299927,1.4699707-3.5699463,3.4000244-3.6999512h.0799561c.6201172-.0300293,1.2199707-.0100098,1.8000488.039978.75.0800171,1.4599609.210022,2.1300049.3800049.1800537.0499878.3499756.0999756.5299072.1499634.1601562.0500488.3300781.1100464.4899902.1600342.3200684.1099854.6201172.2299805.920166.3499756l.0100098.0100098h.0098877c.2200928.1000366.4300537.1900024.6300049.2900391.0300293.0099487.0600586.0299683.0900879.039978.1899414.0899658.3598633.1799927.539917.2799683.2600098.1400146.5100098.2900391.75.4400024.1199951.0700073.2399902.1400146.3599854.2200317.1700439.1199951.3300781.2299805.4899902.3399658.1500244.1100464.3000488.2200317.4400635.3200073.6099854.460022,1.0799561.9000244,1.4000244,1.210022.0799561.0700073.1499023.1400146.1999512.2000122.0800781.0799561.1500244.1499634.1999512.2000122.0400391.0499878.0600586.0799561.0800781.0999756l.0100098.0100098s4.1999512,8.75.0200195,16.5899658Z" fill="#8892a4"/>
    <path d="M170.5953508,224.3900146s-.0200195.0100098-.0600586.039978c-.0300293.0200195-.0899658.0599976-.1599121.1099854-.0700684.0500488-.1601562.1000366-.2700195.1700439-.1500244.0999756-.3400879.2199707-.5500488.3599854q-.0100098.0100098-.0200195.0100098c-.1398926.0899658-.3000488.1900024-.4599609.289978-.0200195.0100098-.0300293.0200195-.0400391.0200195-.1599121.0999756-.3399658.2000122-.5200195.3200073-.3199463.1900024-.6599121.3899536-1.0300293.5999756-.4699707.2700195-.9799805.5499878-1.5299072.8400269-1.1099854.5899658-2.3499756,1.1999512-3.6500244,1.75-.0600586.0299683-.1300049.0599976-.1899414.0799561-.5600586.2300415-1.130127.460022-1.7000732.6600342-1.0299072.3699951-2.1300049-.3800049-2.1300049-1.4800415v-16.9499512c0-1.7900391,1.4299316-3.2000122,3.2099609-3.2400513h.210083c.1900635.0100098.3800049.0200195.5599365.0400391.0500488,0,.1000977,0,.1400146.0100098.4700928.0299683.9100342.0799561,1.3399658.1399536.3400879.0599976.6800537.1100464,1,.1700439.0800781.0100098.1600342.0299683.2399902.0499878.0900879.0100098.1800537.0299683.2600098.0499878.3100586.0700073.6000977.1400146.8901367.210022.1799316.0499878.3498535.0999756.5198975.1499634.0400391.0100098.0699463.0200195.0999756.0300293.1800537.0599976.3601074.1099854.5300293.1699829.1700439.0599976.3400879.1199951.5100098.1799927.6099854.2300415,1.1699219.4700317,1.6699219.7200317.170166.0799561.3300781.1599731.4801025.2399902.1700439.0899658.3399658.1900024.4899902.2700195.1300049.0799561.25.1499634.3599854.2299805.2600098.1599731.4899902.3099976.6999512.460022.0900879.0599976.1700439.1099854.2399902.1699829.5700684.4199829.9200439.7600098,1.0600586.8999634l.0500488.0500488c.0100098.0099487.0200195.0199585.0200195.0199585,0,0,.0699463,8.5800171-2.2700195,12.1600342Z" fill="#8892a4"/>
    <path d="M169.3453508,242.5599976c-3.5800781,12.0800171-7.75,18.5-8.6600342,19.25-.9200439.75-2.4000244,1-2.4000244,1v-29.9400024c0-1.460022.9200439-2.7799683,2.3000488-3.2799683.5200195-.1900024,1.0300293-.3900146,1.5300293-.6100464.0599365-.0199585.1298828-.0499878.1899414-.0799561,1.3000488-.5500488,2.5400391-1.1600342,3.6500244-1.75.5499268-.2800293,1.0599365-.5700073,1.5299072-.8400269.3701172-.210022.710083-.4099731,1.0300293-.5999756.1800537-.1100464.3601074-.210022.5200195-.3200073.0100098,0,.0200195-.0100098.0400391-.0200195.1599121-.0999756.3200684-.2000122.4599609-.289978q.0100098,0,.0200195-.0100098c.2099609-.1400146.4000244-.2600098.5500488-.3599854.1098633-.0700073.1999512-.1199951.2700195-.1700439.0699463-.0499878.119873-.0799561.1599121-.1099854.0400391-.0299683.0600586-.039978.0600586-.039978,0,0,2.3399658,6.0899658-1.25,18.1699829Z" fill="#8892a4"/>
  </g>
  <g id="quadriceps">
    <path d="M152.6353898,299.2199707c-.6601562,15.3400269-4.1601562,36.0900269-4.1601562,36.0900269,2.0800781,19.25-2.9199219,26.1599731-2.9199219,26.1599731,0,0-4.5800781,5.6400146-8.0300293,4.0900269-.6099854-.2799683-1.1398926-.6199951-1.5999756-.9899902-2.1300049-1.7200317-2.7299805-4.1199951-2.7299805-4.1199951-.9400635,1.0100098-1.9700928,1.3800049-3.0599365.9400024-.3601074-.1400146-.7200928-.3599854-1.1000977-.6600342,0,0-1.3898926,6.1300049-5.4199219,7.4299927-.8701172.2800293-1.8601074.3400269-2.9799805.0599976,0,0,.3398438-3-.1601562-6.1599731-.5-3.1699829-11.1699219-29.1699829-13-64.5-1.8398438-35.3400269,10.3300781-58.5,10.3300781-58.5,0,0,.2299805-.460022.6500244-1.2299805l.3900146.2299805s.1298828,3.3300171,6.2900391,7.5c1.3898926.9400024,3.369873,2.6400146,5.6699219,4.8300171,4.0800781,3.8599854,9.1799316,9.2199707,13.7299805,14.3699951.3200684.3599854.6300049.7099609.9399414,1.0700073,0,0,0,.0100098.0100098.0199585.2200928.7600098,7.6401367,25.9500122,7.1501465,33.3699951Z" fill="#8892a4"/>
    <path d="M209.1053605,297.5599976c-1.8400879,35.3300171-12.5,61.3300171-13,64.5-.5,3.1599731-.1700439,6.1599731-.1700439,6.1599731-1.1199951.2800293-2.1099854.2200317-2.9799805-.0699463-4.0200195-1.3000488-5.4100342-7.4200439-5.4100342-7.4200439-.3800049.2900391-.75.5100098-1.1099854.6600342-1.0899658.4400024-2.1199951.0700073-3.0599365-.9400024,0,0-.6000977,2.3999634-2.7299805,4.1199951-.460083.3699951-.9901123.710022-1.6000977.9899902-3.4399414,1.5499878-8.0300293-4.0900269-8.0300293-4.0900269,0,0-5-6.9099731-2.9099121-26.1599731,0,0-3.5-20.75-4.1700439-36.0900269-.4899902-7.4199829,6.9400635-32.6099854,7.1600342-33.3699951.0100098-.0099487.0100098-.0199585.0100098-.0199585,4.7800293-5.4700317,10.2999268-11.3099976,14.6599121-15.4400024,2.3000488-2.1900024,4.2800293-3.8900146,5.6700439-4.8300171,6.1700439-4.1699829,6.2999268-7.5,6.2999268-7.5l.3901367-.210022c.4099121.7600098.6398926,1.210022.6398926,1.210022,0,0,12.1700439,23.1599731,10.3400879,58.5Z" fill="#8892a4"/>
  </g>
  <g id="calves">
    <path d="M136.7053361,447.1599731c-.5799561-13.2599487-1-32.0599976-1.2301025-43.2699585-.3398438-16,3.25-22.1700439,6.9101562-27.5800171,0,0,.5898438,7.4099731,3.1699219,15.25,2.5800781,7.8200073-8.0800781,44.210022-8.8499756,55.5999756Z" fill="#8892a4"/>
    <path d="M126.4752336,468.5599976c-3.1699219-40.5-9-43.3400269-9.8598633-59.5-.8500977-16.1699829,5.3598633-27.6699829,5.3598633-27.6699829,2.1601562,7.5,2.8300781,14.8299561,4.6601562,42.6699829,1.8398438,27.8300171-.1601562,44.5-.1601562,44.5Z" fill="#8892a4"/>
    <path d="M181.1053605,403.8900146c-.2399902,11.2099609-.6600342,30.0100098-1.2399902,43.2699585-.7700195-11.3899536-11.4300537-47.7799683-8.8500977-55.5999756,2.5900879-7.8400269,3.1700439-15.25,3.1700439-15.25,3.6700439,5.4099731,7.25,11.5800171,6.9200439,27.5800171Z" fill="#8892a4"/>
    <path d="M199.9553361,409.0599976c-.8499756,16.1599731-6.6900635,19-9.8499756,59.5,0,0-2-16.6699829-.1700439-44.5,1.8299561-27.8400269,2.5-35.1699829,4.6700439-42.6699829,0,0,6.1999512,11.5,5.3499756,27.6699829Z" fill="#8892a4"/>
  </g>
  <g id="Front_base_body">
    <polygon points="154.6587507 187.1111111 161.5830895 187.1111111 160.5275339 235.2777778 157.0830895 234.5555556 154.6587507 187.1111111" fill="#8892a4"/>
    <g id="Layer_1">
      <g>
        <path d="M150.4153117,134.78c-3.78,0-20.61-5.14-20.61-5.14" fill="#8892a4"/>
        <path d="M81.085341,289.6699829c-1.5600586,2.3300171-4.4499512,4.6700439-7.5600586,10.1100464-3.1099854,5.4399414-7,10.3299561-13.1899414,11-6.1899414.6699829-8.1400146-1.6700439-8.1400146-3.2200317,0-1.539978,7.8900146-19.5,8.1300049-20.0599976-1.7399902,1.4099731-3.6300049,2.8300171-4.5800781,2.9500122-1.8798828.2199707-4.4399414-1.7800293-4-2.8900146.4500732-1.1099854,12-10.3400269,14.6700439-12.2199707,2.6700439-1.8900146,6.4500732-2.6700439,6.4500732-2.6700439,0,0,2.0699463-.0799561,3.7199707.4700317.3399658.1099854.6599121.25.9399414.4199829,1.6700439,1,4.4499512,3.7800293,4.4499512,3.7800293,0,0,.6601562,10-.8898926,12.3299561Z" fill="#8892a4"/>
        <path d="M142.3853898,376.3099976c-3.6601562,5.4099731-7.25,11.5800171-6.9101562,27.5800171.2301025,11.2099609.6501465,30.0100098,1.2301025,43.2699585v.0500488c.25,5.6499634.5198975,10.2799683.8199463,12.8999634,1,8.7800293.4499512,16.4500122.4499512,16.4500122-2.6699219-3.1699829-11.4499512-6.6699829-11.4499512-6.6699829l-.0500488-1.3300171s2-16.6699829.1601562-44.5c-1.8300781-27.8400269-2.5-35.1699829-4.6601562-42.6699829-2.1699219-7.5-1.3398438-13.1700439-1.3398438-13.1700439,1.119873.2800293,2.1098633.2200317,2.9799805-.0599976,0,0,.6899414,12.4000244,6.5799561,12.8400269,5.8900146.4500122,5.7999268-13.4199829,5.7299805-16.4299927.460083.3699951.9899902.710022,1.5999756.9899902,3.4499512,1.5499878,8.0300293-4.0900269,8.0300293-4.0900269,1.0800781,4.75.5,9.4200439-3.1699219,14.8400269Z" fill="#8892a4"/>
        <path d="M137.3053117,485.1099854s3.1099854,16.7800293-4.1099854,19.5599976c-7.2200928,2.7800293-18.5599365,3-19.3299561-1.6699829-.7800293-4.6599731,8.7700195-17.1099854,9.3299561-18.5499878.5499268-1.4500122,1-5.4500122,1-5.4500122-1.7800293-6.1099854,2.3299561-9.1099854,2.3299561-9.1099854,0,0,8.7800293,3.5,11.4499512,6.6699829,1.4400635,3.3300171-.6699219,8.5499878-.6699219,8.5499878Z" fill="#8892a4"/>
        <path d="M152.6353898,299.2199707c.4899902-7.4199829-6.9300537-32.6099854-7.1501465-33.3699951,3.8901367,4.4400024,7.2800293,8.6300049,9.1800537,11.4900513,1.0200195,10.9400024-2.0299072,21.8799438-2.0299072,21.8799438Z" fill="#8892a4"/>
        <path d="M198.1253801,237.8499756l-.3901367.210022s-.1298828,3.3300171-6.2999268,7.5c-1.3900146.9400024-3.3699951,2.6400146-5.6700439,4.8300171-4.3599854,4.1300049-9.8798828,9.9699707-14.6599121,15.4400024,0,0,0,.0100098-.0100098.0199585-3.8900146,4.4400024-7.2800293,8.6400146-9.1800537,11.4900513,0,0-2.1099854.8799438-3.6300049.8799438-1.5100098,0-3.6199951-.8799438-3.6199951-.8799438-1.9000244-2.8600464-5.289917-7.0500488-9.1800537-11.4900513-.0100098-.0099487-.0100098-.0199585-.0100098-.0199585-.3099365-.3600464-.619873-.710022-.9399414-1.0700073-4.5500488-5.1500244-9.6499023-10.5100098-13.7299805-14.3699951-2.3000488-2.1900024-4.2800293-3.8900146-5.6699219-4.8300171-6.1601562-4.1699829-6.2900391-7.5-6.2900391-7.5l-.3900146-.2299805c1.4699707-2.7600098,5.2698975-9.5800171,9.1800537-14.2700195,4.8598633-5.8400269,3.1899414-15.5700073,3.0998535-16.0900269,3.130127,7.4000244,7.8100586,13.5100098,14.7399902,16.9200439l.3701172-.2200317c.0400391.0800171.0799561.1500244.1298828.2200317,0,0-2.3398438,6.0899658,1.25,18.1699829,2.8000488,9.4400024,5.9500732,15.4199829,7.630127,17.9400024.4699707.710022.8299561,1.1500244,1.0300293,1.3099976.9199219.75,2.3999023,1,2.3999023,1,0,0,1.4799805-.25,2.4000244-1,.9100342-.75,5.0799561-7.1699829,8.6600342-19.25,3.5899658-12.0800171,1.25-18.1699829,1.25-18.1699829h.5100098c6.9199219-3.4100342,11.5999756-9.5100098,14.7299805-16.9100342-.1000977.5900269-1.75,10.2700195,3.0999756,16.0800171,3.9200439,4.7000122,7.7299805,11.5499878,9.1900635,14.289978Z" fill="#8892a4"/>
        <path d="M130.1953263,381c-5.8900146-.4400024-6.5799561-12.8400269-6.5799561-12.8400269,4.0300293-1.2999878,5.4199219-7.4299927,5.4199219-7.4299927.3800049.3000488.7399902.5200195,1.1000977.6600342,1.0898438.4400024,2.119873.0700073,3.0599365-.9400024,0,0,.5999756,2.3999634,2.7299805,4.1199951.0699463,3.0100098.1600342,16.8800049-5.7299805,16.4299927Z" fill="#8892a4"/>
        <path d="M180.1353898,82.0600586c-.9101562,7.4199219-5.2900391,7.2600098-5.2900391,7.2600098,0,0-1.5200195,7.1398926-5.2600098,13-1.5500488,2.4399414-3.4799805,4.6599121-5.8500977,6.0499268-1.6098633.9500732-3.4199219,1.5200195-5.4499512,1.5200195-2.0200195,0-3.8299561-.5699463-5.4399414-1.5100098v-.0100098c-2.3701172-1.3900146-4.3000488-3.6099854-5.8601074-6.0499268-3.7299805-5.8601074-5.25-13-5.25-13,0,0-4.3898926.1599121-5.2999268-7.2600098-.9000244-7.4100342,3.3299561-8.7700195,3.3299561-8.7700195-2.7199707-24.5,18.5200195-24.5,18.5200195-24.5,0,0,21.2399902,0,18.5200195,24.5,0,0,4.2399902,1.3599854,3.3300781,8.7700195Z" fill="#8892a4"/>
        <path d="M186.7653117,129.64s-16.83,5.14-20.61,5.14" fill="#8892a4"/>
        <path d="M214.5753312,206.460022s-.9200439,1.8800049-2.2299805,1.539978c-1.3000488-.3300171-14.0300293-22.8599854-17.3300781-34.0900269,2.630127-3.8799438,3.1900635-8.6799927,2.3701172-11.9099731-1.670166-6.5499878-5.8200684-10.5300293-5.4700928-15.539978.2700195.4199829.5599365.8200073.8699951,1.2099609,2.9000244,3.710022,6.4599609,7.2900391,9.8800049,10.3800049,0,0-2.6199951,9.7300415,1.4899902,26.0599976,2.1600342,8.5800171,6.6400146,16.6300049,10.4200439,22.3500366Z" fill="#8892a4"/>
        <path d="M222.3153117,204.66l-.01-.01" fill="#8892a4"/>
        <path d="M256.2452531,287.5c.2399902.5599976,8.1401367,18.5200195,8.1401367,20.0599976,0,1.5499878-1.960083,3.8900146-8.1501465,3.2200317-6.1899414-.6700439-10.0799561-5.5600586-13.1899414-11-3.1099854-5.4400024-6-7.7800293-7.5500488-10.1100464-1.5599365-2.3299561-.8898926-12.3299561-.8898926-12.3299561,0,0,2.7800293-2.7800293,4.4399414-3.7800293.2800293-.1699829.6000977-.3099976.9399414-.4199829,1.6601562-.5499878,3.7299805-.4700317,3.7299805-.4700317,0,0,3.7800293.7800293,6.4400635,2.6700439,2.6700439,1.8799438,14.2301025,11.1099854,14.6700439,12.2199707s-2.1101074,3.1099854-4,2.8900146c-.9499512-.1199951-2.8400879-1.5400391-4.5800781-2.9500122Z" fill="#8892a4"/>
        <path d="M163.9353166,299.2199707s-3.039917-10.9399414-2.0200195-21.8799438c1.9000244-2.8500366,5.2900391-7.0500488,9.1800537-11.4900513-.2199707.7600098-7.6500244,25.9500122-7.1600342,33.3699951Z" fill="#8892a4"/>
        <path d="M189.9353166,424.0599976c-1.8299561,27.8300171.1700439,44.5.1700439,44.5l-.0600586,1.3300171s-8.7800293,3.5-11.4399414,6.6699829c0,0-.5600586-7.6699829.4399414-16.4500122.3000488-2.6199951.5700684-7.25.8200684-12.8999634v-.0500488c.5799561-13.2599487,1-32.0599976,1.2399902-43.2699585.3299561-16-3.25-22.1700439-6.9200439-27.5800171-3.6700439-5.4199829-4.25-10.0900269-3.1700439-14.8400269,0,0,4.5900879,5.6400146,8.0300293,4.0900269.6099854-.2799683,1.1400146-.6199951,1.6000977-.9899902-.0600586,3.0100098-.1501465,16.8800049,5.7399902,16.4299927,5.8798828-.4400024,6.5699463-12.8400269,6.5699463-12.8400269v-.0099487c.8699951.289978,1.8599854.3499756,2.9799805.0699463,0,0,.8299561,5.6700439-1.3299561,13.1700439-2.1700439,7.5-2.8400879,14.8299561-4.6700439,42.6699829Z" fill="#8892a4"/>
        <path d="M202.7152238,503c-.7799072,4.6699829-12.1098633,4.4500122-19.329834,1.6699829-7.2301025-2.7799683-4.1201172-19.5599976-4.1201172-19.5599976,0,0-2.1099854-5.2199707-.6599121-8.5499878,2.6599121-3.1699829,11.4399414-6.6699829,11.4399414-6.6699829,0,0,4.1099854,3,2.3400879,9.1099854,0,0,.4399414,4,1,5.4500122.5499268,1.4400024,10.1098633,13.8900146,9.329834,18.5499878Z" fill="#8892a4"/>
        <path d="M192.9553361,368.1500244v.0099487s-.6900635,12.4000244-6.5699463,12.8400269c-5.8901367.4500122-5.8000488-13.4199829-5.7399902-16.4299927,2.1298828-1.7200317,2.7299805-4.1199951,2.7299805-4.1199951.9399414,1.0100098,1.9699707,1.3800049,3.0599365.9400024.3599854-.1500244.7299805-.3699951,1.1099854-.6600342,0,0,1.3900146,6.1199951,5.4100342,7.4200439Z" fill="#8892a4"/>
        <path d="M121.5653215,173.9099731v.0100098c-3.3200684,11.2300415-16.0400391,33.75-17.3400879,34.0800171-1.2999268.3400269-2.2299805-1.539978-2.2299805-1.539978,3.7800293-5.7200317,8.2600098-13.7700195,10.4200439-22.3500366,4.1099854-16.3299561,1.5-26.0599976,1.5-26.0599976,3.4200439-3.0999756,6.9700928-6.6699829,9.8699951-10.3800049.3100586-.3899536.6000977-.789978.8699951-1.2099609.3599854,5.0099487-3.789917,8.9899902-5.4599609,15.539978-.8199463,3.2299805-.2700195,8.0200195,2.3699951,11.9099731Z" fill="#8892a4"/>
        <path d="M186.6971574,129.6030884c-18.935791,7.1682739-37.871582,7.1653442-56.807251-.0088501-.0289307.0151367-.055542.0307007-.0845947.0457764,0,0-.1899414,3.9599609-1.5300293,8.6499634,0,0,2.3601074-2.5899658,9.0300293,0,6.6699219,2.6000366,15.8900146,8.8200073,17.1099854,18.6000366.9200439,7.3800049-.5599365,16.2799683-8.039917,20.7299805l4.6499023.4400024c1.2600098-.6900024,2.4399414-.9799805,3.2800293-1,3.1699219-.0599976,3.9799805,2.8900146,3.9799805,2.8900146,0,0,.7900391-2.8900146,3.8800049-2.8900146l4.5499268-2.25c-4.4499512-4.7999878-5.3099365-11.8699951-4.5599365-17.9199829,1.2301025-9.7800293,10.4500732-16,17.1099854-18.6000366,6.6700439-2.5899658,9.0400391,0,9.0400391,0-1.3499756-4.6900024-1.5400391-8.6499634-1.5400391-8.6499634-.0234375-.012207-.0447998-.0247192-.0681152-.0369263Z" fill="#8892a4"/>
      </g>
    </g>
    <path d="M158.2892682,48.7891271s-21.2447542,0-18.5222675,24.5023803c0,0-4.2349793,1.3612434-3.3274837,8.7724571.9074956,7.4112138,5.2937241,7.2599645,5.2937241,7.2599645,0,0,4.3746946,20.5698995,16.5560271,20.5698995" fill="none" stroke="#3b424c" stroke-linecap="round" stroke-linejoin="round"/>
    <path d="M146.9849586,102.3189505l-.7142397,14.8348427s6.7946827,12.8561872,12.0185493,16.1836709" fill="none" stroke="#3b424c" stroke-linecap="round" stroke-linejoin="round"/>
    <path d="M152.8434304,108.366218s1.1183991,17.1694267,5.0818069,24.7222142" fill="none" stroke="#3b424c" stroke-linecap="round" stroke-linejoin="round"/>
    <path d="M150.4164228,134.7801085c-3.7777778,0-20.6111111-5.1388889-20.6111111-5.1388889,0,0-.5345927,11.004841-6.0172964,18.0277778-8.4312196,10.7997672-22.4827036,20.4722222-22.4827036,20.4722222,0,0,.5-19.25,7.75-29.6666667,7.25-10.4166667,20.75-8.8333333,20.75-8.8333333,10.9166667-5.6666667,16.4654073-12.4874265,16.4654073-12.4874265" fill="none" stroke="#3b424c" stroke-linecap="round" stroke-linejoin="round"/>
    <path d="M128.2705504,138.2938054s2.3680946-2.5974143,9.0347613,0c6.6666667,2.5974143,15.8888889,8.8196365,17.1111111,18.5974143,1.2222222,9.7777778-1.7777778,22.2222222-17.3333333,23.4444444s-19.5555556-11.7777778-17.8888889-18.3333333c1.6666667-6.5555556,5.817716-10.529967,5.4644135-15.5427613" fill="none" stroke="#3b424c" stroke-linecap="round" stroke-linejoin="round"/>
    <path d="M113.9119616,158.047109s2.6155723,9.7329995-1.4955388,26.0663329c-4.1111111,16.3333333-16.6666667,30.7777778-16.6666667,30.7777778,0,0-2.8888889-13.8888889-1.7777778-27,1.1111111-13.1111111,7.3333333-19.75,7.3333333-19.75" fill="none" stroke="#3b424c" stroke-linecap="round" stroke-linejoin="round"/>
    <path d="M101.9945389,206.4638859s.9275834,1.8717782,2.2302892,1.5384449,14.0354066-22.8589926,17.3357229-34.096163" fill="none" stroke="#3b424c" stroke-linecap="round" stroke-linejoin="round"/>
    <path d="M94.2671561,204.6504432s-8.5173999,7.2407765-11.0729555,19.0185543c-2.5555556,11.7777778-1.5555556,40.7777778-10.3333333,49,0,0,3-.1111111,4.6666667.8888889s4.4444444,3.7777778,4.4444444,3.7777778c0,0,14.7117877-26.1111111,20.0225605-40,5.3107728-13.8888889,2.2302892-29.3333333,2.2302892-29.3333333" fill="none" stroke="#3b424c" stroke-linecap="round" stroke-linejoin="round"/>
    <path d="M95.7497561,214.8912197s2.1111111,12.1111111-2.7777778,27.6666667c-4.8888889,15.5555556-15.4444444,31-15.4444444,31" fill="none" stroke="#3b424c" stroke-linecap="round" stroke-linejoin="round"/>
    <path d="M60.3381572,287.4867581s-8.1439566,18.5155727-8.1439566,20.0711282,1.9545799,3.8888889,8.1439566,3.2222222,10.0782656-5.5555556,13.1893767-11,6-7.7777778,7.5555556-10.1111111c1.5555556-2.3333333.8888889-12.3333333.8888889-12.3333333" fill="none" stroke="#3b424c" stroke-linecap="round" stroke-linejoin="round"/>
    <path d="M76.5899492,273.1432197s1.0486959,8.3035555-3.0624153,9.9702222-8.8888889,1.2222222-9.5555556,1.4444444-6.3333333,5.6666667-8.2222222,5.8888889-4.4444444-1.7777778-4-2.8888889,12-10.3333333,14.6666667-12.2222222,6.4444444-2.6666667,6.4444444-2.6666667" fill="none" stroke="#3b424c" stroke-linecap="round" stroke-linejoin="round"/>
    <path d="M123.3252103,176.0386711s1.3134348,8.1858819,3.9801014,20.3525486,8,23,18.1666667,28" fill="none" stroke="#3b424c" stroke-linecap="round" stroke-linejoin="round"/>
    <path d="M130.7291075,207.4474426s1.9095376,10.1104437-3.0904624,16.1104437-9.8333333,15.5-9.8333333,15.5c0,0-12.1666667,23.1666667-10.3333333,58.5,1.8333333,35.3333333,12.5,61.3333333,13,64.5s.1666667,6.1666667.1666667,6.1666667c0,0-.8333333,5.6666667,1.3333333,13.1666667,2.1666667,7.5,2.8333333,14.8333333,4.6666667,42.6666667,1.8333333,27.8333333-.1666667,44.5-.1666667,44.5l.0555556,1.3333333s-4.1111111,3-2.3333333,9.1111111c0,0-.4444444,4-1,5.4444444-.5555556,1.4444444-10.1111111,13.8888889-9.3333333,18.5555556.7777778,4.6666667,12.1111111,4.4444444,19.3333333,1.6666667s4.1111111-19.5555556,4.1111111-19.5555556c0,0,2.1105343-5.2222222.6663783-8.5555556,0,0,.5558439-7.6666667-.4441561-16.4444444s-1.7222222-40.2222222-2.0555556-56.2222222c-.3333333-16,3.25-22.1666667,6.9166667-27.5833333,3.6666667-5.4166667,4.25-10.0833333,3.1666667-14.8333333,0,0,5-6.9166667,2.9166667-26.1666667,0,0,3.5-20.75,4.1666667-36.0833333,0,0,3.0442149-10.9444444,2.0221074-21.8888889,0,0,2.1124723.8888889,3.6285158.8888889" fill="none" stroke="#3b424c" stroke-linecap="round" stroke-linejoin="round"/>
    <path d="M118.8434146,238.0578863s.1285638,3.3333333,6.2952304,7.5c6.1666667,4.1666667,24.0442149,23.5555556,29.5221074,31.7777778" fill="none" stroke="#3b424c" stroke-linecap="round" stroke-linejoin="round"/>
    <path d="M130.8093182,250.3870133s-.0040065,23.1211347,5.1626602,43.7293372c5.1666667,20.6082025,12.5,41.1915358,12.5,41.1915358" fill="none" stroke="#3b424c" stroke-linecap="round" stroke-linejoin="round"/>
    <path d="M145.4719784,265.8289708s7.6666667,25.8626808,7.1666667,33.3955822" fill="none" stroke="#3b424c" stroke-linecap="round" stroke-linejoin="round"/>
    <path d="M125.138645,245.5578863s-9,33.6666667-8.5,64.5,8.1666667,49.1666667,13.5,51.3333333c5.3333333,2.1666667,9.3333333-15.3333333,8.3333333-29.8333333s-5.6680094-40.8331233-5.167338-50.8332283" fill="none" stroke="#3b424c" stroke-linecap="round" stroke-linejoin="round"/>
    <path d="M133.1973804,360.4497951s.8857091,3.5525357,4.3301535,5.1080912c3.4444444,1.5555556,8.0277778-4.0833333,8.0277778-4.0833333" fill="none" stroke="#3b424c" stroke-linecap="round" stroke-linejoin="round"/>
    <path d="M129.0328918,360.7302147s-2.0609134,9.0498939-8.3942468,7.4943383" fill="none" stroke="#3b424c" stroke-linecap="round" stroke-linejoin="round"/>
    <path d="M123.6175854,368.1556936s.6877263,12.4021927,6.5766152,12.8466371,5.7963844-13.4256572,5.7315255-16.4350508" fill="none" stroke="#3b424c" stroke-linecap="round" stroke-linejoin="round"/>
    <path d="M142.388645,376.3078863s.5833333,7.4166667,3.1666667,15.25-8.1075712,44.3125826-8.8454523,55.6562913" fill="none" stroke="#3b424c" stroke-linecap="round" stroke-linejoin="round"/>
    <path d="M121.9719784,381.3912197s-6.206842,11.5-5.353421,27.6666667,6.6867543,19,9.853421,59.5" fill="none" stroke="#3b424c" stroke-linecap="round" stroke-linejoin="round"/>
    <path d="M126.5275339,469.8912197s8.777201,3.5,11.4441561,6.6666667" fill="none" stroke="#3b424c" stroke-linecap="round" stroke-linejoin="round"/>
    <path d="M124.1942006,479.0023308s9.7777778,4.1666667,13.1111111,6.1111111" fill="none" stroke="#3b424c" stroke-linecap="round" stroke-linejoin="round"/>
    <path d="M158.2852922,179.947901v8.3792311c0,1.5132235-1.2813656,2.7519497-2.7883795,2.6150026-7.2425889-.6581567-11.7716791,4.6957688-11.7716791,4.6957688-.4199219-14.5800171,7.4101562-18.5200195,10.5800781-18.5800171s3.9799805,2.8900146,3.9799805,2.8900146Z" fill="none" stroke="#3b424c" stroke-linecap="round" stroke-linejoin="round"/>
    <path d="M158.2852922,194.5994014v10.7539991c0,1.4209528-1.1470353,2.5723372-2.5678475,2.5923223-8.226725.1157169-12.0121085,4.2821464-12.0121085,4.2821464-4.1800537-7.8399658.0198975-16.5899658.0198975-16.5899658,0,0,4.2444996-5.0175053,11.0863173-4.7407933,1.9544212.0790451,3.4737413,1.7462722,3.4737413,3.7022913Z" fill="none" stroke="#3b424c" stroke-linecap="round" stroke-linejoin="round"/>
    <path d="M158.2852926,211.2114029l.0000025,16.9491302c.0000002,1.1007685-1.093042,1.8533821-2.1299755,1.4839768-5.2798317-1.8809284-10.1800861-5.2566065-10.1800861-5.2566065-2.3398438-3.5800171-2.2698975-12.1600342-2.2698975-12.1600342,0,0,3.5252943-3.8801591,11.1654106-4.2555021,1.853699-.0910684,3.4145457,1.3831012,3.4145459,3.2390358Z" fill="none" stroke="#3b424c" stroke-linecap="round" stroke-linejoin="round"/>
    <path d="M158.2852922,232.8742181v29.9336682s-1.4799805-.25-2.3999023-1c-.9101562-.75-5.0800781-7.1699829-8.6601562-19.25-3.5898438-12.0800171-1.25-18.1699829-1.25-18.1699829,0,0,4.8004251,3.3069079,10.0180391,5.1983885,1.3803914.5004172,2.2920195,1.8196286,2.2920195,3.2879262Z" fill="none" stroke="#3b424c" stroke-linecap="round" stroke-linejoin="round"/>
    <path d="M158.2852922,48.7891271s21.2447542,0,18.5222675,24.5023803c0,0,4.2349793,1.3612434,3.3274837,8.7724571-.9074956,7.4112138-5.2937241,7.2599645-5.2937241,7.2599645,0,0-4.3746946,20.5698995-16.5560271,20.5698995" fill="none" stroke="#3b424c" stroke-linecap="round" stroke-linejoin="round"/>
    <path d="M169.5896018,102.3189505l.7142397,14.8348427s-6.7946827,12.8561872-12.0185493,16.1836709" fill="none" stroke="#3b424c" stroke-linecap="round" stroke-linejoin="round"/>
    <path d="M163.73113,108.366218s-1.1183991,17.1694267-5.0818069,24.7222142" fill="none" stroke="#3b424c" stroke-linecap="round" stroke-linejoin="round"/>
    <path d="M166.1581376,134.7801085c3.7777778,0,20.6111111-5.1388889,20.6111111-5.1388889,0,0,.5345927,11.004841,6.0172964,18.0277778,8.4312196,10.7997672,22.4827036,20.4722222,22.4827036,20.4722222,0,0-.5-19.25-7.75-29.6666667-7.25-10.4166667-20.75-8.8333333-20.75-8.8333333-10.9166667-5.6666667-16.4654073-12.4874265-16.4654073-12.4874265" fill="none" stroke="#3b424c" stroke-linecap="round" stroke-linejoin="round"/>
    <path d="M188.30401,138.2938054s-2.3680946-2.5974143-9.0347613,0-15.8888889,8.8196365-17.1111111,18.5974142c-1.2222222,9.7777778,1.7777778,22.2222222,17.3333333,23.4444444,15.5555556,1.2222222,19.5555556-11.7777778,17.8888889-18.3333333-1.6666667-6.5555556-5.817716-10.529967-5.4644135-15.5427613" fill="none" stroke="#3b424c" stroke-linecap="round" stroke-linejoin="round"/>
    <path d="M202.6625987,158.047109s-2.6155723,9.7329995,1.4955388,26.0663329,16.6666667,30.7777778,16.6666667,30.7777778c0,0,2.8888889-13.8888889,1.7777778-27-1.1111111-13.1111111-7.3333333-19.75-7.3333333-19.75" fill="none" stroke="#3b424c" stroke-linecap="round" stroke-linejoin="round"/>
    <path d="M214.5800215,206.4638859s-.9275834,1.8717782-2.2302892,1.5384449-14.0354066-22.8589926-17.3357229-34.096163" fill="none" stroke="#3b424c" stroke-linecap="round" stroke-linejoin="round"/>
    <path d="M222.3074043,204.6504432s8.5173999,7.2407765,11.0729555,19.0185543c2.5555556,11.7777778,1.5555556,40.7777778,10.3333333,49,0,0-3-.1111111-4.6666667.8888889s-4.4444444,3.7777778-4.4444444,3.7777778c0,0-14.7117877-26.1111111-20.0225605-40s-2.2302892-29.3333333-2.2302892-29.3333333" fill="none" stroke="#3b424c" stroke-linecap="round" stroke-linejoin="round"/>
    <path d="M220.8248043,214.8912197s-2.1111111,12.1111111,2.7777778,27.6666667,15.4444444,31,15.4444444,31" fill="none" stroke="#3b424c" stroke-linecap="round" stroke-linejoin="round"/>
    <path d="M256.2364032,287.4867581s8.1439566,18.5155727,8.1439566,20.0711282c0,1.5555556-1.9545799,3.8888889-8.1439566,3.2222222s-10.0782656-5.5555556-13.1893767-11-6-7.7777778-7.5555556-10.1111111-.8888889-12.3333333-.8888889-12.3333333" fill="none" stroke="#3b424c" stroke-linecap="round" stroke-linejoin="round"/>
    <path d="M239.9846112,273.1432197s-1.0486959,8.3035555,3.0624153,9.9702222c4.1111111,1.6666667,8.8888889,1.2222222,9.5555556,1.4444444s6.3333333,5.6666667,8.2222222,5.8888889,4.4444444-1.7777778,4-2.8888889c-.4444444-1.1111111-12-10.3333333-14.6666667-12.2222222s-6.4444444-2.6666667-6.4444444-2.6666667" fill="none" stroke="#3b424c" stroke-linecap="round" stroke-linejoin="round"/>
    <path d="M193.2493501,176.0386711s-1.3134348,8.1858819-3.9801014,20.3525486c-2.6666667,12.1666667-8,23-18.1666667,28" fill="none" stroke="#3b424c" stroke-linecap="round" stroke-linejoin="round"/>
    <path d="M185.8454529,207.4474426s-1.9095376,10.1104437,3.0904624,16.1104437,9.8333333,15.5,9.8333333,15.5c0,0,12.1666667,23.1666667,10.3333333,58.5s-12.5,61.3333333-13,64.5-.1666667,6.1666667-.1666667,6.1666667c0,0,.8333333,5.6666667-1.3333333,13.1666667-2.1666667,7.5-2.8333333,14.8333333-4.6666667,42.6666667-1.8333333,27.8333333.1666667,44.5.1666667,44.5l-.0555556,1.3333333s4.1111111,3,2.3333333,9.1111111c0,0,.4444444,4,1,5.4444444s10.1111111,13.8888889,9.3333333,18.5555556-12.1111111,4.4444444-19.3333333,1.6666667-4.1111111-19.5555556-4.1111111-19.5555556c0,0-2.1105343-5.2222222-.6663783-8.5555556,0,0-.5558439-7.6666667.4441561-16.4444444,1-8.7777778,1.7222222-40.2222222,2.0555556-56.2222222s-3.25-22.1666667-6.9166667-27.5833333-4.25-10.0833333-3.1666667-14.8333333c0,0-5-6.9166667-2.9166667-26.1666667,0,0-3.5-20.75-4.1666667-36.0833333,0,0-3.0442149-10.9444444-2.0221074-21.8888889,0,0-2.1124723.8888889-3.6285158.8888889" fill="none" stroke="#3b424c" stroke-linecap="round" stroke-linejoin="round"/>
    <path d="M197.7311458,238.0578863s-.1285638,3.3333333-6.2952304,7.5c-6.1666667,4.1666667-24.0442149,23.5555556-29.5221074,31.7777778" fill="none" stroke="#3b424c" stroke-linecap="round" stroke-linejoin="round"/>
    <path d="M185.7652422,250.3870133s.0040065,23.1211347-5.1626602,43.7293372-12.5,41.1915358-12.5,41.1915358" fill="none" stroke="#3b424c" stroke-linecap="round" stroke-linejoin="round"/>
    <path d="M171.102582,265.8289708s-7.6666667,25.8626808-7.1666667,33.3955822" fill="none" stroke="#3b424c" stroke-linecap="round" stroke-linejoin="round"/>
    <path d="M191.4359154,245.5578863s9,33.6666667,8.5,64.5c-.5,30.8333333-8.1666667,49.1666667-13.5,51.3333333s-9.3333333-15.3333333-8.3333333-29.8333333c1-14.5,5.6680094-40.8331233,5.167338-50.8332283" fill="none" stroke="#3b424c" stroke-linecap="round" stroke-linejoin="round"/>
    <path d="M183.37718,360.4497951s-.8857091,3.5525357-4.3301535,5.1080912c-3.4444444,1.5555556-8.0277778-4.0833333-8.0277778-4.0833333" fill="none" stroke="#3b424c" stroke-linecap="round" stroke-linejoin="round"/>
    <path d="M187.5416686,360.7302147s2.0609134,9.0498939,8.3942468,7.4943383" fill="none" stroke="#3b424c" stroke-linecap="round" stroke-linejoin="round"/>
    <path d="M192.956975,368.1556936s-.6877263,12.4021927-6.5766152,12.8466371-5.7963844-13.4256572-5.7315255-16.4350508" fill="none" stroke="#3b424c" stroke-linecap="round" stroke-linejoin="round"/>
    <path d="M174.1859154,376.3078863s-.5833333,7.4166667-3.1666667,15.25c-2.5833333,7.8333333,8.1075712,44.3125826,8.8454523,55.6562913" fill="none" stroke="#3b424c" stroke-linecap="round" stroke-linejoin="round"/>
    <path d="M194.602582,381.3912197s6.206842,11.5,5.353421,27.6666667c-.853421,16.1666667-6.6867543,19-9.853421,59.5" fill="none" stroke="#3b424c" stroke-linecap="round" stroke-linejoin="round"/>
    <path d="M190.0470265,469.8912197s-8.777201,3.5-11.4441561,6.6666667" fill="none" stroke="#3b424c" stroke-linecap="round" stroke-linejoin="round"/>
    <path d="M192.3803598,479.0023308s-9.7777778,4.1666667-13.1111111,6.1111111" fill="none" stroke="#3b424c" stroke-linecap="round" stroke-linejoin="round"/>
    <path d="M158.2892682,179.947901v8.3792311c0,1.5132235,1.2813656,2.7519497,2.7883795,2.6150026,7.2425889-.6581567,11.7716791,4.6957688,11.7716791,4.6957688.4199219-14.5800171-7.4101562-18.5200195-10.5800781-18.5800171s-3.9799805,2.8900146-3.9799805,2.8900146Z" fill="none" stroke="#3b424c" stroke-linecap="round" stroke-linejoin="round"/>
    <path d="M158.2892682,194.5994014v10.7539991c0,1.4209528,1.1470353,2.5723372,2.5678475,2.5923223,8.226725.1157169,12.0121085,4.2821464,12.0121085,4.2821464,4.1800537-7.8399658-.0198975-16.5899658-.0198975-16.5899658,0,0-4.2444996-5.0175053-11.0863173-4.7407933-1.9544212.0790451-3.4737413,1.7462722-3.4737413,3.7022913Z" fill="none" stroke="#3b424c" stroke-linecap="round" stroke-linejoin="round"/>
    <path d="M158.2892678,211.2114029l-.0000025,16.9491302c-.0000002,1.1007685,1.093042,1.8533821,2.1299755,1.4839768,5.2798317-1.8809284,10.1800861-5.2566065,10.1800861-5.2566065,2.3398438-3.5800171,2.2698975-12.1600342,2.2698975-12.1600342,0,0-3.5252943-3.8801591-11.1654106-4.2555021-1.853699-.0910684-3.4145457,1.3831012-3.4145459,3.2390358Z" fill="none" stroke="#3b424c" stroke-linecap="round" stroke-linejoin="round"/>
    <path d="M158.2892682,232.8742181v29.9336682s1.4799805-.25,2.3999023-1c.9101563-.75,5.0800781-7.1699829,8.6601563-19.25,3.5898438-12.0800171,1.25-18.1699829,1.25-18.1699829,0,0-4.8004251,3.3069079-10.0180391,5.1983885-1.3803914.5004172-2.2920195,1.8196286-2.2920195,3.2879262Z" fill="none" stroke="#3b424c" stroke-linecap="round" stroke-linejoin="round"/>
  </g>
</svg>