<?xml version="1.0" encoding="UTF-8"?>
<svg id="Layer_1" xmlns="http://www.w3.org/2000/svg" version="1.1" viewBox="0 0 290 440">
  <!-- Generator: Adobe Illustrator 30.0.0, SVG Export Plug-In . SVG Version: 2.1.1 Build 123)  -->
  <g id="forearms">
    <path d="M85.5610657,195.4276428c-7,6.3300171-10.7800293,15.2200317-10.7800293,15.2200317l-4.6199951-2.1900024-6.5999756-3.1400146s1.4199829-4.4000244,2.9899902-9.7700195c.2999878-1.0100098.5999756-2.0599976.9000244-3.1199951,1.8899536-6.6699829,5.2199707-22,8.1099854-27.6699829,4.5700073-1.6900024,9.8200073-5.3099976,12.0700073-6.9400024.7099609-.5100098,1.1199951-.8300171,1.1199951-.8300171h.2099609c-.039978,5.2600098-.1799927,10-.1799927,10,0,0,7.2900391-4.7799683,9.8599854-8.1399536.7400513,9.8599854-6.0799561,30.25-13.0799561,36.5799561Z" fill="#8892a4"/>
    <path d="M222.7910461,205.3176575l-6.5999756,3.1400146-4.6199951,2.1900024s-3.7800293-8.8900146-10.7800293-15.2200317c-7-6.3299561-13.8200073-26.7199707-13.0800171-36.5799561,2.5700073,3.3599854,9.8600464,8.1399536,9.8600464,8.1399536,0,0-.1400146-4.7399902-.1900024-10h.2199707s.4100342.3200073,1.1199951.8300171c2.25,1.6300049,7.5,5.25,12.0700073,6.9400024,2.8900146,5.6699829,6.2200317,21,8.1099854,27.6699829.3000488,1.0599976.6100464,2.1099854.9000244,3.1199951,1.5700073,5.3699951,2.9899902,9.7700195,2.9899902,9.7700195Z" fill="#8892a4"/>
  </g>
  <g id="lower_back">
    <path d="M161.1210632,185.9376526c-5.6799927,4.5599976-11.4400024,8.9799805-12.7200317,10.6600342-2.4599609,3.2399902-2.9400024,10.2299805-5.2199707,10.2299805-2.2900391,0-2.7700195-6.9899902-5.2299805-10.2299805-1.2800293-1.6800537-7.0400391-6.1000366-12.7200317-10.6600342.2399902-.4400024.4700317-.9000244.6900024-1.3699951,5.0499878-10.7399902,12.4699707-20.3499756,12.4699707-20.3499756,2.1200562,3.4199829,3.9900513,5.9899902,4.7900391,5.9899902.789978,0,2.6599731-2.5700073,4.7799683-5.9899902,0,0,7.4200439,9.6099854,12.4700317,20.3499756.2199707.4699707.4500122.9299927.6900024,1.3699951Z" fill="#8892a4"/>
  </g>
  <g id="hamstrings">
    <path d="M183.6010437,277.5976868v.0299683c-1.0100098,7.8900146-2.1199951,14.25-2.5999756,16.960022,0,0,0,.0100098-.0100098.0199585-.210022.3600464-3.6000366,6.3500366-3.4799805,11.9299927-.9100342-1.7599487-1.8300171-3.7099609-2.7700195-5.9699707-1.7600098-4.2199707-3.6199951-9.4899902-5.7700195-16.4799805-.2199707-.7300415-.4400024-1.5100098-.6499634-2.3400269-.1100464.2399902-1.9700317,4.2200317-2.8400269,10.4899902-.2999878,2.1300049-.6400146,5.1000366-1.0499878,8.2600098-.1699829,1.3200073-.3500366,2.6799927-.5499878,4.0300293,0,0-4.4700317-3.4800415-6.6100464-12.3800049-.25-9.6799927-4.3499756-18.4100342-4.3499756-18.4100342,0,0-5.039978-8.9299927-5.6900024-14.6300049-.6500244-5.6900024-2.3300171-25.5199585-2.3300171-25.5199585,0,0-.7299805-1.9100342-1.7199707-1.5300293-.5499878-.2099609-1.0100098.2700195-1.3200073.7399902-.2600098.3900146-.4099731.7900391-.4099731.7900391,0,0-1.6800537,19.8299561-2.3300171,25.5199585-.6500244,5.7000122-5.6900024,14.6300049-5.6900024,14.6300049,0,0-4.1000366,8.7300415-4.3500366,18.4100342-2.1399536,8.8999634-6.6099854,12.3800049-6.6099854,12.3800049-.2000122-1.3400269-.3800049-2.6600342-.539978-3.9700317-.0100098-.0100098-.0100098-.0299683-.0100098-.039978v-.0100098c-.4099731-3.1699829-.75-6.1400146-1.0499878-8.2700195-.1099854-.7799683-.2300415-1.5299683-.3699951-2.2399902-.0700073-.3900146-.1500244-.7600098-.2300415-1.1300049-.0599976-.2699585-.1199951-.539978-.1799927-.7999878-.0499878-.2199707-.0999756-.4299927-.1499634-.6400146-.0100098-.039978-.0200195-.0700073-.0300293-.1099854-.039978-.1599731-.0800171-.3200073-.1199951-.4699707-.1199951-.460022-.25-.8900146-.3699951-1.3000488-.1599731-.5299683-.3099976-1.0199585-.460022-1.4499512-.0199585-.0600586-.039978-.1200562-.0700073-.1800537-.0299683-.0999756-.0699463-.1999512-.0999756-.289978-.0299683-.0999756-.0599976-.1900024-.0999756-.2700195-.0300293-.0899658-.0599976-.1799927-.1000366-.2599487-.0499878-.1600342-.1099854-.3100586-.1699829-.4400024-.0200195-.0700073-.0499878-.1300049-.0700073-.1900024-.0299683-.0599976-.0499878-.1100464-.0700073-.1700439-.0100098-.0100098-.0100098-.0199585-.0100098-.0199585-.039978-.1000366-.0799561-.1799927-.1099854-.25-.0299683-.0700073-.0599976-.1300049-.0800171-.1799927-.0199585-.0500488-.0299683-.0700073-.039978-.0900269l-.0100098-.0100098c-.2099609.8300171-.4299927,1.6099854-.6499634,2.3400269-2.1500244,6.9899902-4.0100098,12.2600098-5.7700195,16.4799805v.0499878h-.0100098c-.2299805.5599976-.4699707,1.1000366-.7000122,1.6300049-.1799927.4100342-.3599854.8099976-.539978,1.2000122-.4000244.8499756-.789978,1.6599731-1.1799927,2.4299927-.0599976.1199951-.1199951.2399902-.1799927.3499756-.0499878.1000366-.1100464.210022-.1600342.3099976.1300049-5.7599487-3.4799805-11.9499512-3.4799805-11.9499512h-.0100098c-.4799805-2.710022-1.5899658-9.0800171-2.5999756-16.960022v-.0599976c-1.7000122-13.2700195-3.1000366-30.8200073-.7700195-42.6099854,1.7999878-9.1000366,3.8200073-16.8599854,5.5300293-22.710022,5.6599731-1.8200073,11.289978,8.4299927,7.9299927,13.6199951-3.3699951,5.1799927-2.0700073,10.5900269-2.0700073,10.5900269,2.6900024-.5700073,5.3800049-.4200439,9.1900024-.2300415.9500122.0400391,1.9699707.0900269,3.0799561.1300049.6600342.0200195,1.3600464.0400391,2.0900269.0599976.9000244.0300293,1.8499756.0400391,2.8699951.0400391.2700195,0,.539978-.0100098.789978-.0300293.2200317-.0100098.4300537-.0299683.6300049-.0599976.0200195,0,.0500488,0,.0700073-.0100098.0900269-.0099487.1799927-.0199585.2600098-.039978.1600342-.0200195.3099976-.039978.4500122-.0700073.039978-.0100098.0800171-.0200195.1099854-.0299683.1900024-.0400391.3599854-.0800171.5300293-.1300049.0599976-.0200195.1199951-.0300293.1699829-.0500488.1599731-.0499878.3200073-.0999756.4699707-.1599731.1400146-.0499878.2800293-.1099854.4200439-.1699829.1300049-.0499878.2600098-.1099854.3800049-.1799927.1399536-.0599976.2599487-.1300049.3800049-.2000122.0099487-.0100098.0199585-.0100098.0299683-.0100098.1300049-.0700073.2600098-.1500244.3699951-.2199707.0200195-.0200195.0300293-.0200195.0400391-.0400391.1399536-.0800171.2699585-.1699829.3999634-.2700195.1000366-.0699463.1900024-.1299438.2700195-.2099609.1199951-.0800171.2299805-.1699829.3300171-.2700195.1599731-.1400146.3199463-.289978.4699707-.4400024.4500122-.4500122.8400269-.9199829,1.2000122-1.3999634.3200073-.4200439.6099854-.8500366.8800049-1.2600098.1799927-.2600098.3499756-.5200195.5100098-.7700195.3699951-.5499878.7199707-1.0700073,1.0899658-1.5.0300293-.0299683.0499878-.0499878.0800171-.0800171.0899658-.0999756.1799927-.1999512.2700195-.289978.0799561-.0800171.1599731-.1500244.2399902-.210022.0499878-.0499878.0999756-.0899658.1499634-.1300049.0900269-.0699463.1799927-.1299438.2800293-.1900024.0899658-.0599976.1900024-.1199951.2999878-.1599731.0999756-.0499878.210022-.0900269.3200073-.1199951.210022-.0700073.4400024-.0999756.6900024-.0999756,3.9199829,0,3.8800049,8.7999878,12.5700073,8.7999878,1.0100098,0,1.9599609-.0100098,2.8499756-.0400391h.0200195c1.9500122-.039978,3.6499634-.1199951,5.1699829-.1900024,3.8099976-.1900024,6.5-.3399658,9.1900024.2300415,0,0,1.2999878-5.4100342-2.0700073-10.5900269-3.3599854-5.1900024,2.2700195-15.4400024,7.9299927-13.6199951,1.710022,5.8500366,3.7300415,13.6099854,5.5300293,22.710022,2.3300171,11.7999878.9299927,29.3699951-.7700195,42.6400146Z" fill="#8892a4"/>
  </g>
  <g id="glutes">
    <path d="M178.8410339,212.2476501c-5.6599731-1.8200073-11.289978,8.4299927-7.9299927,13.6199951,3.3699951,5.1799927,2.0700073,10.5900269,2.0700073,10.5900269-2.6900024-.5700073-5.3800049-.4200439-9.1900024-.2300415-1.5200195.0700073-3.2199707.1500244-5.1699829.1900024h-.0200195c-.8900146.0300293-1.8399658.0400391-2.8499756.0400391-8.6900024,0-8.6500244-8.7999878-12.5700073-8.7999878-.25,0-.4799805.0299683-.6900024.0999756-.1099854.0299683-.2200317.0700073-.3200073.1199951-.1099854.039978-.210022.0999756-.2999878.1599731-.1000366.0600586-.1900024.1200562-.2800293.1900024-.0499878.0400391-.0999756.0800171-.1499634.1300049-.0800171.0599976-.1600342.1300049-.2399902.210022-.0900269.0900269-.1800537.1900024-.2700195.289978-.0300293.0300293-.0499878.0500488-.0800171.0800171-.3699951.4299927-.7199707.9500122-1.0899658,1.5-.1600342.25-.3300171.5100098-.5100098.7700195-.1400146.2099609-.2800293.4099731-.4200439.6300049-.1499634.2099609-.2999878.4199829-.4599609.6300049-.3599854.4799805-.75.9499512-1.2000122,1.3999634-.1500244.1500244-.3099976.2999878-.4699707.4400024-.1000366.1000366-.210022.1900024-.3300171.2700195-.0800171.0800171-.1699829.1400146-.2700195.2099609-.1300049.1000366-.2600098.1900024-.3999634.2700195-.0100098.0200195-.0200195.0200195-.0400391.0400391-.1099854.0699463-.2399902.1499634-.3699951.2199707-.0100098,0-.0200195,0-.0299683.0100098-.1200562.0700073-.2400513.1400146-.3800049.2000122-.1199951.0700073-.25.1300049-.3800049.1799927-.1400146.0599976-.2800293.1199951-.4200439.1699829-.1499634.0599976-.3099976.1099854-.4699707.1599731-.0499878.0200195-.1099854.0300293-.1699829.0500488-.1700439.0499878-.3400269.0899658-.5300293.1300049-.0299683.0099487-.0700073.0199585-.1099854.0299683-.1400146.0300293-.289978.0499878-.4500122.0700073-.0800171.0200195-.1699829.0300293-.2600098.039978-.0199585.0100098-.0499878.0100098-.0700073.0100098-.1999512.0300293-.4099731.0499878-.6300049.0599976-.25.0200195-.5199585.0300293-.789978.0300293-1.0200195,0-1.9699707-.0100098-2.8699951-.0400391-.7299805-.0199585-1.4299927-.039978-2.0900269-.0599976-1.1099854-.039978-2.1299438-.0899658-3.0799561-.1300049-3.8099976-.1900024-6.5-.3399658-9.1900024.2300415,0,0-1.2999878-5.4100342,2.0700073-10.5900269,3.3599854-5.1900024-2.2700195-15.4400024-7.9299927-13.6199951,2.2199707-7.6099854,3.9099731-12.0200195,3.9099731-12.0200195,0,0,8.6400146-4.5,13.8099976-14.289978,5.6799927,4.5599976,11.4400024,8.9799805,12.7200317,10.6600342,2.4599609,3.2399902,2.9399414,10.2299805,5.2299805,10.2299805,2.2799683,0,2.7600098-6.9899902,5.2199707-10.2299805,1.2800293-1.6800537,7.0400391-6.1000366,12.7200317-10.6600342,5.1699829,9.789978,13.8099976,14.289978,13.8099976,14.289978,0,0,1.6900024,4.4100342,3.9099731,12.0200195Z" fill="#8892a4"/>
  </g>
  <g id="calves">
    <path d="M125.6610413,341.5476379c-1.9400024,6.3400269-5.3099976,18.1199951-5.3099976,18.1199951,0,0-1.9400024,1.6800537-4.2199707.3900146-2.2300415-1.2700195-2.1300049-9.25-2.1199951-9.5999756-.0700073.289978-.1500244.5499878-.2300415.789978-2.0999756,6.3500366-5.4599609,7.6400146-7.3999634,7.25-1.8800049-.3800049-6-6.2399902-6.8099976-13.0499878-.0300293-.2200317-.0500488-.4400024-.0700073-.6600342-.1300049-1.3399658-.25-2.6799927-.3699951-4.0199585-.6199951-6.960022-.4800415-12.7800293.0499878-17.5599976,0-.0100098.0100098-.0200195.0100098-.0300293.9699707-2.9400024,3.8299561-7.0199585,7.3200073-12.5599976.789978-1.2600098,1.5599976-2.5999756,2.3299561-4.0800171.0499878-.0999756.1100464-.2099609.1600342-.3099976.0599976-.1099854.1199951-.2299805.1799927-.3499756.3900146-.7700195.7799683-1.5800171,1.1799927-2.4299927.1799927-.3900146.3599854-.789978.539978-1.2000122.2300415-.5299683.4700317-1.0700073.7000122-1.6300049h.0100098s3.8300171,2.4899902,4.3400269,10.710022c.3699951-3.9400024,4.8299561-9.9500122,5.3799438-10.6900024l.6000366-.0800171c.1599731,1.3099976.3399658,2.6300049.539978,3.9700317.7700195,5.2099609,1.75,10.2299805,3.0599976,12.2999878,0,0,2.0700073,18.3800049.1300049,24.7199707Z" fill="#8892a4"/>
    <path d="M187.2210388,340.7676697c-.1199951,1.3399658-.25,2.6799927-.3699951,4.0199585-.0200195.2300415-.039978.460022-.0700073.6900024-.8200073,6.8000488-4.9299927,12.6400146-6.8099976,13.0200195-1.9400024.3900146-5.2999878-.8999634-7.3999634-7.25-.0800171-.2399902-.1600342-.5-.2300415-.789978.0100098.3499756.1100464,8.3299561-2.1199951,9.5999756-2.2799683,1.2900391-4.2199707-.3900146-4.2199707-.3900146,0,0-3.3699951-11.7799683-5.3099976-18.1199951-1.9400024-6.3399658.1300049-24.7199707.1300049-24.7199707,1.3099976-2.0700073,2.289978-7.0900269,3.0599976-12.2999878.1999512-1.3500366.3800049-2.710022.5499878-4.0300293l.5299683.0700073s5.0500488,6.5599976,5.4400024,10.7600098c.5100098-8.2200317,4.3400269-10.7600098,4.3400269-10.7600098.9400024,2.2600098,1.8599854,4.210022,2.7700195,5.9699707.7699585,1.4800415,1.539978,2.8200073,2.3299561,4.0800171,3.4899902,5.5400391,6.3500366,9.6199951,7.3200073,12.5599976,0,.0100098.0100098.0200195.0100098.0300293.5300293,4.7799683.6699829,10.5999756.0499878,17.5599976Z" fill="#8892a4"/>
  </g>
  <g id="lats">
    <path d="M138.3910217,164.2176819s-7.4199829,9.6099854-12.4699707,20.3499756c-.2199707.4699707-.4500122.9299927-.6900024,1.3699951-5.2199707-4.1900024-10.3599854-8.5100098-11.8599854-10.9400024v-.0100098c-3.1099854-5.0499878-3.8900146-13.5899658-5.0499878-19.7999878-1.1700439-6.210022-2.4000244-8.3300171-2.4000244-8.3300171.8699951-1.8800049,1.5300293-3.9799805,1.75-6.3200073.2999878-3.2399902.0200195-6.3799438-.4400024-9.0099487l.5599976-.0200195s2.0800171.7700195,5.3200073,4.1400146c3.2299805,3.3599854,8.7199707,3.2000122,13.6099854-1.2999878.6500244,6.3199463,1.3900146,10.5,2.6199951,13.2999878.9800415,2.25,5.3900146,10.6799927,9.0499878,16.5700073Z" fill="#8892a4"/>
    <path d="M126.7210388,134.337677v.0100098c-4.8900146,4.5-10.3800049,4.6599731-13.6099854,1.2999878-3.2399902-3.3699951-5.3200073-4.1400146-5.3200073-4.1400146l-.5599976.0200195c-.7299805-4.1300049-1.8900146-6.9900513-1.8900146-6.9900513,6.8900146-5.7799683,13.4700317-15.8999634,13.4700317-15.8999634,6.1599731,6.710022,6.7000122,11.2799683,7.4199829,20.1199951.1599731,2.0200195.3200073,3.8800049.4899902,5.5800171Z" fill="#8892a4"/>
    <path d="M180.4310608,146.8576355v.0200195c-.1400146.2399902-1.2999878,2.460022-2.4000244,8.3099976-1.1599731,6.210022-1.9400024,14.75-5.0499878,19.7999878-1.4899902,2.4299927-6.6300049,6.75-11.8599854,10.9500122-.2399902-.4400024-.4700317-.9000244-.6900024-1.3699951-5.0499878-10.7399902-12.4700317-20.3499756-12.4700317-20.3499756,3.6600342-5.8900146,8.0700073-14.3200073,9.0500488-16.5700073,1.2299805-2.7999878,1.9699707-6.9800415,2.6099854-13.3099976,4.8900146,4.5100098,10.3900146,4.6699829,13.6199951,1.3099976,3.039978-3.1600342,5.0599976-4.0300293,5.2999878-4.1300049l.5800171.0100098c-.460022,2.6300049-.7399902,5.7699585-.4400024,9.0099487.2199707,2.3400269.8800049,4.4400024,1.75,6.3200073Z" fill="#8892a4"/>
    <path d="M181.0110779,124.5376358s-1.1600342,2.8600464-1.8900146,6.9900436l-.5800171-.0100098c-.2399902.0999756-2.2600098.9699707-5.2999878,4.1300049-3.2299805,3.3599854-8.7299805,3.2000122-13.6199951-1.3099976.1699829-1.7000122.3300171-3.5599976.5-5.5800171.7199707-8.8400269,1.2600098-13.4099731,7.4199829-20.1199951,0,0,6.5800171,10.1199951,13.4700317,15.899971Z" fill="#8892a4"/>
  </g>
  <g id="triceps">
    <path d="M107.671051,140.5376282c-.2199707,2.3400269-.8800049,4.4400024-1.75,6.3200073-2.210022,4.8400269-5.75,8.25-6.4699707,10.5700073-.1300049.4200439-.4200439.9000244-.8100586,1.4200439-2.5699463,3.3599854-9.8599854,8.1399536-9.8599854,8.1399536,0,0,.1400146-4.7399902.1799927-10,.0300293-2.1599731.0300293-4.4099731-.0099487-6.4500122-.0200195-1.8299561-.0800171-3.4899902-.1700439-4.7799683-.0299683-.4799805-.039978-.960022-.0100098-1.4400024h-.0199585c-1.4700317,1.7800293-7.6400146,5.6699829-7.6400146,5.6699829.6699829-13.3399658,6-17.8899536,6-17.8899536,0,0,4.9799805-.7800293,10.3400269-2.9900513,2.7299805-1.1199951,5.5599976-2.6199951,7.8899536-4.5700073,0,0,1.1600342,2.8600464,1.8900146,6.9900513.460022,2.6300049.7399902,5.7699585.4400024,9.0099487Z" fill="#8892a4"/>
    <path d="M205.2410583,149.9876404s-6.1699829-3.8899536-7.6400146-5.6699829h-.0200195c.0300293.4799805.0200195.960022-.0099487,1.4400024-.0900269,1.289978-.1500244,2.9500122-.1800537,4.7799683-.0299683,2.0400391-.0299683,4.2900391-.0099487,6.4500122.0499878,5.2600098.1900024,10,.1900024,10,0,0-7.2900391-4.7799683-9.8600464-8.1399536-.3999634-.5200195-.6799927-1-.8099976-1.4200439-.7199707-2.3099976-4.25-5.7199707-6.4699707-10.5499878v-.0200195c-.8699951-1.8800049-1.5300293-3.9799805-1.75-6.3200073-.2999878-3.2399902-.0200195-6.3799438.4400024-9.0099487.7299805-4.1300049,1.8900146-6.9900513,1.8900146-6.9900513,2.3199463,1.9500122,5.1599731,3.4500122,7.8899536,4.5700073,5.3600464,2.210022,10.3400269,2.9900513,10.3400269,2.9900513,0,0,5.3300171,4.5499878,6,17.8899536Z" fill="#8892a4"/>
  </g>
  <g id="shoulders">
    <path d="M118.8110657,108.6376724s-6.5800171,10.1199951-13.4700317,15.8999634c-2.3299561,1.9500122-5.1599731,3.4500122-7.8899536,4.5699997-5.3600464,2.210022-10.3400269,2.9900513-10.3400269,2.9900513,0,0-1.4400024-13.2200317,2.3400269-23.6700439,3.7799683-10.4400024,13-10.6699829,13-10.6699829,0,0,7.1099854,1.5599976,14.7799683,9.2299805.5700073.5700073,1.0900269,1.1199951,1.5800171,1.650032Z" fill="#8892a4"/>
    <path d="M199.2410583,132.0976868s-4.9799805-.7800293-10.3400269-2.9900513c-2.7299805-1.1199951-5.5700073-2.6199951-7.8899536-4.5700073-6.8900146-5.7799683-13.4700317-15.8999634-13.4700317-15.8999634.4899902-.5300293,1.0100098-1.0800171,1.5800171-1.6500244,7.6699829-7.6699829,14.7799683-9.2299805,14.7799683-9.2299805,0,0,9.2200317.2299805,13,10.6699829,3.7800293,10.4500122,2.3400269,23.6700439,2.3400269,23.6700439Z" fill="#8892a4"/>
  </g>
  <g id="traps">
    <path d="M183.9010315,97.7576675s-7.1099854,1.5599976-14.7799683,9.2299805c-.5700073.5700073-1.0900269,1.1199951-1.5800171,1.6500244-6.1599731,6.710022-6.7000122,11.2799683-7.4199829,20.1199875-.1699829,2.0200195-.3300171,3.8800049-.5,5.5800171-.6400146,6.3299561-1.3800049,10.5100098-2.6099854,13.3099976-.9800415,2.25-5.3900146,10.6799927-9.0500488,16.5700073-2.1199951,3.4199829-3.9899902,5.9899902-4.7799683,5.9899902-.7999878,0-2.6699829-2.5700073-4.7900391-5.9899902-3.6599731-5.8900146-8.0699463-14.3200073-9.0499878-16.5700073-1.2299805-2.7999878-1.9699707-6.9800415-2.6199951-13.2999878v-.0100098c-.1699829-1.7000122-.3300171-3.5599976-.4899902-5.5800171-.7199707-8.8400269-1.2600098-13.4099731-7.4199829-20.1199951-.4899902-.5300293-1.0100098-1.0800171-1.5800171-1.6500244-7.6699829-7.6699829-14.7799683-9.2299805-14.7799683-9.2299805,0,0,8.4399414-1.1099854,9.6599731-2.3300171,1.2299805-1.2199707,19.3400269-14.8900146,19.4500122-15.5499878.1099854-.6699829,2.1099854-8.3400269,2.1099854-8.3400269,0,0,2.5599976-11.6599731,3.7800293-13.1099854,1.2199707-1.4400024,5.7299805-1.5499878,5.7299805-1.5499878,0,0,4.5.1099854,5.7199707,1.5499878,1.2200317,1.4500122,3.7800293,13.1099854,3.7800293,13.1099854,0,0,2,7.6700439,2.1099854,8.3400269.1099854.6599731,18.2200317,14.3300171,19.4500122,15.5499878,1.2199707,1.2200317,9.6599731,2.3300171,9.6599731,2.3300247Z" fill="#8892a4"/>
  </g>
  <g id="base_body">
    <path d="M88.9610291,156.9876404h-.2099609s-.4100342.3200073-1.1199951.8300171c-2.25,1.6300049-7.5,5.25-12.0700073,6.9400024,2.8900146-5.6599731,5.5499878-7.7700195,5.5499878-7.7700195-.7700195-4.1099854,0-7,0-7,0,0,6.1699829-3.8899536,7.6400146-5.6699829h.0199585c-.0299683.4799805-.0199585.960022.0100098,1.4400024.0900269,1.289978.1500244,2.9500122.1700439,4.7799683.039978,2.0400391.039978,4.2900391.0099487,6.4500122Z" fill="#8892a4"/>
    <path d="M55.4510498,215.5376587s-.3899994.5700073-1.2099991,1.3500061c0,0,0,.0099945-.0099983.0200043" fill="#8892a4"/>
    <path d="M56.1110497,223.877655s-.5299988.7400055-1.3499985,1.8699951c0,0-.0099983.0099945-.0200005.0399933" fill="#8892a4"/>
    <path d="M54.2310524,216.9076691c.0099983-.0099945.0099983-.0200043.0099983-.0200043" fill="#8892a4"/>
    <path d="M60.671051,226.2076569s-.3199997.5899963-.8300018,1.5299988" fill="#8892a4"/>
    <path d="M54.7610512,225.7476654s-.0099983.0099945-.0200005.0399933" fill="#8892a4"/>
    <path d="M65.3410492,227.1976624s-.3499985.9499969-.8799973,2.3699951v.0299988" fill="#8892a4"/>
    <path d="M74.6110535,217.5376282c-.8300171,2.5600586-4.5499878,8.6100464-5.2200317,10.4500122-.6599731,1.8300171-3.7199707,11.7700195-4.0499878,12.6100464-.3399658.8299561-2.6099854.5-2.8399658-.3900146-.210022-.8500366,1.7699585-9.7900391,1.9599609-10.6099854-1.4699707,3.9099731-4.2799683,11.3599854-5.0099487,12.5-1,1.5499878-3.5-.2800293-3.7200317-.6700439-.2299805-.3800049,4.1099854-13.6900024,4.1099854-13.6900024-1.9799805,3.6400146-6.9199829,12.5700073-8.1199951,13.3600464-1.5100098,1-3.0499878-.4500122-3.0499878-1.5600586,0-1.0799561,5.7199707-13.0099487,6.0700073-13.75-2.5300293,3.5-7.7000122,10.6700439-8.289978,11.4200439-.7800293,1-2.4500122-.6700439-2.3100586-1.8900146.1300049-1.2199707,6.9700317-11,7.5300293-11.8900146.539978-.8599854,2.4500122-6.1900024,2.5599976-6.5199585-.75.7199707-1.8599854,1.6099854-3.3400269,2.4099731-3.1099854,1.6699829-6.2199707,1.2199707-6.6599731,0-.4500122-1.2199707.7700195-1.2199707,3.7700195-3s3.7799683-4.6699829,5.7799683-6.2199707c2-1.5600586,9.7800293-4.7800293,9.7800293-4.7800293l6.5999756,3.1400146,4.6199951,2.1900024s.6700439,4.3399658-.1699829,6.8899536Z" fill="#8892a4"/>
    <path d="M64.4610519,229.5976562v-.0299988c.0100021-.0200043.0100021-.0299988.0100021-.0299988" fill="#8892a4"/>
    <line x1="126.7310486" y1="134.3376617" x2="126.7210541" y2="134.3376617" fill="none"/>
    <path d="M125.2310486,185.9376526c-5.1699829,9.789978-13.8099976,14.289978-13.8099976,14.289978-3.8800049-16.8299561,1.9500122-25.2299805,1.9500122-25.2299805,1.5,2.4299927,6.6400146,6.75,11.8599854,10.9400024Z" fill="#8892a4"/>
    <path d="M116.0810242,410.3976746c-6.4699707.1300049-9.1799927-3.3699951-13.9699707-3.5s-8.4099731-.9000244-11.3900146-1.9400024c-2.9799805-1.0300293-4.0100098-.9000244-4.0100098-2.5900269,0-1.6799927,1.8099976-1.0299683,6.210022-3.3599854s9.960022-8.4099731,9.8300171-9.3200073c-.1300049-.9000244-.9000244-1.9400024-.9000244-3.2299805,0-1.2999878,1.9400024-3.8900146,1.9400024-4.5300293,0-.5999756-2.4299927-17.9400024-4.2199707-36.4799805.8099976,6.8099976,4.9299927,12.6699829,6.8099976,13.0499878,1.9400024.3900146,5.2999878-.8999634,7.3999634-7.25.0800171-.2399902.1600342-.5.2300415-.789978-.0100098.3499756-.1100464,8.3299561,2.1199951,9.5999756,2.2799683,1.2900391,4.2199707-.3900146,4.2199707-.3900146,0,0-2.3200073,19.6700439-2.3200073,20.5700073,0,.9100342.6400146,3.5,1.5499878,6.0900269.9000244,2.5800171-.9299927,4.3200073-.9299927,4.3200073.5700073,1.5899658,1.1600342,3.0899658,1.7000122,4.4799805,1.5599976,4.0100098,2.2000122,15.1400146-4.2700195,15.2700195Z" fill="#8892a4"/>
    <path d="M118.6510544,390.6476746c-1.0800018-3.019989-2.0500031-6.3200073-2.3099976-9.6300049-.3899994-5.0499878-.3899994-9.7099915-.3899994-9.7099915" fill="#8892a4"/>
    <path d="M108.8410339,306.5376282c-.7699585,1.4800415-1.539978,2.8200073-2.3299561,4.0800171-3.4900513,5.5400391-6.3500366,9.6199951-7.3200073,12.5599976,1.0100098-9.0499878,3.4099731-14.3299561,4.5999756-16.4400024,1.8099976-3.2399902,1.9400024-9.7099609,1.8099976-10.75-.0100098-.0999756-.0999756-.5899658-.25-1.3999634h.0100098s3.6099854,6.1900024,3.4799805,11.9499512Z" fill="#8892a4"/>
    <path d="M121.9310608,300.5576477l-.6000366.0800171c-.5499878.7399902-5.0099487,6.75-5.3799438,10.6900024-.5100098-8.2200317-4.3400269-10.710022-4.3400269-10.710022v-.0499878c1.7600098-4.2199707,3.6199951-9.4899902,5.7700195-16.4799805.2199707-.7300415.4400024-1.5200195.6499634-2.3500366,0,0,1.9400024,4.0300293,2.8400269,10.5.2999878,2.1300049.6400146,5.1000366,1.0499878,8.2700195v.0100098c0,.0100098,0,.0299683.0100098.039978Z" fill="#8892a4"/>
    <path d="M125.5310364,316.8276672c-1.3099976-2.0700073-2.289978-7.0900269-3.0599976-12.2999878,0,0,4.4700317-3.4800415,6.6099854-12.3800049-.0299683,1.0599976-.0099487,2.1300049.0700073,3.2000122.7800293,10.8699951-3.6199951,21.4799805-3.6199951,21.4799805Z" fill="#8892a4"/>
    <path d="M121.3910522,300.5676575s-.0199966.0299988-.0599976.0700073" fill="#8892a4"/>
    <path d="M129.0910492,292.107666c0,.0100098-.0099945.0299988-.0099945.0400085" fill="#8892a4"/>
    <path d="M112.1855927,372.0223389c.569252,7.6693115-.7715454,15.473175-3.8679657,22.5126648" fill="#8892a4"/>
    <path d="M161.9010315,56.0976906c-.4400024,2.8899536-2.4400024,3-2.4400024,3,0,0-.6699829,5.4399376-1.5599976,7.4399376-.8899536,2-5.2199707,5-5.2199707,5,0,0-2.5599976-11.6599731-3.7800293-13.1099854-1.2199707-1.4400024-5.7199707-1.5499878-5.7199707-1.5499878,0,0-4.5100098.1099854-5.7299805,1.5499878-1.2200317,1.4500122-3.7800293,13.1099854-3.7800293,13.1099854,0,0-4.3300171-3-5.2199707-5-.8900146-2-1.5600586-7.4399414-1.5600586-7.4399414,0,0-2-.1100464-2.4399414-3-.4500122-2.8900146-1.8900146-3.3400269-1.3400269-6.2200317.5599976-2.8900146,3.5800171-1.7799683,3.5800171-1.7799683,0,0-1.2000122-6.7900391,1.7299805-15.1700439s14.7600098-10.1099854,14.7600098-10.1099854c0,0,11.8200073,1.7299805,14.75,10.1099854s1.7299805,15.1700439,1.7299805,15.1700439c0,0,3.0200195-1.1100464,3.5800171,1.7799683.5499878,2.8800049-.8900146,3.3300171-1.3400269,6.2200356Z" fill="#8892a4"/>
    <path d="M210.7910461,164.7576599c-4.5700073-1.6900024-9.8200073-5.3099976-12.0700073-6.9400024-.7099609-.5100098-1.1199951-.8300171-1.1199951-.8300171h-.2199707c-.0200195-2.1599731-.0200195-4.4099731.0099487-6.4500122.0300293-1.8299561.0900269-3.4899902.1800537-4.7799683.0299683-.4799805.039978-.960022.0099487-1.4400024h.0200195c1.4700317,1.7800293,7.6400146,5.6699829,7.6400146,5.6699829,0,0,.7700195,2.8900146,0,7,0,0,2.6599731,2.1100464,5.5499878,7.7700195Z" fill="#8892a4"/>
    <path d="M230.9010468,215.5376587s.3899994.5700073,1.2100067,1.3500061c0,0,0,.0099945.0099945.0200043" fill="#8892a4"/>
    <path d="M230.2410583,223.877655s.5299988.7400055,1.3500061,1.8699951c0,0,.0099945.0099945.0200043.0399933" fill="#8892a4"/>
    <path d="M232.1110535,216.8876648s0,.0099945.0099945.0200043" fill="#8892a4"/>
    <path d="M226.5110474,227.7376556c-.5099945-.9400024-.8300018-1.5299988-.8300018-1.5299988" fill="#8892a4"/>
    <path d="M231.6110535,225.7876587c-.0099945-.0299988-.0200043-.0399933-.0200043-.0399933" fill="#8892a4"/>
    <path d="M221.0110474,227.1976624s.3500061.9499969.8800049,2.3699951v.0299988" fill="#8892a4"/>
    <path d="M239.9010315,237.2076721c-.5899658-.75-5.7600098-7.9200439-8.289978-11.4200439.3499756.7400513,6.0700073,12.6700439,6.0700073,13.75,0,1.1100464-1.5400391,2.5600586-3.0499878,1.5600586-1.2000122-.7900391-6.1400146-9.7200317-8.1199951-13.3600464,0,0,4.3399658,13.3099976,4.1099854,13.6900024-.2200317.3900146-2.7200317,2.2200317-3.7200317.6700439-.7299805-1.1400146-3.539978-8.5900269-5.0100098-12.5.1900024.8199463,2.1700439,9.7599487,1.960022,10.6099854-.2299805.8900146-2.5,1.2199707-2.8399658.3900146-.3300171-.8400269-3.3900146-10.7800293-4.0500488-12.6100464-.6699829-1.8399658-4.3899536-7.8899536-5.2199707-10.4500122-.8400269-2.5499878-.1699829-6.8899536-.1699829-6.8899536l4.6199951-2.1900024,6.5999756-3.1400146s7.7800293,3.2199707,9.7800293,4.7800293c2,1.5499878,2.7799683,4.4399414,5.7799683,6.2199707s4.2200317,1.7800293,3.7700195,3c-.4400024,1.2199707-3.5499878,1.6699829-6.6600342,0-1.4799805-.7999878-2.5899658-1.6900024-3.3399658-2.4099731.1099854.3299561,2.0199585,5.6599731,2.5599976,6.5199585.5599976.8900146,7.3999634,10.6700439,7.5299683,11.8900146.1400146,1.2199707-1.5299683,2.8900146-2.3099976,1.8900146Z" fill="#8892a4"/>
    <path d="M221.8910522,229.5976562v-.0299988c-.0099945-.0200043-.0099945-.0299988-.0099945-.0299988" fill="#8892a4"/>
    <path d="M174.9310608,200.2276306s-8.6400146-4.5-13.8099976-14.289978c5.2299805-4.2000122,10.3699951-8.5200195,11.8599854-10.9500122,0,0,5.8300171,8.4100342,1.9500122,25.2399902Z" fill="#8892a4"/>
    <path d="M178.5610504,131.5076599s-.0099945,0-.0200043.0099945" fill="#8892a4"/>
    <path d="M174.7410583,300.5676575s-3.8300171,2.539978-4.3400269,10.7600098c-.3899536-4.2000122-5.4400024-10.7600098-5.4400024-10.7600098l-.5299683-.0700073c.4099731-3.1599731.75-6.1300049,1.0499878-8.2600098.8699951-6.2699585,2.7299805-10.25,2.8400269-10.4899902.2099609.8300171.4299927,1.6099854.6499634,2.3400269,2.1500244,6.9899902,4.0100098,12.2600098,5.7700195,16.4799805Z" fill="#8892a4"/>
    <path d="M199.6410217,402.3676453c0,1.6900024-1.0299683,1.5599976-4.0099487,2.5900269-2.9700317,1.039978-6.6000366,1.8099976-11.3900146,1.9400024-4.7800293.1300049-7.5,3.6300049-13.9700317,3.5-6.4699707-.1300049-5.8299561-11.2600098-4.2699585-15.2700195.5299683-1.3900146,1.1300049-2.8900146,1.7000122-4.4799805,0,0-1.8300171-1.7399902-.9300537-4.3200073.9100342-2.5900269,1.5599976-5.1799927,1.5599976-6.0900269,0-.8999634-2.3299561-20.5700073-2.3299561-20.5700073,0,0,1.9400024,1.6800537,4.2199707.3900146,2.2300415-1.2700195,2.1300049-9.25,2.1199951-9.5999756.0700073.289978.1500244.5499878.2300415.789978,2.0999756,6.3500366,5.4599609,7.6400146,7.3999634,7.25,1.8800049-.3800049,5.9899902-6.2199707,6.8099976-13.0200195-1.7999878,18.5300293-4.2199707,35.8500366-4.2199707,36.4500122,0,.6400146,1.9400024,3.2300415,1.9400024,4.5300293,0,1.289978-.7700195,2.3299561-.9000244,3.2299805-.1300049.9100342,5.4299927,6.9899902,9.8300171,9.3200073,4.3999634,2.3300171,6.2099609,1.6799927,6.2099609,3.3599854Z" fill="#8892a4"/>
    <path d="M170.4010468,371.3076477s0,4.6600037-.3899994,9.7099915c-.2599945,3.3099976-1.2299957,6.6099854-2.3099976,9.6300049" fill="#8892a4"/>
    <path d="M187.1610413,323.1776428c-.9699707-2.9400024-3.8300171-7.0199585-7.3200073-12.5599976-.789978-1.2600098-1.5599976-2.5999756-2.3299561-4.0800171-.1200562-5.5799561,3.2699585-11.5699463,3.4799805-11.9299927-.1400146.8000488-.2299805,1.2800293-.2399902,1.3800049-.1300049,1.0400391,0,7.5100098,1.8099976,10.75,1.1900024,2.1100464,3.5899658,7.3900146,4.5999756,16.4400024Z" fill="#8892a4"/>
    <path d="M163.881073,304.5276794c-.7700195,5.2099609-1.75,10.2299805-3.0599976,12.2999878,0,0-4.4000244-10.6099854-3.6199951-21.4799805.0799561-1.0700073.0999756-2.1400146.0699463-3.2000122,2.1400146,8.8999634,6.6100464,12.3800049,6.6100464,12.3800049Z" fill="#8892a4"/>
    <path d="M168.3310547,281.7376709l-.0099945.0100098" fill="#8892a4"/>
    <path d="M157.2710571,292.1476746c0-.0100098-.0099945-.0299988-.0099945-.0400085" fill="#8892a4"/>
    <path d="M174.1668549,372.0223389c-.5692596,7.6693115.7715454,15.473175,3.8679657,22.5126648" fill="#8892a4"/>
    <path d="M143.1762238,22.8144817s-11.8261566,1.7296925-14.7533112,10.1120434c-2.9271698,8.3823509-1.7296906,15.1680641-1.7296906,15.1680641,0,0-3.0221634-1.11026-3.577713,1.7786293-.5555573,2.8888893.8888855,3.3333321,1.3333359,6.2222214.4444427,2.8888893,2.4444427,3,2.4444427,3,0,0,.6666641,5.4444466,1.5555496,7.4444466s5.222229,5,5.222229,5c0,0,2.5555573-11.6666679,3.777771-13.1111107,1.222229-1.4444427,5.7274017-1.5555573,5.7274017-1.5555573v113.3333397c-2.161499,0-12.2829437-19-13.838501-22.5555573s-2.3333359-9.3333282-3.1111145-18.8888855-1.3333359-14.1111145-9-21.7777786-14.7777786-9.2222214-14.7777786-9.2222214c0,0,8.4444427-1.1111145,9.6666641-2.3333359s19.3333282-14.8888931,19.4444427-15.5555573,2.1111145-8.3333359,2.1111145-8.3333359" fill="none" stroke="#3b424c" stroke-miterlimit="10"/>
    <path d="M102.4488297,97.7621078s-9.2222214.2222214-13,10.6666641-2.3333359,23.6666718-2.3333359,23.6666718c0,0,11.3333359-1.777771,18.2222214-7.5555573s13.4718475-15.9045868,13.4718475-15.9045868" fill="none" stroke="#3b424c" stroke-miterlimit="10"/>
    <path d="M105.3377151,124.5398865s3.1111145,7.6666718,2.3333359,16-7.2222214,13.6666718-8.2222214,16.8888855-10.6666641,9.5555573-10.6666641,9.5555573c0,0,.4444427-15,0-21.2222137-.4444427-6.222229,4.3409271-12.2037659,8.6704636-16.6574402" fill="none" stroke="#3b424c" stroke-miterlimit="10"/>
    <path d="M87.1154938,132.0954437s-5.3333359,4.5555573-6,17.8888855c0,0,6.1646652-3.8888855,7.637886-5.6666718" fill="none" stroke="#3b424c" stroke-miterlimit="10"/>
    <path d="M81.1154938,149.9843292s-.7777786,2.8888855,0,7c0,0,6.609108-3.6666718,7.637886-6.4444427" fill="none" stroke="#3b424c" stroke-miterlimit="10"/>
    <path d="M81.1154938,156.9843292s-2.6666641,2.1111145-5.5555573,7.777771-6.2222214,21-8.1111145,27.6666718c-1.8888855,6.6666718-3.8888893,12.8888855-3.8888893,12.8888855l11.2222252,5.3333282s3.7777786-8.8888855,10.7777786-15.222229,13.8232117-26.7182922,13.07827-36.5813751" fill="none" stroke="#3b424c" stroke-miterlimit="10"/>
    <path d="M88.7821655,166.9843292s.1111145,7.8888855-6.6666641,18.5555573-11.9586258,22.9129486-11.9586258,22.9129486" fill="none" stroke="#3b424c" stroke-miterlimit="10"/>
    <path d="M88.7533798,156.9843292s-7.1934433,5.5555573-13.1934433,7.777771" fill="none" stroke="#3b424c" stroke-miterlimit="10"/>
    <path d="M87.630867,157.8179169s-14.760849,25.4085236-21.0825577,37.7319183" fill="none" stroke="#3b424c" stroke-miterlimit="10"/>
    <path d="M63.5599403,205.3176575s-7.7777786,3.222229-9.7777786,4.777771-2.7777786,4.4444427-5.7777786,6.222229-4.2222214,1.777771-3.7777786,3,3.5555573,1.6666718,6.6666679,0,4.5555573-3.777771,4.5555573-3.777771" fill="none" stroke="#3b424c" stroke-miterlimit="10"/>
    <path d="M54.2447586,216.8922729s-2.0181503,5.6475983-2.5737038,6.536499-7.3994751,10.6666718-7.5330696,11.8888855c-.1335945,1.222229,1.5330734,2.8888855,2.3108482,1.8888855s9.6666679-13.3333282,9.6666679-13.3333282" fill="none" stroke="#3b424c" stroke-miterlimit="10"/>
    <path d="M54.7631683,225.7483978s-6.0921173,12.6803741-6.0921173,13.7914886,1.5365601,2.5555573,3.0460587,1.5555573,8.9539413-14.8888855,8.9539413-14.8888855" fill="none" stroke="#3b424c" stroke-miterlimit="10"/>
    <path d="M59.8433304,227.7348938s-4.3389473,13.3104706-4.1167259,13.6966248,2.7222214,2.2194824,3.7222214.6639252,5.8888893-14.8929596,5.8888893-14.8929596" fill="none" stroke="#3b424c" stroke-miterlimit="10"/>
    <path d="M64.4746399,229.5352936s-2.1924744,9.7823792-1.970253,10.6712646,2.5,1.222229,2.8333359.3888855,3.3888855-10.777771,4.0555573-12.6111145,4.3888855-7.8888855,5.2222214-10.4444427.1666641-6.8888855.1666641-6.8888855" fill="none" stroke="#3b424c" stroke-miterlimit="10"/>
    <path d="M105.9179077,146.8616028s1.2372971,2.1155396,2.4020309,8.3274536,1.9412231,14.7532959,5.0471802,19.8004761,22.1299362,18.3769073,24.5888138,21.6122742,2.9345093,10.2237701,5.2202911,10.2237701" fill="none" stroke="#3b424c" stroke-miterlimit="10"/>
    <path d="M113.3671188,174.9895172s-5.8236694,8.411972-1.9412231,25.2359009c0,0,9.4472809-4.9177704,14.4944611-15.6591949,5.0471725-10.7414246,12.4697952-20.3467865,12.4697952-20.3467865" fill="none" stroke="#3b424c" stroke-miterlimit="10"/>
    <path d="M107.7958832,131.506134s2.077034.7764893,5.3124084,4.1412811,8.7342834,3.2026978,13.6203003-1.3104858" fill="none" stroke="#3b424c" stroke-miterlimit="10"/>
    <path d="M111.4258957,200.2254181s-5.3060074,13.8149719-9.4472809,34.7316742,3.4942017,60,3.6236191,61.0353088,0,7.506073-1.8118057,10.7414246-6.4707413,13.8473816-4.6589355,34.0361023,4.6589355,40.5068359,4.6589355,41.1539307-1.9412231,3.2353821-1.9412231,4.5295105.7764893,2.3294678.9059067,3.2353821-5.4354248,6.9884033-9.8355255,9.3178711-6.2119141,1.6824036-6.2119141,3.3647766,1.0353165,1.5529785,4.0118561,2.5882874,6.6001587,1.8117981,11.388504,1.9412231,7.5060577,3.6236267,13.9768066,3.4942017,5.8236694-11.2590942,4.2706909-15.2709656-3.6236191-9.0590515-4.0118561-14.1062317-.3882446-9.7061157-.3882446-9.7061157" fill="none" stroke="#3b424c" stroke-miterlimit="10"/>
    <path d="M118.6560364,390.6471558s1.8289032-1.7348938.9229965-4.3231812-1.5529785-5.1766052-1.5529785-6.082489,2.3294678-20.5769653,2.3294678-20.5769653c0,0,3.3647842-11.7767639,5.3060074-18.1180725,1.9412231-6.3413391-.1294174-24.7182312-.1294174-24.7182312,0,0,4.4001083-10.61203,3.6236191-21.4828796s4.2706909-21.6122742,4.2706909-21.6122742c0,0,5.0471802-8.9296265,5.6942596-14.6238708.6470795-5.6942596,2.3294678-25.5192108,2.3294678-25.5192108,0,0,.7344513-1.9167328,1.7260895-1.5284882" fill="none" stroke="#3b424c" stroke-miterlimit="10"/>
    <path d="M143.1762238,227.6613617c-3.9261322,0-3.8824463,8.8002167-12.5750885,8.8002167s-12.9633331-.905899-17.234024,0c0,0-1.2941513-5.4089813,2.0706406-10.5988007,3.3647842-5.1898193-2.2673187-15.4331512-7.9279404-13.611557" fill="none" stroke="#3b424c" stroke-miterlimit="10"/>
    <path d="M113.3671188,236.4615784s-6.0824966,7.2472382-8.5413818,18.8945618c-2.4588852,11.6473389-2.0705643,22.2759094-2.0705643,22.2759094" fill="none" stroke="#3b424c" stroke-miterlimit="10"/>
    <path d="M122.5555725,236.4615784s-.9059067,33.7772827-5.17659,47.6246643c-4.2706909,13.8473816-7.3766479,20.96521-10.8708496,26.5300293-3.4942017,5.5648499-6.3652878,9.6484985-7.3239212,12.5891418" fill="none" stroke="#3b424c" stroke-miterlimit="10"/>
    <path d="M105.3562851,294.5895386s3.6100388,6.1852112,3.4809647,11.9471741" fill="none" stroke="#3b424c" stroke-miterlimit="10"/>
    <path d="M111.6078568,300.5631409s3.829895,2.5476685,4.3475571,10.7652283-.0768661,33.5828552-2.1737823,39.9241943c-2.0969086,6.3413391-5.4617004,7.6354675-7.4029236,7.2472229s-6.2701035-6.6269836-6.87397-13.7165222" fill="none" stroke="#3b424c" stroke-miterlimit="10"/>
    <path d="M114.0131302,350.4439087s-.1644592,8.3146973,2.1183548,9.6088562,4.2240372-.3882446,4.2240372-.3882446" fill="none" stroke="#3b424c" stroke-miterlimit="10"/>
    <path d="M118.0260544,281.7327271s1.9412231,4.0358887,2.8471298,10.5066223,2.2000504,20.7063904,4.6589355,24.5888062" fill="none" stroke="#3b424c" stroke-miterlimit="10"/>
    <path d="M121.7790833,300.0398865s-5.4354248,7.0827942-5.8236694,11.2884827" fill="none" stroke="#3b424c" stroke-miterlimit="10"/>
    <path d="M122.4743042,304.5267029s4.4794617-3.4904785,6.6157684-12.4184265" fill="none" stroke="#3b424c" stroke-miterlimit="10"/>
    <path d="M127.7321625,236.4615784s6.3413239,14.8827057,5.6942596,37.2714844" fill="none" stroke="#3b424c" stroke-miterlimit="10"/>
    <path d="M112.1855927,372.0223389c.569252,7.6693115-.7715454,15.473175-3.8679657,22.5126648" fill="none" stroke="#3b424c" stroke-miterlimit="10"/>
    <path d="M143.1762238,22.8144817s11.8261566,1.7296925,14.7533112,10.1120434,1.7296906,15.1680641,1.7296906,15.1680641c0,0,3.0221558-1.11026,3.577713,1.7786293s-.8888855,3.3333321-1.3333282,6.2222214-2.4444427,3-2.4444427,3c0,0-.6666718,5.4444466-1.5555573,7.4444466s-5.222229,5-5.222229,5c0,0-2.5555573-11.6666679-3.777771-13.1111107s-5.7274017-1.5555573-5.7274017-1.5555573" fill="none" stroke="#3b424c" stroke-miterlimit="10"/>
    <path d="M152.6813965,71.5398865s2,7.6666641,2.1111145,8.3333359,18.222229,14.3333359,19.4444427,15.5555573,9.6666718,2.3333359,9.6666718,2.3333359c0,0-7.1111145,1.5555573-14.777771,9.2222214s-8.222229,12.2222214-9,21.7777786-1.5555573,15.3333282-3.1111145,18.8888855-11.677002,22.5555573-13.838501,22.5555573" fill="none" stroke="#3b424c" stroke-miterlimit="10"/>
    <path d="M183.9036102,97.7621078s9.222229.2222214,13,10.6666641,2.3333282,23.6666718,2.3333282,23.6666718c0,0-11.3333282-1.777771-18.222229-7.5555573-6.8888855-5.7777786-13.4718475-15.9045868-13.4718475-15.9045868" fill="none" stroke="#3b424c" stroke-miterlimit="10"/>
    <path d="M181.0147247,124.5398865s-3.1111145,7.6666718-2.3333282,16c.777771,8.3333282,7.222229,13.6666718,8.222229,16.8888855s10.6666718,9.5555573,10.6666718,9.5555573c0,0-.4444427-15,0-21.2222137.4444427-6.222229-4.3409271-12.2037659-8.6704712-16.6574402" fill="none" stroke="#3b424c" stroke-miterlimit="10"/>
    <path d="M199.2369537,132.0954437s5.3333282,4.5555573,6,17.8888855c0,0-6.1646576-3.8888855-7.6378937-5.6666718" fill="none" stroke="#3b424c" stroke-miterlimit="10"/>
    <path d="M205.2369537,149.9843292s.777771,2.8888855,0,7c0,0-6.6091003-3.6666718-7.6378937-6.4444427" fill="none" stroke="#3b424c" stroke-miterlimit="10"/>
    <path d="M205.2369537,156.9843292s2.6666718,2.1111145,5.5555573,7.777771c2.8888855,5.6666718,6.222229,21,8.1111145,27.6666718s3.8888855,12.8888855,3.8888855,12.8888855l-11.222229,5.3333282s-3.777771-8.8888855-10.777771-15.222229c-7-6.3333282-13.8232117-26.7182922-13.0782776-36.5813751" fill="none" stroke="#3b424c" stroke-miterlimit="10"/>
    <path d="M197.570282,166.9843292s-.1111145,7.8888855,6.6666718,18.5555573,11.9586334,22.9129486,11.9586334,22.9129486" fill="none" stroke="#3b424c" stroke-miterlimit="10"/>
    <path d="M197.5990601,156.9843292s7.1934357,5.5555573,13.1934357,7.777771" fill="none" stroke="#3b424c" stroke-miterlimit="10"/>
    <path d="M198.7215881,157.8179169s14.760849,25.4085236,21.08255,37.7319183" fill="none" stroke="#3b424c" stroke-miterlimit="10"/>
    <path d="M222.792511,205.3176575s7.777771,3.222229,9.777771,4.777771c2,1.5555573,2.777771,4.4444427,5.777771,6.222229s4.222229,1.777771,3.777771,3c-.4444427,1.222229-3.5555573,1.6666718-6.6666718,0s-4.5555573-3.777771-4.5555573-3.777771" fill="none" stroke="#3b424c" stroke-miterlimit="10"/>
    <path d="M232.1076965,216.8922729s2.0181427,5.6475983,2.5737,6.536499,7.3994751,10.6666718,7.5330658,11.8888855-1.5330658,2.8888855-2.3108521,1.8888855c-.777771-1-9.6666718-13.3333282-9.6666718-13.3333282" fill="none" stroke="#3b424c" stroke-miterlimit="10"/>
    <path d="M231.5892792,225.7483978s6.0921173,12.6803741,6.0921173,13.7914886-1.5365601,2.5555573-3.046051,1.5555573-8.953949-14.8888855-8.953949-14.8888855" fill="none" stroke="#3b424c" stroke-miterlimit="10"/>
    <path d="M226.5091095,227.7348938s4.3389435,13.3104706,4.1167297,13.6966248-2.722229,2.2194824-3.722229.6639252-5.8888855-14.8929596-5.8888855-14.8929596" fill="none" stroke="#3b424c" stroke-miterlimit="10"/>
    <path d="M221.8778076,229.5352936s2.1924744,9.7823792,1.9702454,10.6712646-2.5,1.222229-2.8333282.3888855-3.3888855-10.777771-4.0555573-12.6111145c-.6666718-1.8333282-4.3888855-7.8888855-5.222229-10.4444427s-.1666718-6.8888855-.1666718-6.8888855" fill="none" stroke="#3b424c" stroke-miterlimit="10"/>
    <path d="M180.4345398,146.8616028s-1.2373047,2.1155396-2.4020386,8.3274536-1.9412231,14.7532959-5.0471802,19.8004761-22.1299438,18.3769073-24.5888214,21.6122742-2.9345093,10.2237701-5.2202911,10.2237701" fill="none" stroke="#3b424c" stroke-miterlimit="10"/>
    <path d="M172.9853363,174.9895172s5.8236694,8.411972,1.9412231,25.2359009c0,0-9.4472809-4.9177704-14.4944611-15.6591949s-12.4697876-20.3467865-12.4697876-20.3467865" fill="none" stroke="#3b424c" stroke-miterlimit="10"/>
    <path d="M178.5565643,131.506134s-2.0770416.7764893-5.3124084,4.1412811-8.7342834,3.2026978-13.6203003-1.3104858" fill="none" stroke="#3b424c" stroke-miterlimit="10"/>
    <path d="M174.9265442,200.2254181s5.306015,13.8149719,9.4472809,34.7316742-3.4942017,60-3.6236115,61.0353088,0,7.506073,1.8118134,10.7414246c1.8118134,3.2353821,6.4707489,13.8473816,4.6589355,34.0361023s-4.6589355,40.5068359-4.6589355,41.1539307c0,.6470642,1.9412231,3.2353821,1.9412231,4.5295105,0,1.2941589-.7764893,2.3294678-.905899,3.2353821s5.4354248,6.9884033,9.8355255,9.3178711,6.2119141,1.6824036,6.2119141,3.3647766-1.0353241,1.5529785-4.0118561,2.5882874c-2.9765472,1.0353088-6.6001587,1.8117981-11.388504,1.9412231s-7.5060577,3.6236267-13.9768066,3.4942017-5.8236694-11.2590942-4.2706909-15.2709656,3.6236115-9.0590515,4.0118561-14.1062317.3882446-9.7061157.3882446-9.7061157" fill="none" stroke="#3b424c" stroke-miterlimit="10"/>
    <path d="M167.6964111,390.6471558s-1.8289032-1.7348938-.9229889-4.3231812,1.5529785-5.1766052,1.5529785-6.082489c0-.9059143-2.3294678-20.5769653-2.3294678-20.5769653,0,0-3.3647919-11.7767639-5.306015-18.1180725-1.9412231-6.3413391.1294098-24.7182312.1294098-24.7182312,0,0-4.4001007-10.61203-3.6236115-21.4828796s-4.2706909-21.6122742-4.2706909-21.6122742c0,0-5.0471802-8.9296265-5.6942596-14.6238708s-2.3294678-25.5192108-2.3294678-25.5192108c0,0-.7344513-1.9167328-1.7260895-1.5284882" fill="none" stroke="#3b424c" stroke-miterlimit="10"/>
    <path d="M143.1762238,227.6613617c3.9261322,0,3.8824463,8.8002167,12.5750885,8.8002167s12.9633331-.905899,17.234024,0c0,0,1.2941437-5.4089813-2.0706329-10.5988007-3.3647919-5.1898193,2.2673187-15.4331512,7.9279327-13.611557" fill="none" stroke="#3b424c" stroke-miterlimit="10"/>
    <path d="M172.9853363,236.4615784s6.0825043,7.2472382,8.5413818,18.8945618c2.4588776,11.6473389,2.0705566,22.2759094,2.0705566,22.2759094" fill="none" stroke="#3b424c" stroke-miterlimit="10"/>
    <path d="M163.796875,236.4615784s.905899,33.7772827,5.17659,47.6246643,7.3766479,20.96521,10.8708496,26.5300293c3.4942017,5.5648499,6.3652802,9.6484985,7.3239136,12.5891418" fill="none" stroke="#3b424c" stroke-miterlimit="10"/>
    <path d="M180.9961548,294.5895386s-3.6100311,6.1852112-3.4809723,11.9471741" fill="none" stroke="#3b424c" stroke-miterlimit="10"/>
    <path d="M174.7445831,300.5631409s-3.829895,2.5476685-4.3475494,10.7652283.0768738,33.5828552,2.1737823,39.9241943,5.4617004,7.6354675,7.4029236,7.2472229,6.2700958-6.6269836,6.8739624-13.7165222" fill="none" stroke="#3b424c" stroke-miterlimit="10"/>
    <path d="M172.339325,350.4439087s.1644592,8.3146973-2.1183472,9.6088562c-2.2828217,1.2941589-4.2240448-.3882446-4.2240448-.3882446" fill="none" stroke="#3b424c" stroke-miterlimit="10"/>
    <path d="M168.3264008,281.7327271s-1.9412231,4.0358887-2.8471222,10.5066223-2.200058,20.7063904-4.6589355,24.5888062" fill="none" stroke="#3b424c" stroke-miterlimit="10"/>
    <path d="M164.5733643,300.0946655s5.4354248,7.0280151,5.8236694,11.2337036" fill="none" stroke="#3b424c" stroke-miterlimit="10"/>
    <path d="M163.8781433,304.5267029s-4.4794617-3.4904785-6.6157684-12.4184265" fill="none" stroke="#3b424c" stroke-miterlimit="10"/>
    <path d="M158.620285,236.4615784s-6.3413239,14.8827057-5.6942596,37.2714844" fill="none" stroke="#3b424c" stroke-miterlimit="10"/>
    <path d="M174.1668549,372.0223389c-.5692596,7.6693115.7715454,15.473175,3.8679657,22.5126648" fill="none" stroke="#3b424c" stroke-miterlimit="10"/>
    <line x1="143.1810608" y1="206.8276672" x2="143.1810608" y2="227.7376556" fill="none" stroke="#3b424c" stroke-miterlimit="10"/>
  </g>
</svg>