<?xml version="1.0" encoding="UTF-8"?>
<svg id="Layer_1" xmlns="http://www.w3.org/2000/svg" version="1.1" viewBox="0 0 280 440">
  <!-- Generator: Adobe Illustrator 30.0.0, SVG Export Plug-In . SVG Version: 2.1.1 Build 123)  -->
  <g id="chest">
    <path d="M181.6694183,120.5966568s-1.960022.6900024-3.6900024,4.3300171c-.3300171.6900024-.710022,1.4299927-1.1300049,2.1900024-1.4899902,2.6699753-3.5,5.599968-5.4899902,7.4199753-.4299927.4000244-.8599854.7399902-1.2800293,1.0200195-.2399902.1599731-.539978.2999878-.8800049.4299927-3.7599487,1.4199829-12.9299927,1.0800171-13.5799561,1.0800171-.7000122,0-12.1600342-7.3800049-14.3200073-7.3800049-2.1699829,0-13.6199951,7.3800049-14.3300171,7.3800049-.6499634,0-9.8200073.3399658-13.5800171-1.0800171-.3399658-.1300049-.6399536-.2700195-.8800049-.4299927-.4199829-.2800293-.8499756-.6199951-1.2799683-1.0200195-1.9899902-1.8200073-4-4.75-5.4899902-7.4199829-.4199829-.7600098-.7999878-1.5-1.1300049-2.1900024-1.7200317-3.6400146-3.6900024-4.3300171-3.6900024-4.3300171.5700073-.4299927,1.0999756-.8599854,1.5800171-1.289978,5.2699585-4.7399902,10.0099487-21.0900269,10.0099487-21.0900269,0,0,21.4300537.3300171,22.9300537.5300293,1.3800049.1799927,2.4699707.5899658,2.6300049.6499634.0099487.0100098.0199585.0100098.0199585.0100098,1.0900269,1.4000244,2.1600342,2.210022,3.210022,2.210022s2.1199951-.8099976,3.2000122-2.210022c0,0,.0099487,0,.0199585-.0100098.1600342-.0599976,1.25-.4699707,2.6300049-.6499634,1.5-.2000122,22.9299927-.5300293,22.9299927-.5300293,0,0,4.7400513,16.3500366,10.0200195,21.0900269.4799805.4299927,1,.8599854,1.5700073,1.2899857Z" fill="#8892a4"/>
  </g>
  <g id="calves">
    <path d="M102.169426,376.8866272h-.0100098c-.0100098-1.039978-.1300049-2.3899536-.4400024-4.1199951-1.0299683-5.8699951-4.5299683-23.0599976-5.1499634-41.2799683-.5300293-15.75,5.6199951-26.3900146,7.2999878-28.9899902l.0100098.0100098s1.4400024,8.1799927,2.3699951,28.5699463c.9299927,20.3800049-4.0800171,45.8099976-4.0800171,45.8099976Z" fill="#8892a4"/>
    <path d="M123.459404,340.7166443c-3.5299683,14.5200195-7.789978,24.3800049-6.9400024,37.1799927-1.0899658-3.1900024-2.5599976-6.9599609-3.3699951-9.4499512-1.4400024-4.4300537-1.2399902-36.3500366-.3099976-41.9000244.7700195-4.5800171,7.460022-11.4000244,11.4199829-17.1699829,0,0,2.7300415,16.8200073-.7999878,31.3399658Z" fill="#8892a4"/>
    <path d="M186.0193939,331.4866638c-.6199951,18.2199707-4.1199951,35.4099731-5.1499634,41.2799683-.3099976,1.7300415-.4299927,3.0800171-.4400024,4.1199951h-.0100098s-5.0100098-25.4299927-4.0800171-45.8099976c.9299927-20.3899536,2.3699951-28.5699463,2.3699951-28.5699463l.0100098-.0100098c1.6799927,2.5999756,7.8300171,13.2399902,7.2999878,28.9899902Z" fill="#8892a4"/>
    <path d="M169.4394379,368.4466858c-.8099976,2.4899902-2.2800293,6.2599487-3.3699951,9.4499512.8499756-12.7999878-3.4100342-22.6599731-6.9400024-37.1799927-3.5300293-14.5199585-.7900391-31.3399658-.7900391-31.3399658,3.9500122,5.7699585,10.6400146,12.5899658,11.4100342,17.1699829.9299927,5.5499878,1.1300049,37.4699707-.3099976,41.9000244Z" fill="#8892a4"/>
  </g>
  <g id="quadriceps">
    <path d="M139.1794281,230.6666718s.4799805,16.9899902-1.7700195,28.6200104c-2.2399902,11.6400146-8.5899658,21.75-8.5899658,21.75.039978,4.960022-1.0500488,11.3200073-1.0500488,11.3200073,0,0,.0599976.2999878.1300049.8200073,0,0-3.5299683-4.0100098-3.7399902-6.7900391,0,0-3.7000122,6.4800415-6.2799683,6.7900391-1.4100342.1799927-1.8600464-5.2200317-1.6500244-11.7299805h-.0499878s-5.4000244,9.5799561-5.6099854,9.9899902c-.1800537.3800049-1.5100098-4.2200317-3-9.7700195-.0200195.3599854-.5700073,8.289978-3.6900024,11.5200195-.3099976-4.3300171-5.9700317-26.6700439-4.5300293-53.3300171.039978-.710022.0800171-1.4199829.1300049-2.1099854,1.75-25.3800049,9.6099854-40.0900269,9.6099854-40.0900269,1.8200073,5.1199951,5.5,8.0800171,5.5,8.0800171,0,0,.460022.460022,1.2399902,1.2700195.3400269.3399658.75.7599487,1.210022,1.2299805,1.1699829,1.1900024,2.7000122,2.75,4.4099731,4.4799805,2.6800537,2.7200317,5.7900391,5.8699951,8.6700439,8.7700195,4.4599609,4.4899902,8.3699951,8.3599854,9.2399902,9.0700073l-.1799927.1099854v-.0000153Z" fill="#8892a4"/>
    <path d="M178.7093964,293.186676c-3.1900024-3.3000488-3.6799927-11.5300293-3.6799927-11.5300293-1.5,5.5499878-2.8300171,10.1600342-3.0100098,9.7800293-.2099609-.4100342-5.6099854-9.9899902-5.6099854-9.9899902h-.0499878c.210022,6.5099487-.2399902,11.9099731-1.6500244,11.7299805-2.5799561-.3099976-6.2799683-6.7900391-6.2799683-6.7900391-.210022,2.7800293-3.7399902,6.7900391-3.7399902,6.7900391.0699463-.5200195.1300049-.8200073.1300049-.8200073,0,0-1.0900269-6.3599854-1.0500488-11.3200073,0,0-6.3499756-10.1099854-8.5899658-21.75-2.25-11.6300049-1.7700195-28.6199951-1.7700195-28.6199951h-.3200073c.3699951-.1799927,4.5499878-4.3200073,9.3800049-9.1799927,2.8800049-2.9000244,5.9899902-6.0499878,8.6699829-8.7700195,1.710022-1.7299805,3.2400513-3.289978,4.4100342-4.4799805.4599609-.4700317.8699951-.8900146,1.2099609-1.2299805.7800293-.8099976,1.2400513-1.2700195,1.2400513-1.2700195,0,0,3.6799927-2.960022,5.5-8.0800171,0,0,7.8599854,14.710022,9.6099854,40.0900269.0499878.6900024.0899658,1.3999634.1300049,2.1099854,1.4400024,26.6599731-4.2200317,49-4.5300293,53.3300171Z" fill="#8892a4"/>
  </g>
  <g id="forearms">
    <path d="M95.4794235,165.0366669l-.3300171.4799805s.8200073,7.960022-1.7000122,11.1500244c-2.5099487,9.7700195-14.7999878,21.4799805-14.7999878,21.4799805-.5799561,1.9299927-5.6300049,10.0900269-5.6300049,10.0900269l-5.3299561-2.5-3.4000244-1.6000366-2.6599731-1.25c.789978-2.7799683,5.6900024-19.6299438,8.1900024-31.0199585,2.5099487-11.3800049,11.039978-15.3699951,11.039978-15.3699951.8900146,2.1399536,1.5,6.1300049,1.7299805,7.789978v.0100098c.0700073.460022.1000366.7399902.1000366.7399902.0099487-.0100098.0199585-.0200195.039978-.0299683,2.2199707-1.5800171,10.6699829-3.0500488,12.710022-4.2900391.6799927-.4199829,1.1199951-.9400024,1.4099731-1.4899902.0200195.25.2299805,4.3800049-1.3699951,5.8099976Z" fill="#8892a4"/>
    <path d="M220.9593964,202.8866425l-2.6599731,1.25-3.4000244,1.6000366-5.3299561,2.5s-5.0500488-8.1600342-5.6300049-10.0900269c0,0-12.2900391-11.7099609-14.8000488-21.4799805-2.5199585-3.1900024-1.6999512-11.1500244-1.6999512-11.1500244l-.3300171-.4799805c-1.6000366-1.4199829-1.3900146-5.539978-1.3699951-5.8099976.289978.5499878.7299805,1.0700073,1.4099731,1.4899902,2.0400391,1.2399902,10.4899902,2.710022,12.710022,4.2900391.0200195.0099487.0299683.0199585.039978.0299683,0,0,.0300293-.2799683.1000366-.7399902v-.0100098c.2299805-1.6599731.8399658-5.6500244,1.7299805-7.789978,0,0,8.5299683,3.9899902,11.039978,15.3699951,2.5,11.3900146,7.4000244,28.2399902,8.1900024,31.0199585Z" fill="#8892a4"/>
  </g>
  <g id="abs">
    <path d="M141.2994232,129.6866913v16.8099976c0,1.5-1.2200317,2.7199707-2.7200317,2.7199707h-13.4499512c-.7400513-.0299683-1.4100342-.3699951-1.8800049-.8900146l-.0100098-.0099487c-.3800049-.4500122-.6300049-1.0200195-.6400146-1.6700439-.0299683-1.1699829-.0200195-2.4299927.1199951-3,.2999878-1.2099609,4.25-6.5799561,4.25-6.5799561.710022,0,12.1600342-7.3800049,14.3300171-7.3800049Z" fill="#8892a4"/>
    <path d="M141.2994232,151.3566742v13.2600098c0,1.1799927-.9700317,2.1400146-2.1500244,2.1400146h-14.0199585c-1.1800537,0-2.1400146-.960022-2.1400146-2.1400146v-13.2600098c0-1.1799927.9599609-2.1400146,2.1400146-2.1400146h14.0199585c1.1799927,0,2.1500244.960022,2.1500244,2.1400146Z" fill="#8892a4"/>
    <path d="M141.2994232,186.4566498v32.8699951c0,1.1900024-.9700317,2.1500244-2.1500244,2.1500244h-.9899902c-.6400146-.4199829-1.3099976-.8499756-1.9500122-1.2700195-3.1099854-6.8599854-6.2099609-13.7199707-9.2999878-20.5799561-.5-1.0900269-.9899902-2.1799927-1.4799805-3.2700195-.8900146-1.9799805-1.4800415-4.0800171-1.7399902-6.2299805-.1400146-1.0900269-.2700195-2.1700439-.4000244-3.2600098-.1599731-1.2900391.8400269-2.4299927,2.1400146-2.4400024l13.7199707-.1199951c1.1799927,0,2.1500244.9599609,2.1500244,2.1499634Z" fill="#8892a4"/>
    <path d="M141.2994232,168.906662v13.25c0,1.1900024-.9700317,2.1500244-2.1500244,2.1500244h-14.0199585c-1.1800537,0-2.1400146-.960022-2.1400146-2.1500244v-13.25c0-.3800049.0999756-.7299805.2799683-1.039978.3600464-.6600342,1.0599976-1.1099854,1.8600464-1.1099854h14.0199585c1.1799927,0,2.1500244.9699707,2.1500244,2.1499634Z" fill="#8892a4"/>
    <path d="M159.9894257,146.6466522c-.0100098.6500244-.2600098,1.2200317-.6400146,1.6700439l-.0100098.0099487c-.4699707.5200195-1.1300049.8600464-1.8800049.8900146h-13.4500122c-1.5,0-2.7099609-1.2199707-2.7099609-2.7199707v-16.8099976c2.1599731,0,13.6199951,7.3800049,14.3200073,7.3800049,0,0,3.9500122,5.3699951,4.25,6.5799561.1499634.5700073.1499634,1.8300171.1199951,3Z" fill="#8892a4"/>
    <path d="M159.599411,168.906662v13.25c0,1.1900024-.960022,2.1500244-2.1400146,2.1500244h-14.0199585c-1.1800537,0-2.1400146-.960022-2.1400146-2.1500244v-13.25c0-1.1799927.9599609-2.1499634,2.1400146-2.1499634h14.0199585c.7999878,0,1.5.4499512,1.8600464,1.1099854.1799927.3099976.2799683.6599731.2799683,1.039978Z" fill="#8892a4"/>
    <path d="M159.2994232,186.866684c-.1300049,1.0899658-.2600098,2.1699829-.4000244,3.2600098-.2600098,2.1499634-.8499756,4.25-1.7399902,6.2299805-.4899902,1.0900269-.9799805,2.1799927-1.4799805,3.2700195-3.0900269,6.8599854-6.1900024,13.7199707-9.2900391,20.5799561-.6499634.4200439-1.3199463.8500366-1.9599609,1.2700195h-.9899902c-1.1800537,0-2.1400146-.960022-2.1400146-2.1500244v-32.8699951c0-1.1900024.9599609-2.1499634,2.1400146-2.1499634l13.7199707.1199951c1.2999878.0100098,2.2999878,1.1499634,2.1400146,2.4400024Z" fill="#8892a4"/>
    <rect x="141.2994232" y="149.2166595" width="18.2999878" height="17.5400391" rx="2.1400146" ry="2.1400146" fill="#8892a4"/>
  </g>
  <g id="oblique">
    <path d="M125.4294357,196.3566742c.4899902,1.0900269.9799805,2.1799927,1.4799805,3.2700195-7.7600098-2.2400513-12.4199829-20.1000366-15.3099976-26.0500488-2.8800049-5.9499512-2.9799805-11.3499756-2.9799805-11.3499756,0,0,2.6799927.5900269,2.8999634-.4199829.210022-1.0100098-.9499512-4.25-.9499512-4.25v-.0400391c.8099976.1100464,1.4199829-.0199585,1.7299805-.2599487.0100098-.0100098.0299683-.0300293.0499878-.0500488.0200195-.0099487.0300293-.0199585.039978-.039978.1100464-.1099854.1500244-.25.1199951-.4000244-.1899414-.9299927-1.9399414-4.9199829-1.9399414-4.9199829l.0199585-.1099854c1.5.210022,4.2800293.0499878,4.5900269.0999756.3900146.0499878-2.0499878-5.4599609-3.7999878-7.539978.9299927.8499756,5.5799561.8499756,5.5799561.8499756,0,0-1.0799561-4.1799927-2.0899658-5.8899536-1.0100098-1.7000122-1.4800415-3.2700195-1.4800415-3.2700195,3.7600098,1.4199829,12.9300537,1.0800171,13.5800171,1.0800171,0,0-3.9500122,5.3699951-4.25,6.5799561-.1400146.5700073-.1499634,1.8300171-.1199951,3,.0100098.6500244.2600098,1.2200317.6400146,1.6700439l.0100098.0099487c.4699707.5200195,1.1399536.8600464,1.8800049.8900146-1.1800537,0-2.1400146.960022-2.1400146,2.1400146v13.2600098c0,1.1799927.9599609,2.1400146,2.1400146,2.1400146-.8000488,0-1.5.4499512-1.8600464,1.1099854-.1799927.3099976-.2799683.6599731-.2799683,1.039978v13.25c0,1.1900024.9599609,2.1500244,2.1400146,2.1500244h14.0199661l-13.7199707.1199951c-1.2999878.0100098-2.2999878,1.1499634-2.1400146,2.4400024.1300049,1.0899658.2600098,2.1699829.4000244,3.2600098.2599487,2.1499634.8499756,4.25,1.7399826,6.2299805Z" fill="#8892a4"/>
    <path d="M173.9694061,162.2266693s-.0999756,5.4000244-2.9799805,11.3499756c-2.8900146,5.9500122-7.5499878,23.8099976-15.3099976,26.0500488.5-1.0900269.9899902-2.1799927,1.4799805-3.2700195.8900146-1.9799805,1.4799805-4.0800171,1.7399902-6.2299805.1400146-1.0900269.2700195-2.1700439.4000244-3.2600098.1599731-1.2900391-.8400269-2.4299927-2.1400146-2.4400024l-13.7199707-.1199951h14.0199585c1.1799927,0,2.1400146-.960022,2.1400146-2.1500244v-13.25c0-.3800049-.0999756-.7299805-.2799683-1.039978-.3600464-.6600342-1.0600586-1.1099854-1.8600464-1.1099854,1.1799927,0,2.1400146-.960022,2.1400146-2.1400146v-13.2600098c0-1.1799927-.960022-2.1400146-2.1400146-2.1400146.75-.0299683,1.4100342-.3699951,1.8800049-.8900146l.0100098-.0099487c.3800049-.4500122.6300049-1.0200195.6400146-1.6700439.0299683-1.1699829.0299683-2.4299927-.1199951-3-.2999878-1.2099609-4.25-6.5799561-4.25-6.5799561.6499634,0,9.8200073.3399658,13.5799561-1.0800171,0,0-.4699707,1.5700073-1.4799805,3.2700195-1.0100098,1.7099609-2.0899658,5.8899536-2.0899658,5.8899536,0,0,4.6499634,0,5.5799561-.8499756-1.75,2.0800171-4.1900024,7.5899658-3.7999878,7.539978.3099976-.0499878,3.0900269.1100464,4.5900269-.0999756l.0199585.1099854s-1.75,3.9899902-1.9400024,4.9199829c-.0299683.1400146,0,.2600098.0900269.3699951.2399902.3200073.9199829.5,1.8499756.3800049v.0400391s-1.1599731,3.2399902-.9499512,4.25c.0199585.1199951.0799561.2099609.1699829.289978.6300049.5900269,2.7299805.1300049,2.7299805.1300049Z" fill="#8892a4"/>
  </g>
  <g id="lats">
    <path d="M111.3794479,144.2966766c1.75,2.0800171,4.1900024,7.5899658,3.7999878,7.539978-.3099976-.0499878-3.0900269.1100464-4.5900269-.0999756l-.0199585.1099854s1.75,3.9899902,1.9399414,4.9199829c.0300293.1500244-.0099487.2900391-.1199951.4000244-.0099487.0200195-.0199585.0300293-.039978.039978-.0200195.0200195-.039978.0400391-.0499878.0500488-.3099976.2399902-.9199829.3699951-1.7299805.2599487v.0400391s1.1599731,3.2399902.9499512,4.25c-.2199707,1.0100098-2.8999634.4199829-2.8999634.4199829-2.2700195-3.5999756-1.5499878-6.1799927-1.5499878-6.1799927-1.0300293-2.3699951-1.2200317-7.2000122-1.2200317-7.2000122l-1.9699707-3.1699829c.1099854-.2900391.2199707-.5900269.3199463-.9000244.8400269-2.5299683,1.2700195-5.5999756,1.4800415-8.4699707.3499756-4.8900146.0499878-9.1900024.0499878-9.1900024h.0100098c1.4899902,2.6699829,3.5,5.5999756,5.4899902,7.4199829.4299927.4000244.8599854.7399902,1.2799683,1.0200195.2400513.1599731.5400391.2999878.8800049.4299927,0,0,.4700317,1.5700073,1.4800415,3.2700195,1.0100098,1.7099609,2.0899658,5.8899536,2.0899658,5.8899536,0,0-4.6499634,0-5.5799561-.8499756Z" fill="#8892a4"/>
    <path d="M176.7394257,148.8466644s-.1900024,4.8300171-1.2200317,7.2000122c0,0,.7200317,2.5800171-1.5499878,6.1799927,0,0-2.0999756.460022-2.7299805-.1300049-.0900269-.0800171-.1500244-.1699829-.1699829-.289978-.210022-1.0100098.9499512-4.25.9499512-4.25v-.0400391c-.9299927.1199951-1.6099854-.0599976-1.8499756-.3800049-.0900269-.1099854-.1199951-.2299805-.0900269-.3699951.1900024-.9299927,1.9400024-4.9199829,1.9400024-4.9199829l-.0199585-.1099854c-1.5.210022-4.2800293.0499878-4.5900269.0999756-.3900146.0499878,2.0499878-5.4599609,3.7999878-7.539978-.9299927.8499756-5.5799561.8499756-5.5799561.8499756,0,0,1.0799561-4.1799927,2.0899658-5.8899536,1.0100098-1.7000122,1.4799805-3.2700195,1.4799805-3.2700195.3400269-.1300049.6400146-.2700195.8800049-.4299927.4200439-.2800293.8500366-.6199951,1.2800293-1.0200195,1.9899902-1.8200073,4-4.75,5.4899902-7.4199829h.0100098s-.2999878,4.2999878.0499878,9.1900024c.210022,2.8699951.6400146,5.9400024,1.4799805,8.4699707.1000366.3099976.210022.6099854.3200073.9000244l-1.9699707,3.1699829Z" fill="#8892a4"/>
  </g>
  <g id="neck">
    <path d="M141.2994232,101.6166763c-1.0499878,0-2.1199951-.8099976-3.210022-2.210022,0,0-.0100098,0-.0199585-.0100098-1.8700562-2.4199829-3.8000488-6.6099854-5.7700195-11.4599609-3.1000366-7.6799927-2.7000122-8.8800049-2.7000122-8.8800049v-11.9899902l.0100098-.0100098c.75,1.2600098,1.6400146,2.4699707,2.6900024,3.5499878,0,0,0,.0100098.0100098.0200195.1599731.4499512,2.8200073,7.6699829,4.8299561,11.2299805,2.0700073,3.6799927,4.1600342,19.7600098,4.1600342,19.7600098Z" fill="#8892a4"/>
    <path d="M150.2794037,70.6266861c-.1599731.4499512-2.8200073,7.6699829-4.8300171,11.2299805-2.0699463,3.6799927-4.1499634,19.7600098-4.1499634,19.7600098,0,0-2.0900269-16.0800171-4.1600342-19.7600098-2.0099487-3.5599976-4.6699829-10.7800293-4.8299561-11.2299805,2.25,2.2999878,5.1799927,3.9599609,8.9899902,3.9599609s6.7399902-1.6599731,8.9799805-3.9599609Z" fill="#8892a4"/>
    <path d="M150.2894135,87.9366837c-1.9699707,4.8499756-3.9000244,9.039978-5.7700195,11.4599609-.0100098.0100098-.0199585.0100098-.0199585.0100098-1.0800171,1.4000244-2.1500244,2.210022-3.2000122,2.210022,0,0,2.0800171-16.0800171,4.1499634-19.7600098,2.0100098-3.5599976,4.6700439-10.7800293,4.8300171-11.2299805.0100098-.0100098.0100098-.0200195.0100098-.0200195,1.0499878-1.0800171,1.9400024-2.289978,2.6900024-3.5499878l.0100098.0100098v11.9899902s.3999634,1.2000122-2.7000122,8.8800049Z" fill="#8892a4"/>
  </g>
  <g id="traps">
    <path d="M170.0793915,98.2166519s-21.4299927.3300171-22.9299927.5300293c-1.3800049.1799927-2.4699707.5899658-2.6300049.6499634,1.8699951-2.4199829,3.8000488-6.6099854,5.7700195-11.4599609,3.0999756-7.6799927,2.7000122-8.8800049,2.7000122-8.8800049v-.5300293s9.9500122,6.3400269,18.9599609,14.0100098c0,0-2.5999756,1.210022-1.8699951,5.6799927Z" fill="#8892a4"/>
    <path d="M138.0694427,99.3966446c-.1600342-.0599976-1.25-.4699707-2.6300049-.6499634-1.5-.2000122-22.9300537-.5300293-22.9300537-.5300293.7300415-4.4699707-1.8699951-5.6799927-1.8699951-5.6799927,9.0100098-7.6699829,18.960022-14.0100098,18.960022-14.0100098v.5300293s-.4000244,1.2000122,2.7000122,8.8800049c1.9699707,4.8499756,3.8999634,9.039978,5.7700195,11.4599609Z" fill="#8892a4"/>
  </g>
  <g id="biceps">
    <path d="M100.0394211,121.2366714s-1.7600098,20.1199875-3.1199951,26.3799973c-1.3300171,6.0700073-13.4400024,16.7299805-14.1900024,17.3900146-.0200195.0099487-.0300293.0199585-.039978.0299683,0,0-.0300293-.2799683-.1000366-.7399902v-.0100098c-.2299805-1.6599731-.8399658-5.6500244-1.7299805-7.789978-1.1300049-2.7300415-2.960022-20.9200439,5.0100098-27.710022,0,0,8.4599609-3.5299683,14.1699829-7.5499802Z" fill="#8892a4"/>
    <path d="M201.7294159,156.4966888c-.8900146,2.1399536-1.5,6.1300049-1.7299805,7.789978v.0100098c-.0700073.460022-.1000366.7399902-.1000366.7399902-.0100098-.0100098-.0199585-.0200195-.039978-.0299683-.75-.6600342-12.8599854-11.3200073-14.1900024-17.3900146-1.3599854-6.2600098-3.1199951-26.3800049-3.1199951-26.3800049,5.7099609,4.0200195,14.1699829,7.5499878,14.1699829,7.5499878,7.9700317,6.789978,6.1400146,24.9799805,5.0100098,27.710022Z" fill="#8892a4"/>
  </g>
  <g id="shoulders">
    <path d="M112.5093918,98.2166519s-4.7399902,16.3500366-10.0099487,21.0900269c-.4800415.4299927-1.0100098.8599854-1.5800171,1.289978-.2800293.210022-.5800171.4299927-.8800049.6400146-5.710022,4.0200195-14.1699829,7.5499802-14.1699829,7.5499802-1.4700317-4.2700195-2.7999878-17.8200073,4.539978-26.9000244,7.3499756-9.0799561,20.2299805-9.3499756,20.2299805-9.3499756,0,0,2.6000366,1.210022,1.8699951,5.6800003Z" fill="#8892a4"/>
    <path d="M196.7194061,128.7866669s-8.460022-3.5299683-14.1699829-7.5499878c-.2999878-.2200317-.6000366-.4299927-.8800049-.6400146-.5700073-.4299927-1.0900269-.8599854-1.5700073-1.289978-5.2799683-4.7399902-10.0200195-21.0900269-10.0200195-21.0900269-.7299805-4.4699707,1.8699951-5.6799927,1.8699951-5.6799927,0,0,12.8800049.2700195,20.2300415,9.3499756,7.3399658,9.0800171,6.0100098,22.6300049,4.539978,26.9000244Z" fill="#8892a4"/>
  </g>
  <g id="front_base_body">
    <g id="Layer_2">
      <path d="M52.1794205,212.5066681c-.3699989.8099976-.7999992,1.4799957-1.2799988,2.0399933" fill="#8892a4"/>
      <path d="M63.8994217,209.4366608c-5.7200012,4.4100037-9.9199982,5.1199951-11.8400002,5.1699982" fill="#8892a4"/>
      <polyline points="53.8494186 221.4466705 52.7494202 223.1166687 52.7394218 223.136673" fill="#8892a4"/>
      <polyline points="58.5694199 223.386673 57.7694206 224.7766724 57.7694206 224.7866669" fill="#8892a4"/>
      <line x1="52.7494202" y1="223.1166687" x2="52.7394218" y2="223.136673" fill="none"/>
      <polyline points="62.6994209 225.206665 62.2994194 226.2866669 62.2894211 226.3266602 62.2894211 226.3366699" fill="#8892a4"/>
      <line x1="57.7694206" y1="224.7866669" x2="57.7694206" y2="224.7766724" fill="none"/>
      <path d="M72.3293991,214.616684c-.8800049,4.5100098-4.8200073,10.1499634-5.4099731,10.8399658-.460022.5400391-2.4400024,8.0800171-3.2700195,11.3099976-.1900024.7400513-.8699951,1.2600098-1.6199951,1.2600098-.0800171,0-.1599731-.0100098-.2399902-.0199585-.960022-.1300049-1.5999756-1.0400391-1.4199829-1.9900513l1.9199829-9.6799927-4.1300049,11.3300171c-.3200073.8800049-1.1599731,1.4299927-2.039978,1.4299927-.2600098,0-.5200195-.0499878-.7800293-.1499634-1.0899658-.4100342-1.6599731-1.6000366-1.2999878-2.7000122l3.7299805-11.460022-7.1399536,12.4299927c-.3700562.6500244-1.0400391,1-1.7300415,1-.3699951,0-.75-.1099854-1.0899658-.3300171-.8099976-.539978-1.1100464-1.5899658-.7000122-2.4799805l5.6300049-12.2700195-7.2000122,10.9700317c-.3599854.539978-.9400024.8300171-1.539978.8300171-.3600464,0-.7200317-.1000366-1.0400391-.3200073-.789978-.5400391-1.039978-1.5900269-.5700073-2.4199829,2.210022-3.960022,8.1600342-14.6000366,8.5100098-15.2400513.4299927-.789978,1.1600342-2.3399658,1.1600342-2.3399658v-.0100098c-.7600098.0200195-1.1600342-.0599976-1.1600342-.0599976-3.1699829,3.7399902-8.1599731,2.1900024-8.0599976,1.4899902.1199951-.7999878,1.25-.9099731,3.4199829-2.3900146,2.1600342-1.4799805,3.5300293-4.2099609,4.1000366-5.2399902.5700073-1.0200195,2.1599731-1.7000122,4.6599731-2.1599731,2.5100098-.4500122,6.6100464-3.3600464,6.6100464-3.3600464l2.6599731,1.25,3.4000244,1.6000366,5.3299561,2.5s.2000122,1.8699951-.6900024,6.3800049Z" fill="#8892a4"/>
      <polyline points="62.2994194 226.2866669 62.2894211 226.3266602 62.2894211 226.3366699" fill="#8892a4"/>
      <path d="M110.5694199,308.6266785c-3.6699982-1.0499878-5.4499969-3.8299866-6.2799988-6.75" fill="#8892a4"/>
      <path d="M126.3293991,305.8466492c-.5099487,1.1099854-1.2299805,2.2999878-2.0700073,3.5300293-3.9599609,5.7699585-10.6499634,12.5899658-11.4199829,17.1699829-.9299927,5.5499878-1.1300049,37.4699707.3099976,41.9000244.8099976,2.4899902,2.2800293,6.2599487,3.3699951,9.4499512.8400269,2.4700317,1.4500122,4.5800171,1.3600464,5.4800415-.2000122,2.0599976-1.3300171,1.75-1.3300171,2.9799805,0,1.2399902,1.6400146,4.2199707,2.0599976,8.4400024.4099731,4.2299805-3.2000122,3.8099976-6.4899902,8.4500122-3.2999878,4.6300049-5.5599976,8.9500122-8.6500244,11.2600098-3.0899658,2.2999878-7.4099731,1.0899658-7.4099731,0,0-1.1000366-.3099976-.9700317-2.3699951-.25-2.0599976.7199707-8.2400513-.1000366-7.210022-3.2900391,1.0299683-3.1900024,7.7299805-8.1400146,8.960022-11.4299927,1.2399902-3.289978,6.4899902-11.3300171,6.3800049-11.9400024-.1000366-.6199951-.8200073-1.6499634-1.4000244-2.5800171-.5900269-.9199829,1.0899658-4.3199463,1.2000122-4.6300049.0700073-.2199707.5999756-1,.539978-3.5h.0100098s5.0100098-25.4299927,4.0800171-45.8099976c-.9299927-20.3899536-2.3699951-28.5699463-2.3699951-28.5699463l-.0100098-.0100098c.2699585-.4100342.4199829-.6199951.4199829-.6199951-1.2000122-4.2000122-.4099731-8.6900024-.4099731-8.6900024,3.1199951-3.2300415,3.6699829-11.1600342,3.6900024-11.5200195,1.4899902,5.5499878,2.8199463,10.1500244,3,9.7700195.2099609-.4100342,5.6099854-9.9899902,5.6099854-9.9899902h.0499878c-.210022,6.5099487.2399902,11.9099731,1.6500244,11.7299805,2.5799561-.3099976,6.2799683-6.7900391,6.2799683-6.7900391.210022,2.7800293,3.7399902,6.7900391,3.7399902,6.7900391.2800369,2.0599976.7300491,7.6599731-1.5700073,12.6699829Z" fill="#8892a4"/>
      <path d="M99.4794235,237.7466736c-.0899963.7200012-.1299973,1.4199982-.1299973,2.1100006" fill="#8892a4"/>
      <path d="M119.3254318,296.3764648s2.2649918,8.3392944-3.6034012,12.2515564" fill="#8892a4"/>
      <path d="M130.1394196,221.4766693c-.0066681.0066681-.0133362.0099792-.0200043.0099945" fill="#8892a4"/>
      <path d="M123.2694168,148.3266602h-.0199966" fill="#8892a4"/>
      <polyline points="111.5394211 162.3966675 122.989418 178.7566681 123.0394211 178.8266602" fill="#8892a4"/>
      <path d="M159.6294403,53.8366508c-.5800171,2.5-1.4100342,3.0800171-2.75,2.9100342,0,0-.9400024,5.4400024-3.9000244,10.3100014-.75,1.2600098-1.6400146,2.4699707-2.6900024,3.5499878,0,0,0,.0100098-.0100098.0200195-2.2399902,2.2999878-5.1699829,3.9599609-8.9799805,3.9599609s-6.7399902-1.6599731-8.9899902-3.9599609c-.0100098-.0100098-.0100098-.0200195-.0100098-.0200195-1.0499878-1.0800171-1.9400024-2.289978-2.6900024-3.5499878-2.960022-4.8699951-3.9000244-10.3099976-3.9000244-10.3099976-1.3399658.1699829-2.1699829-.4100342-2.75-2.9100342-.5899658-2.5-2-3.8399658-1.6699829-6.3399658s4.1699829-1.4100342,4.1699829-1.4100342c-.4899902-3.9599609,0-11.8699951,0-11.8699951,0-12.8699951,15.8400269-14.1900024,15.8400269-14.1900024,0,0,15.8300171,1.3200073,15.8300171,14.1900024,0,0,.4899902,7.9100342,0,11.8699951,0,0,3.8399658-1.0899658,4.1699829,1.4100342s-1.0800171,3.8399658-1.6699829,6.339962Z" fill="#8892a4"/>
      <path d="M185.099411,156.0466766c-.1099854-1.1900024-4.0499878-4.1600342-6.3900146-10.3699951-.1099854-.2900391-.2199707-.5900269-.3200073-.9000244-.8399658-2.5299683-1.2699585-5.5999756-1.4799805-8.4699707-.3499756-4.8900146-.0499878-9.1900024-.0499878-9.1900024h-.0100098c.4199829-.7600098.7999878-1.5,1.1300049-2.1900024,1.7299805-3.6400146,3.6900024-4.3300171,3.6900024-4.3300171.2799683.210022.5800171.4199829.8800049.6400146,0,0,1.7600098,20.1199951,3.1199951,26.3800049.2999878,1.5499878-.5700073,8.4299927-.5700073,8.4299927Z" fill="#8892a4"/>
      <path d="M231.6894226,214.5466614c-.4799957-.5599976-.9100037-1.2299957-1.2799988-2.0399933" fill="#8892a4"/>
      <path d="M230.5294189,214.6066742c-1.9199982-.0500031-6.1199951-.7599945-11.8399963-5.1699982" fill="#8892a4"/>
      <path d="M239.6294403,234.616684c-.3200073.2199707-.6800537.3200073-1.0400391.3200073-.5899658,0-1.1799927-.2900391-1.539978-.8300171l-7.2000122-10.9700317,5.6300049,12.2700195c.4099731.8900146.1099854,1.9400024-.7000122,2.4799805-.3399658.2200317-.7199707.3300171-1.0899658.3300171-.6900024,0-1.3600464-.3499756-1.7300415-1l-7.1300049-12.4099731,3.7200317,11.4400024c.3599854,1.0999756-.210022,2.289978-1.2999878,2.7000122-.2600098.0999756-.5200195.1499634-.7800293.1499634-.8800049,0-1.7199707-.5499878-2.039978-1.4299927l-4.1300049-11.3300171,1.9199829,9.6799927c.1799927.9500122-.460022,1.8600464-1.4199829,1.9900513-.0800171.0099487-.1600342.0199585-.2399902.0199585-.75,0-1.4200439-.5199585-1.6199951-1.2600098-.8300171-3.2299805-2.8099976-10.7699585-3.2700195-11.3099976-.5900269-.6900024-4.5300293-6.3299561-5.4100342-10.8399658-.8899536-4.5100098-.6899414-6.3800049-.6899414-6.3800049l5.3299561-2.5,3.4000244-1.6000366,2.6599731-1.25s4.1000366,2.9100342,6.6100464,3.3600464c2.5.4599609,4.0999756,1.1399536,4.6599731,2.1599731.5700073,1.0300293,1.9400024,3.7600098,4.0999756,5.2399902,2.1700439,1.4800415,3.3000488,1.5900269,3.4200439,2.3900146.0999756.7000122-4.8900146,2.25-8.0599976-1.4899902,0,0-.4000244.0800171-1.1600342.0599976v.0100098s.7299805,1.5499878,1.1600342,2.3399658c.3499756.6400146,6.2999878,11.2800293,8.5099487,15.2400513.4700317.8299561.2200317,1.8799438-.5699463,2.4199829Z" fill="#8892a4"/>
      <polyline points="228.7394257 221.4466705 229.8394165 223.1166687 229.8494263 223.136673" fill="#8892a4"/>
      <polyline points="224.0194244 223.386673 224.8194275 224.7766724 224.829422 224.8066711" fill="#8892a4"/>
      <line x1="229.8494263" y1="223.136673" x2="229.8394165" y2="223.1166687" fill="none"/>
      <polyline points="219.8894196 225.206665 220.2894135 226.2866669 220.2994232 226.3266602 220.2994232 226.3366699" fill="#8892a4"/>
      <line x1="224.8194275" y1="224.7766724" x2="224.829422" y2="224.8066711" fill="none"/>
      <polyline points="220.2994232 226.3366699 220.2994232 226.3266602 220.2894135 226.2866669" fill="#8892a4"/>
      <path d="M199.8594208,165.0066986c-2.2200317-1.5800171-10.6699829-3.0500488-12.710022-4.2900391-.6799927-.4199829-1.1199951-.9400024-1.4099731-1.4899902v-.0100098c-.5900269-1.0999756-.5599976-2.3399658-.6400146-3.1699829,0,0,.8699951-6.8800049.5700073-8.4299927,1.3300171,6.0700073,13.4400024,16.7299805,14.1900024,17.3900146Z" fill="#8892a4"/>
      <path d="M174.4894257,191.9766693c0,2.1099854-.3900146,4.0100098-.9899902,5.6799927-1.8200073,5.1199951-5.5,8.0800171-5.5,8.0800171,0,0-.460022.460022-1.2400513,1.2700195-.3399658.3399658-.75.7599487-1.2099609,1.2299805-1.1699829,1.1900024-2.7000122,2.75-4.4100342,4.4799805-2.6799927,2.7200317-5.789978,5.8699951-8.6699829,8.7700195-4.8300171,4.8599854-9.0100098,9-9.3800049,9.1799927-.9299927.4400024-1.789978,0-1.789978,0,0,0-.8699951.4400024-1.7900391,0-.0299683-.0100098-.0799561-.0499878-.1499634-.1099854-.8699951-.710022-4.7800293-4.5800171-9.2399902-9.0700073-2.8800049-2.9000244-5.9899902-6.0499878-8.6700439-8.7700195-1.7099609-1.7299805-3.2399902-3.289978-4.4099731-4.4799805-.460022-.4700317-.8699951-.8900146-1.210022-1.2299805-.7799683-.8099976-1.2399902-1.2700195-1.2399902-1.2700195,0,0-3.6799927-2.960022-5.5-8.0800171-.5999756-1.6699829-.9899902-3.5700073-.9899902-5.6799927,0-8.539978,3.5-18.4000244,3.5-18.4000244,2.8900146,5.9500122,7.5499878,23.8099976,15.3099976,26.0500488,3.0900269,6.8599854,6.1900024,13.7199707,9.2999878,20.5799561.6400146.4200439,1.3099976.8500366,1.9500122,1.2700195h.9899902c1.1799927,0,2.1500244-.960022,2.1500244-2.1500244,0,1.1900024.9599609,2.1500244,2.1400146,2.1500244h.9899902c.6400146-.4199829,1.3099976-.8499756,1.9599609-1.2700195,3.1000366-6.8599854,6.2000122-13.7199707,9.2900391-20.5799561,7.7600098-2.2400513,12.4199829-20.1000366,15.3099976-26.0500488,0,0,3.5,9.8600464,3.5,18.4000244Z" fill="#8892a4"/>
      <path d="M178.2994232,301.8766785c-.8300018,2.9200134-2.6100006,5.7000122-6.2799988,6.75" fill="#8892a4"/>
      <path d="M188.8993988,414.2566833c-2.0599976-.7200317-2.3699951-.8500366-2.3699951.25,0,1.0899658-4.3200073,2.2999878-7.4099731,0-3.0900269-2.3099976-5.3500366-6.6300049-8.6500244-11.2600098-3.289978-4.6400146-6.8999634-4.2200317-6.4799805-8.4500122.4099731-4.2200317,2.0499878-7.2000122,2.0499878-8.4400024,0-1.2299805-1.1300049-.9199829-1.3300171-2.9799805-.0899658-.9000244.5200195-3.0100098,1.3600464-5.4800415,1.0899658-3.1900024,2.5599976-6.9599609,3.3699951-9.4499512,1.4400024-4.4300537,1.2399902-36.3500366.3099976-41.9000244-.7700195-4.5800171-7.460022-11.4000244-11.4100342-17.1699829-.8499756-1.2300415-1.5700073-2.4200439-2.0800171-3.5300293-2.2999878-5.0100098-1.8499756-10.6099854-1.5699463-12.6699829,0,0,3.5299683-4.0100098,3.7399902-6.7900391,0,0,3.7000122,6.4800415,6.2799683,6.7900391,1.4100342.1799927,1.8600464-5.2200317,1.6500244-11.7299805h.0499878s5.4000244,9.5799561,5.6099854,9.9899902c.1799927.3800049,1.5100098-4.2300415,3.0100098-9.7800293,0,0,.4899902,8.2299805,3.6799927,11.5300293,0,0,.7900391,4.4899902-.4099731,8.6900024,0,0,.1499634.2099609.4199829.6199951l-.0100098.0100098s-1.4400024,8.1799927-2.3699951,28.5699463c-.9299927,20.3800049,4.0800171,45.8099976,4.0800171,45.8099976h.0100098c-.0599976,2.5.4699707,3.2800293.539978,3.5.1099854.3100586,1.789978,3.710022,1.2000122,4.6300049-.5800171.9300537-1.2999878,1.960022-1.4000244,2.5800171-.1099854.6099854,5.1400146,8.6500244,6.3800049,11.9400024s7.9299927,8.2399902,8.960022,11.4299927c1.0299683,3.1900024-5.1500244,4.0100098-7.210022,3.2900391Z" fill="#8892a4"/>
      <path d="M183.2394257,239.8566742c0-.6900024-.0399933-1.3899994-.1300049-2.1100006" fill="#8892a4"/>
      <path d="M163.2637634,296.3764648s-2.2649994,8.3392944,3.6033936,12.2515564" fill="#8892a4"/>
      <path d="M152.4694214,221.4866638c-.0066681-.0000153-.0133209-.0033264-.0200043-.0099945" fill="#8892a4"/>
      <path d="M159.3394165,148.3266602h-.0200043" fill="#8892a4"/>
      <path d="M97.4894333,156.0466766c-.0800171.8300171-.0499878,2.0700073-.6400146,3.1699829v.0100098c-.289978.5499878-.7299805,1.0700073-1.4099731,1.4899902-2.0400391,1.2399902-10.4900513,2.710022-12.710022,4.2900391.75-.6600342,12.8599854-11.3200073,14.1900024-17.3900146-.2999878,1.5499878.5700073,8.4299927.5700073,8.4299927Z" fill="#8892a4"/>
      <path d="M105.6794357,136.3066864c-.210022,2.8699951-.6400146,5.9400024-1.4800415,8.4699707-.0999756.3099976-.2099609.6099854-.3199463.9000244-2.3300171,6.2099609-6.2800293,9.1799927-6.3900146,10.3699951,0,0-.8699951-6.8800049-.5700073-8.4299927,1.3599854-6.2600098,3.1199951-26.3800049,3.1199951-26.3800049.2999878-.210022.5999756-.4299927.8800049-.6400146,0,0,1.9699707.6900024,3.6900024,4.3300171.3300171.6900024.710022,1.4299927,1.1300049,2.1900024h-.0100098s.2999878,4.2999878-.0499878,9.1900024Z" fill="#8892a4"/>
      <line x1="159.5994263" y1="178.7566681" x2="159.5494232" y2="178.8266602" fill="none"/>
    </g>
    <path d="M141.2945862,20.0281334s-15.8345032,1.3195419-15.8345032,14.1850777c0,0-.4948273,7.9172516,0,11.8758812,0,0-3.8373337-1.0890923-4.1706619,1.4109077-.3333359,2.5,1.0833359,3.8333321,1.6666641,6.3333321.5833359,2.5,1.4166641,3.0833321,2.75,2.9166679,0,0,3.0936737,17.8333359,15.588501,17.8333359" fill="none" stroke="#3b424c" stroke-miterlimit="10"/>
    <path d="M129.6032867,67.0631638v11.9933014s-.4078827,1.2016068,2.6970825,8.8785248,6.1384583,13.6849442,8.9942169,13.6849442c0,0-2.0841675-16.08815-4.153595-19.7597198s-4.8406219-11.2505188-4.8406219-11.2505188" fill="none" stroke="#3b424c" stroke-miterlimit="10"/>
    <path d="M129.6032867,78.5224152s-9.9523239,6.3418045-18.9643555,14.0187225c0,0,2.6034775,1.2016068,1.8691635,5.6742477,0,0,21.4314041.3337784,22.9320145.53405s2.646759.6586151,2.646759.6586151" fill="none" stroke="#3b424c" stroke-miterlimit="10"/>
    <path d="M110.6389236,92.5411377s-12.883873.2670212-20.2270126,9.3458176-6.0080261,22.6302261-4.5393982,26.9025955c0,0,11.3484879-4.7396622,16.6222-9.4793243s10.0133743-21.094841,10.0133743-21.094841" fill="none" stroke="#3b424c" stroke-miterlimit="10"/>
    <path d="M126.9662781,137.0706329s-3.9461365,5.3627014-4.2496796,6.576889c-.1421585.5686493-.1511688,1.8252563-.1205521,3.0007172.0371704,1.4275055,1.2055588,2.5643311,2.6335526,2.5643311h13.35289c1.4978638,0,2.7121124-1.2142487,2.7121124-2.7121124v-16.8161926c-2.164505,0-13.6200333,7.3863525-14.3283157,7.3863525s-11.5348511.4047241-14.4581833-1.517746-6.1831284-6.9816132-7.9032364-10.6242065c-1.720108-3.6425858-3.6821136-4.3347855-3.6821136-4.3347855" fill="none" stroke="#3b424c" stroke-miterlimit="10"/>
    <rect x="122.9863052" y="149.2125702" width="18.3082809" height="17.5478058" rx="2.148056" ry="2.148056" fill="none" stroke="#3b424c" stroke-miterlimit="10"/>
    <rect x="122.9863052" y="166.7603912" width="18.3082809" height="17.5478058" rx="2.148056" ry="2.148056" fill="none" stroke="#3b424c" stroke-miterlimit="10"/>
    <path d="M139.1465302,221.4742279h-.984314l-1.9576874-1.2640533c-3.590744-7.9525909-7.181427-15.9051819-10.7721558-23.8577728-.8919067-1.9753571-1.4803925-4.0740814-1.7455597-6.2251892-.1339035-1.0862427-.267807-2.1724854-.4017029-3.258728-.1592102-1.2915649.8422012-2.4336548,2.1434937-2.4446259l13.717926-.1156464c1.1863403,0,2.1480713.961731,2.1480713,2.1480713v32.869873c0,1.1863403-.961731,2.1480713-2.1480713,2.1480713Z" fill="none" stroke="#3b424c" stroke-miterlimit="10"/>
    <path d="M100.0416336,121.2356644s-1.7598267,20.1237717-3.1259003,26.3849564-14.2299576,17.4174652-14.2299576,17.4174652c0,0-.6830368-5.8058167-1.821434-8.5379791s-2.9613724-20.9277191,5.0081711-27.710556" fill="none" stroke="#3b424c" stroke-miterlimit="10"/>
    <path d="M105.7325439,127.1149826s.7457199,10.8292618-1.5310745,17.6596451-6.6026993,10.0178833-6.7165375,11.2701263,0,3.4151917-2.0491104,4.6674194c-2.0491104,1.252243-10.5870895,2.7321472-12.7500381,4.3259125" fill="none" stroke="#3b424c" stroke-miterlimit="10"/>
    <path d="M97.4849319,156.044754s-.8672028-6.8818054-.5691986-8.4241333" fill="none" stroke="#3b424c" stroke-miterlimit="10"/>
    <path d="M80.8643417,156.5001221s-8.5379715,3.9843903-11.0424423,15.3683472c-2.5044708,11.3839722-7.3995781,28.2351227-8.1964569,31.0227509,0,0-4.0982285,2.901474-6.6026993,3.3568268s-4.0982285,1.1383972-4.6674271,2.1629486-1.9352722,3.7567139-4.0982285,5.236618-3.3013496,1.59375-3.4151878,2.390625,6.4888611,2.7321472,9.3348503-3.5290222" fill="none" stroke="#3b424c" stroke-miterlimit="10"/>
    <path d="M50.9014053,214.5499878s5.0320587,1.0328979,13.0008316-5.1144409" fill="none" stroke="#3b424c" stroke-miterlimit="10"/>
    <path d="M52.0629158,214.6153412s-.7292671,1.5511169-1.1615105,2.3408051c-.3513641.6419373-6.2993698,11.2822418-8.512989,15.2416992-.4661179.8337402-.2148018,1.8807373.5753441,2.4174347h.0000038c.8508606.5779419,2.0101814.3469238,2.5745201-.5130157l8.306694-12.6578217" fill="none" stroke="#3b424c" stroke-miterlimit="10"/>
    <path d="M52.7452049,223.120285l-5.6384239,12.2853394c-.4067345.8862152-.1084671,1.9366302.7033081,2.4768524h.0000038c.9541512.634964,2.246376.330719,2.8170166-.6632385l7.9400902-13.8303528" fill="none" stroke="#3b424c" stroke-miterlimit="10"/>
    <path d="M57.7717018,224.7745209l-3.7296867,11.4693451c-.3589478,1.1038055.2113113,2.295105,1.2961807,2.7077789h.0000038c1.1349487.4317322,2.4036942-.1486053,2.8193016-1.2895508l4.5384636-12.459259" fill="none" stroke="#3b424c" stroke-miterlimit="10"/>
    <path d="M62.3017883,226.2849426l-1.9277725,9.7321777c-.1874886.9465179.4592705,1.8560028,1.4148788,1.989624h.0000038c.8461647.1183319,1.6455841-.4157867,1.8586693-1.2431793.8314896-3.2286377,2.8073654-10.7650757,3.270401-11.3052979.5905151-.6889343,4.5272522-6.3325958,5.4130249-10.8429413s.6889267-6.3803101.6889267-6.3803101l-11.394474-5.343811" fill="none" stroke="#3b424c" stroke-miterlimit="10"/>
    <path d="M96.8533936,159.214386s.2733917,4.3496552-1.3709869,5.8237c-1.644371,1.4740448-12.2290649,5.6333466-15.6422272,8.5351715s-15.5551529,30.5652466-15.5551529,30.5652466" fill="none" stroke="#3b424c" stroke-miterlimit="10"/>
    <path d="M79.8401871,173.5732574s.5926819-5.5056763,2.7490616-9.2819672" fill="none" stroke="#3b424c" stroke-miterlimit="10"/>
    <line x1="95.4824142" y1="165.0380859" x2="67.6922836" y2="205.7364502" fill="none" stroke="#3b424c" stroke-miterlimit="10"/>
    <path d="M95.1541367,165.5188446s.8119125,7.9576874-1.7030106,11.149704-4.1592941,1.5740662-9.2858734,8.7187195-4.9331207,10.8203125-5.5134888,12.7548676-5.6318512,10.0928955-5.6318512,10.0928955" fill="none" stroke="#3b424c" stroke-miterlimit="10"/>
    <path d="M78.6517639,198.1421356s12.2844391-11.704071,14.7993622-21.473587" fill="none" stroke="#3b424c" stroke-miterlimit="10"/>
    <path d="M103.8791275,145.6756897l1.9702377,3.1673584s.1949692,4.8286896,1.2245102,7.2017059c0,0-.7206802,2.5789337,1.5443115,6.1823425,0,0,.102951,5.3960266,2.985672,11.3461761s7.5504303,23.8119812,15.3060913,26.05159" fill="none" stroke="#3b424c" stroke-miterlimit="10"/>
    <path d="M111.6038666,173.5732574s-3.5004425,9.8623962-3.5004425,18.407608,6.4861145,13.7555847,6.4861145,13.7555847c0,0,23.9883423,24.4951477,24.914917,24.931076s1.7901306,0,1.7901306,0" fill="none" stroke="#3b424c" stroke-miterlimit="10"/>
    <path d="M109.0903931,197.6579437s-8.2967224,15.5314941-9.7380753,42.19664c-1.4413605,26.6651306,4.2147827,49.0062256,4.5268173,53.3302917,0,0-2.2618256,12.8692932,6.6951981,15.4431458" fill="none" stroke="#3b424c" stroke-miterlimit="10"/>
    <path d="M104.2905807,301.8804932s-8.3357544,11.3804626-7.7180328,29.6033325c.6177292,18.2229004,4.1181717,35.4162598,5.1477127,41.2846375s0,7.3097534-.102951,7.6186218-1.7864685,3.7063599-1.202095,4.6329346,1.3050537,1.9561157,1.4080048,2.5738525-5.1477127,8.6481628-6.3831635,11.942688-7.927475,8.2363281-8.957016,11.4279175,5.1477127,4.0152283,7.2067947,3.2945251,2.3679504-.8531189,2.3679504.2426453,4.3240814,2.3017273,7.4127045,0,5.3536224-6.6257935,8.6481552-11.2587585c3.2945328-4.6329346,6.897934-4.2211304,6.4861145-8.4422607s-2.059082-7.2067871-2.059082-8.4422607,1.1324997-.9265747,1.3384018-2.9856873-3.2945328-10.5013428-4.7358932-14.9283752-1.2354507-36.3428345-.3088608-41.9023743,10.6042862-14.4136047,13.4870071-20.6937866c2.8827133-6.2802124,1.4413605-13.4869995,1.4413605-13.4869995,0,0,1.2354507-7.2067871,1.0295486-12.2515564s3.912262-24.8907928-1.3384018-41.0151978-6.0128326-26.3789673-6.0128326-26.3789673" fill="none" stroke="#3b424c" stroke-miterlimit="10"/>
    <path d="M117.0402832,208.2350311s1.9762802,18.5443726,5.6826324,39.0322571c3.7063522,20.4878998,1.2354507,36.3428497,1.4413605,39.1226044s3.7326355,6.7914429,3.7326355,6.7914429" fill="none" stroke="#3b424c" stroke-miterlimit="10"/>
    <path d="M124.1642838,286.3898926s-3.7063522,6.4790649-6.2802048,6.7914429-1.956131-17.9105225,0-27.5881958c1.956131-9.6777039,4.5775528-13.7012329,4.9655838-17.6093292" fill="none" stroke="#3b424c" stroke-miterlimit="10"/>
    <path d="M116.1775055,281.4480896s-5.3972702,9.5747375-5.6031799,9.9865723-1.7502213-5.0447693-3.3974915-11.2220154-7.8245239-26.6651459-7.8245239-40.3580627,16.480423-32.8500061,16.480423-32.8500061" fill="none" stroke="#3b424c" stroke-miterlimit="10"/>
    <path d="M107.5647659,281.6604309s-.4972305,8.2299194-3.6856384,11.5244446" fill="none" stroke="#3b424c" stroke-miterlimit="10"/>
    <path d="M119.3254318,296.3764648s2.2649918,8.3392944-3.6034012,12.2515564" fill="none" stroke="#3b424c" stroke-miterlimit="10"/>
    <path d="M103.8791275,302.5022278s1.4445267,8.1848755,2.3711166,28.5697937c.92659,20.3849487-4.0820923,45.8136292-4.0820923,45.8136292" fill="none" stroke="#3b424c" stroke-miterlimit="10"/>
    <path d="M139.1784821,230.6675415s.481308,16.9918365-1.764801,28.6234741c-2.246109,11.6316528-8.5946808,21.741333-8.5946808,21.741333" fill="none" stroke="#3b424c" stroke-miterlimit="10"/>
    <path d="M125.1149368,231.2652283s2.7238464-7.9799652,5.0245285-9.7910004" fill="none" stroke="#3b424c" stroke-miterlimit="10"/>
    <path d="M124.2544632,309.3743896s2.7308502,16.8186951-.7987595,31.3381958-7.7838898,24.3889465-6.940239,37.1824646" fill="none" stroke="#3b424c" stroke-miterlimit="10"/>
    <path d="M105.8493652,136.3141022s1.2703018,1.6271973,1.5027618,5.3465118.4649124,7.5519562.4649124,7.5519562c0,0-1.4578934.4499969-1.9676743-.3695374" fill="none" stroke="#3b424c" stroke-miterlimit="10"/>
    <path d="M116.9603577,145.1474762s-1.0848007-4.1842346-2.0921173-5.888916-1.4766998-3.2753448-1.4766998-3.2753448" fill="none" stroke="#3b424c" stroke-miterlimit="10"/>
    <path d="M111.2259674,134.5324097s-3.021492-.110199-3.7963562.3708344,0,4.3553162,0,4.3553162c0,0,3.0219421,4.1842346,3.9517746,5.0365753s5.5789719.8523407,5.5789719.8523407c0,0,4.8676071,2.7857513,6.3080902,3.1750488" fill="none" stroke="#3b424c" stroke-miterlimit="10"/>
    <path d="M107.8170395,149.2125702s1.1622849,1.7463226,1.9371414,2.2887268,5.0338821.2753448,5.4226532.3313904-2.0509186-5.4584198-3.7954559-7.5375671" fill="none" stroke="#3b424c" stroke-miterlimit="10"/>
    <path d="M115.1768417,151.8326874s7.1716309,6.2548981,7.8094635,6.9522705" fill="none" stroke="#3b424c" stroke-miterlimit="10"/>
    <path d="M110.5743256,151.8502197s1.7432175,3.9902802,1.9337692,4.920105-2.4580612,1.4158173-5.4342117-.7255859" fill="none" stroke="#3b424c" stroke-miterlimit="10"/>
    <line x1="112.5177765" y1="157.2352448" x2="123.2684479" y2="167.8635101" fill="none" stroke="#3b424c" stroke-miterlimit="10"/>
    <path d="M110.5743256,157.5610199s1.1569595,3.2385712.9432678,4.2458801-2.8993988.4201813-2.8993988.4201813" fill="none" stroke="#3b424c" stroke-miterlimit="10"/>
    <line x1="111.5439301" y1="162.3972015" x2="123.0370865" y2="178.8262329" fill="none" stroke="#3b424c" stroke-miterlimit="10"/>
    <path d="M141.2946014,20.0281334s15.8345032,1.3195419,15.8345032,14.1850777c0,0,.4948273,7.9172516,0,11.8758812,0,0,3.837326-1.0890923,4.1706696,1.4109077s-1.0833282,3.8333321-1.6666718,6.3333321c-.5833282,2.5-1.4166718,3.0833321-2.75,2.9166679,0,0-3.0936737,17.8333359-15.588501,17.8333359" fill="none" stroke="#3b424c" stroke-miterlimit="10"/>
    <path d="M152.9859161,67.0631638v11.9933014s.4078827,1.2016068-2.6970825,8.8785248-6.1384583,13.6849442-8.9942169,13.6849442c0,0,2.0841675-16.08815,4.153595-19.7597198s4.8406219-11.2505188,4.8406219-11.2505188" fill="none" stroke="#3b424c" stroke-miterlimit="10"/>
    <path d="M152.9859161,78.5224152s9.9523163,6.3418045,18.9643555,14.0187225c0,0-2.6034698,1.2016068-1.8691559,5.6742477,0,0-21.4314117.3337784-22.9320221.53405s-2.646759.6586151-2.646759.6586151" fill="none" stroke="#3b424c" stroke-miterlimit="10"/>
    <path d="M171.9502716,92.5411377s12.8838806.2670212,20.2270203,9.3458176c7.3431396,9.0787888,6.0080261,22.6302261,4.5393982,26.9025955,0,0-11.3484955-4.7396622-16.6222076-9.4793243s-10.0133667-21.094841-10.0133667-21.094841" fill="none" stroke="#3b424c" stroke-miterlimit="10"/>
    <path d="M155.6229248,137.0706329s3.9461365,5.3627014,4.2496796,6.576889c.1421661.5686493.1511688,1.8252563.1205597,3.0007172-.0371704,1.4275055-1.2055664,2.5643311-2.6335602,2.5643311h-13.35289c-1.4978638,0-2.7121124-1.2142487-2.7121124-2.7121124v-16.8161926c2.164505,0,13.6200409,7.3863525,14.3283081,7.3863525s11.5348511.4047241,14.4581909-1.517746,6.1831207-6.9816132,7.9032288-10.6242065c1.720108-3.6425858,3.6821136-4.3347855,3.6821136-4.3347855" fill="none" stroke="#3b424c" stroke-miterlimit="10"/>
    <rect x="141.2946014" y="149.2125854" width="18.3082886" height="17.5478058" rx="2.148056" ry="2.148056" fill="none" stroke="#3b424c" stroke-miterlimit="10"/>
    <rect x="141.2946014" y="166.760376" width="18.3082886" height="17.5478058" rx="2.148056" ry="2.148056" fill="none" stroke="#3b424c" stroke-miterlimit="10"/>
    <path d="M143.4426575,221.4742279h.984314c.6408386-.4137878,1.3168488-.8502808,1.9576874-1.2640533,3.590744-7.9525909,7.181427-15.9051819,10.7721558-23.8577728.8919067-1.9753571,1.4803925-4.0740814,1.7455597-6.2251892.1338959-1.0862427.267807-2.1724854.4017029-3.258728.1592102-1.2915649-.8421936-2.4336548-2.1434937-2.4446259l-13.717926-.1156464c-1.1863403,0-2.1480713.961731-2.1480713,2.1480713v32.869873c0,1.1863403.961731,2.1480713,2.1480713,2.1480713Z" fill="none" stroke="#3b424c" stroke-miterlimit="10"/>
    <path d="M182.5475616,121.2356644s1.7598267,20.1237717,3.1259003,26.3849564,14.22995,17.4174652,14.22995,17.4174652c0,0,.6830444-5.8058167,1.8214417-8.5379791s2.96138-20.9277191-5.0081787-27.710556" fill="none" stroke="#3b424c" stroke-miterlimit="10"/>
    <path d="M176.8566589,127.1149826s-.7457123,10.8292618,1.5310669,17.6596451c2.2767944,6.8303833,6.6026917,10.0178833,6.7165375,11.2701263s0,3.4151917,2.049118,4.6674194,10.5870819,2.7321472,12.7500458,4.3259125" fill="none" stroke="#3b424c" stroke-miterlimit="10"/>
    <path d="M185.1042633,156.044754s.8672028-6.8818054.5691986-8.4241333" fill="none" stroke="#3b424c" stroke-miterlimit="10"/>
    <path d="M201.7248535,156.5001221s8.5379791,3.9843903,11.04245,15.3683472c2.5044708,11.3839722,7.3995819,28.2351227,8.1964569,31.0227509,0,0,4.0982208,2.901474,6.6027069,3.3568268s4.0982208,1.1383972,4.6674194,2.1629486,1.9352722,3.7567139,4.0982208,5.236618c2.1629486,1.4799194,3.3013458,1.59375,3.4151917,2.390625s-6.4888611,2.7321472-9.3348541-3.5290222" fill="none" stroke="#3b424c" stroke-miterlimit="10"/>
    <path d="M231.6877899,214.5499878s-5.0320587,1.0328979-13.0008392-5.1144409" fill="none" stroke="#3b424c" stroke-miterlimit="10"/>
    <path d="M230.5262909,214.6153412s.7292633,1.5511169,1.1615143,2.3408051c.3513641.6419373,6.2993774,11.2822418,8.5129852,15.2416992.4661255.8337402.214798,1.8807373-.5753479,2.4174347h0c-.8508606.5779419-2.0101776.3469238-2.5745239-.5130157l-8.3066864-12.6578217" fill="none" stroke="#3b424c" stroke-miterlimit="10"/>
    <path d="M229.8439941,223.120285l5.6384277,12.2853394c.4067383.8862152.1084595,1.9366302-.7033081,2.4768524h0c-.9541473.634964-2.2463837.330719-2.8170166-.6632385l-7.940094-13.8303528" fill="none" stroke="#3b424c" stroke-miterlimit="10"/>
    <path d="M224.8175049,224.7745209l3.7296906,11.4693451c.3589478,1.1038055-.2113037,2.295105-1.2961731,2.7077789h0c-1.1349487.4317322-2.4037018-.1486053-2.8193054-1.2895508l-4.5384674-12.459259" fill="none" stroke="#3b424c" stroke-miterlimit="10"/>
    <path d="M220.2874146,226.2849426l1.9277802,9.7321777c.1874847.9465179-.4592743,1.8560028-1.4148712,1.989624h0c-.8461609.1183319-1.6455841-.4157867-1.8586731-1.2431793-.8314972-3.2286377-2.8073578-10.7650757-3.270401-11.3052979-.5905151-.6889343-4.5272522-6.3325958-5.4130249-10.8429413s-.6889343-6.3803101-.6889343-6.3803101l11.3944702-5.343811" fill="none" stroke="#3b424c" stroke-miterlimit="10"/>
    <path d="M185.7358093,159.214386s-.2733917,4.3496552,1.3709869,5.8237,12.2290649,5.6333466,15.6422272,8.5351715c3.4131622,2.9018402,15.5551453,30.5652466,15.5551453,30.5652466" fill="none" stroke="#3b424c" stroke-miterlimit="10"/>
    <path d="M202.7490082,173.5732574s-.5926819-5.5056763-2.749054-9.2819672" fill="none" stroke="#3b424c" stroke-miterlimit="10"/>
    <line x1="187.106781" y1="165.0380859" x2="214.8969116" y2="205.7364502" fill="none" stroke="#3b424c" stroke-miterlimit="10"/>
    <path d="M187.4350586,165.5188446s-.8119202,7.9576874,1.7030029,11.149704,4.1593018,1.5740662,9.2858734,8.7187195,4.9331207,10.8203125,5.5134888,12.7548676,5.6318512,10.0928955,5.6318512,10.0928955" fill="none" stroke="#3b424c" stroke-miterlimit="10"/>
    <path d="M203.937439,198.1421356s-12.2844391-11.704071-14.7993622-21.473587" fill="none" stroke="#3b424c" stroke-miterlimit="10"/>
    <path d="M178.7100677,145.6756897l-1.9702454,3.1673584s-.1949768,4.8286896-1.2245178,7.2017059c0,0,.7206726,2.5789337-1.5443115,6.1823425,0,0-.102951,5.3960266-2.985672,11.3461761-2.8827209,5.9501343-7.5504303,23.8119812-15.3060913,26.05159" fill="none" stroke="#3b424c" stroke-miterlimit="10"/>
    <path d="M170.9853363,173.5732574s3.5004425,9.8623962,3.5004425,18.407608c0,8.5451965-6.4861145,13.7555847-6.4861145,13.7555847,0,0-23.9883423,24.4951477-24.914917,24.931076s-1.7901306,0-1.7901306,0" fill="none" stroke="#3b424c" stroke-miterlimit="10"/>
    <path d="M173.4988098,197.6579437s8.2967224,15.5314941,9.7380829,42.19664c1.4413605,26.6651306-4.2147827,49.0062256-4.5268097,53.3302917,0,0,2.2618256,12.8692932-6.6951904,15.4431458" fill="none" stroke="#3b424c" stroke-miterlimit="10"/>
    <path d="M178.2986145,301.8804932s8.3357544,11.3804626,7.7180328,29.6033325c-.6177216,18.2229004-4.1181641,35.4162598-5.1477051,41.2846375s0,7.3097534.102951,7.6186218,1.7864685,3.7063599,1.2021027,4.6329346-1.3050537,1.9561157-1.4080048,2.5738525,5.1477051,8.6481628,6.3831635,11.942688,7.927475,8.2363281,8.957016,11.4279175-5.1477051,4.0152283-7.2068024,3.2945251-2.3679504-.8531189-2.3679504.2426453-4.3240814,2.3017273-7.4127045,0-5.3536224-6.6257935-8.6481628-11.2587585c-3.2945404-4.6329346-6.897934-4.2211304-6.4861145-8.4422607s2.059082-7.2067871,2.059082-8.4422607c0-1.2354431-1.1324921-.9265747-1.3384094-2.9856873-.2059021-2.059082,3.2945404-10.5013428,4.7359009-14.9283752s1.2354431-36.3428345.3088684-41.9023743-10.6042786-14.4136047-13.4869995-20.6937866c-2.8827209-6.2802124-1.4413605-13.4869995-1.4413605-13.4869995,0,0-1.2354584-7.2067871-1.029541-12.2515564.2059021-5.0447693-3.912262-24.8907928,1.3384094-41.0151978s6.0128326-26.3789673,6.0128326-26.3789673" fill="none" stroke="#3b424c" stroke-miterlimit="10"/>
    <path d="M165.5489197,208.2350311s-1.9762878,18.5443726-5.6826324,39.0322571c-3.7063446,20.4878998-1.2354584,36.3428497-1.4413605,39.1226044s-3.7326355,6.7914429-3.7326355,6.7914429" fill="none" stroke="#3b424c" stroke-miterlimit="10"/>
    <path d="M158.4249268,286.3898926s3.7063599,6.4790649,6.2802124,6.7914429,1.956131-17.9105225,0-27.5881958c-1.956131-9.6777039-4.5775452-13.7012329-4.9655914-17.6093292" fill="none" stroke="#3b424c" stroke-miterlimit="10"/>
    <path d="M166.4116974,281.4480896s5.3972778,9.5747375,5.6031799,9.9865723,1.7502289-5.0447693,3.3974915-11.2220154,7.8245239-26.6651459,7.8245239-40.3580627-16.480423-32.8500061-16.480423-32.8500061" fill="none" stroke="#3b424c" stroke-miterlimit="10"/>
    <path d="M175.0244293,281.6604309s.4972229,8.2299194,3.6856384,11.5244446" fill="none" stroke="#3b424c" stroke-miterlimit="10"/>
    <path d="M163.2637634,296.3764648s-2.2649994,8.3392944,3.6033936,12.2515564" fill="none" stroke="#3b424c" stroke-miterlimit="10"/>
    <path d="M178.7100677,302.5022278s-1.4445343,8.1848755-2.3711243,28.5697937c-.92659,20.3849487,4.0820923,45.8136292,4.0820923,45.8136292" fill="none" stroke="#3b424c" stroke-miterlimit="10"/>
    <path d="M143.4107056,230.6675415s-.481308,16.9918365,1.764801,28.6234741c2.246109,11.6316528,8.5946808,21.741333,8.5946808,21.741333" fill="none" stroke="#3b424c" stroke-miterlimit="10"/>
    <path d="M157.4742584,231.2652283s-2.7238464-7.9799652-5.0245361-9.7910004" fill="none" stroke="#3b424c" stroke-miterlimit="10"/>
    <path d="M158.3347321,309.3743896s-2.7308502,16.8186951.7987518,31.3381958,7.7838898,24.3889465,6.9402466,37.1824646" fill="none" stroke="#3b424c" stroke-miterlimit="10"/>
    <path d="M176.7398376,136.3141022s-1.2703094,1.6271973-1.5027618,5.3465118-.46492,7.5519562-.46492,7.5519562c0,0,1.457901.4499969,1.9676819-.3695374" fill="none" stroke="#3b424c" stroke-miterlimit="10"/>
    <path d="M165.6288452,145.1474762s1.0847931-4.1842346,2.0921173-5.888916c1.007309-1.7046814,1.4766998-3.2753448,1.4766998-3.2753448" fill="none" stroke="#3b424c" stroke-miterlimit="10"/>
    <path d="M171.3632355,134.5324097s3.0214996-.110199,3.7963562.3708344,0,4.3553162,0,4.3553162c0,0-3.0219421,4.1842346-3.951767,5.0365753s-5.5789795.8523407-5.5789795.8523407c0,0-4.8675995,2.7857513-6.3080902,3.1750488" fill="none" stroke="#3b424c" stroke-miterlimit="10"/>
    <path d="M174.7721558,149.2125702s-1.1622925,1.7463226-1.937149,2.2887268-5.0338745.2753448-5.4226532.3313904,2.0509186-5.4584198,3.7954559-7.5375671" fill="none" stroke="#3b424c" stroke-miterlimit="10"/>
    <path d="M167.4123535,151.8326874s-7.1716309,6.2548981-7.8094635,6.9522705" fill="none" stroke="#3b424c" stroke-miterlimit="10"/>
    <path d="M172.0148773,151.8502197s-1.7432098,3.9902802-1.9337616,4.920105,2.4580536,1.4158173,5.4342194-.7255859" fill="none" stroke="#3b424c" stroke-miterlimit="10"/>
    <line x1="170.0714264" y1="157.2352448" x2="159.320755" y2="167.8635101" fill="none" stroke="#3b424c" stroke-miterlimit="10"/>
    <path d="M172.0148773,157.5610199s-1.1569672,3.2385712-.9432678,4.2458801,2.8993988.4201813,2.8993988.4201813" fill="none" stroke="#3b424c" stroke-miterlimit="10"/>
    <line x1="171.0452728" y1="162.3972015" x2="159.552124" y2="178.8262329" fill="none" stroke="#3b424c" stroke-miterlimit="10"/>
    <line x1="141.2994232" y1="101.6166763" x2="141.2994232" y2="129.6866913" fill="none" stroke="#3b424c" stroke-miterlimit="10"/>
  </g>
</svg>